G04 PROTEUS RS274X GERBER FILE*
%FSLAX45Y45*%
%MOMM*%
G01*
%ADD31C,1.016000*%
%ADD70C,1.778000*%
%AMPPAD026*
4,1,36,
-0.952500,1.079500,
0.952500,1.079500,
0.978470,1.076970,
1.002480,1.069700,
1.024080,1.058150,
1.042790,1.042790,
1.058150,1.024070,
1.069700,1.002480,
1.076970,0.978470,
1.079500,0.952500,
1.079500,-0.952500,
1.076970,-0.978470,
1.069700,-1.002480,
1.058150,-1.024070,
1.042790,-1.042790,
1.024080,-1.058150,
1.002480,-1.069700,
0.978470,-1.076970,
0.952500,-1.079500,
-0.952500,-1.079500,
-0.978470,-1.076970,
-1.002480,-1.069700,
-1.024080,-1.058150,
-1.042790,-1.042790,
-1.058150,-1.024070,
-1.069700,-1.002480,
-1.076970,-0.978470,
-1.079500,-0.952500,
-1.079500,0.952500,
-1.076970,0.978470,
-1.069700,1.002480,
-1.058150,1.024070,
-1.042790,1.042790,
-1.024080,1.058150,
-1.002480,1.069700,
-0.978470,1.076970,
-0.952500,1.079500,
0*%
%ADD32PPAD026*%
%ADD23C,2.286000*%
%ADD33C,3.302000*%
%AMPPAD028*
4,1,8,
-1.397000,-0.509800,
-1.397000,0.509800,
-1.017800,0.889000,
1.017800,0.889000,
1.397000,0.509800,
1.397000,-0.509800,
1.017800,-0.889000,
-1.017800,-0.889000,
-1.397000,-0.509800,
0*%
%ADD34PPAD028*%
%ADD17C,2.032000*%
%AMPPAD029*
4,1,4,
-0.525000,0.525000,
0.525000,0.525000,
0.525000,-0.525000,
-0.525000,-0.525000,
-0.525000,0.525000,
0*%
%ADD35PPAD029*%
%ADD21C,1.050000*%
%AMPPAD030*
4,1,36,
1.016000,-1.143000,
-1.016000,-1.143000,
-1.041970,-1.140470,
-1.065980,-1.133200,
-1.087580,-1.121650,
-1.106290,-1.106290,
-1.121650,-1.087570,
-1.133200,-1.065980,
-1.140470,-1.041970,
-1.143000,-1.016000,
-1.143000,1.016000,
-1.140470,1.041970,
-1.133200,1.065980,
-1.121650,1.087570,
-1.106290,1.106290,
-1.087580,1.121650,
-1.065980,1.133200,
-1.041970,1.140470,
-1.016000,1.143000,
1.016000,1.143000,
1.041970,1.140470,
1.065980,1.133200,
1.087580,1.121650,
1.106290,1.106290,
1.121650,1.087570,
1.133200,1.065980,
1.140470,1.041970,
1.143000,1.016000,
1.143000,-1.016000,
1.140470,-1.041970,
1.133200,-1.065980,
1.121650,-1.087570,
1.106290,-1.106290,
1.087580,-1.121650,
1.065980,-1.133200,
1.041970,-1.140470,
1.016000,-1.143000,
0*%
%ADD36PPAD030*%
%ADD37C,2.540000*%
%AMPPAD032*
4,1,36,
-1.143000,1.270000,
1.143000,1.270000,
1.168970,1.267470,
1.192980,1.260200,
1.214580,1.248650,
1.233290,1.233290,
1.248650,1.214570,
1.260200,1.192980,
1.267470,1.168970,
1.270000,1.143000,
1.270000,-1.143000,
1.267470,-1.168970,
1.260200,-1.192980,
1.248650,-1.214570,
1.233290,-1.233290,
1.214580,-1.248650,
1.192980,-1.260200,
1.168970,-1.267470,
1.143000,-1.270000,
-1.143000,-1.270000,
-1.168970,-1.267470,
-1.192980,-1.260200,
-1.214580,-1.248650,
-1.233290,-1.233290,
-1.248650,-1.214570,
-1.260200,-1.192980,
-1.267470,-1.168970,
-1.270000,-1.143000,
-1.270000,1.143000,
-1.267470,1.168970,
-1.260200,1.192980,
-1.248650,1.214570,
-1.233290,1.233290,
-1.214580,1.248650,
-1.192980,1.260200,
-1.168970,1.267470,
-1.143000,1.270000,
0*%
%ADD38PPAD032*%
%ADD25C,0.203200*%
D31*
X-7078860Y+7838661D03*
D70*
X-7094910Y+7838661D03*
X-6028367Y+7843888D03*
X-5475383Y+7541906D03*
X-7067541Y+7541906D03*
X-8894910Y+7762530D03*
X-9772614Y+8031800D03*
X-5840219Y+7692325D03*
X-6948202Y+7697551D03*
X-8050280Y+8026740D03*
X-8794910Y+8062530D03*
D31*
X-10393245Y+6040330D03*
D70*
X-6779422Y+6861107D03*
X-3555910Y+6901530D03*
X-3555910Y+5901530D03*
X-3951805Y+6917609D03*
X-3943966Y+5859277D03*
X-4305910Y+5401530D03*
X-5305910Y+5401530D03*
X-3758873Y+6904986D03*
X-3758873Y+5885851D03*
D31*
X-3751034Y+5878012D03*
D70*
X-3751034Y+5344926D03*
D31*
X-3743194Y+5337086D03*
D70*
X-3774552Y+4286592D03*
X-7311413Y+2964758D03*
X-7304694Y+3851741D03*
X-7267579Y+8629786D03*
X-7262804Y+9393695D03*
X-6150000Y+7984999D03*
X-7250000Y+7984999D03*
X-11813010Y+1736803D03*
X-11819175Y+2377967D03*
D31*
X-9928340Y+6283127D03*
D70*
X-9928340Y+6274307D03*
X-9346257Y+5436460D03*
X-8623062Y+5348266D03*
X-7414799Y+5198335D03*
X-9070058Y+7612530D03*
X-9926360Y+6583132D03*
X-6778128Y+6029312D03*
X-11751238Y+4838174D03*
X-10739130Y+4864093D03*
X-10108463Y+4868683D03*
X-9185221Y+3642028D03*
D31*
X-11717586Y+7346575D03*
D70*
X-12300000Y+7350000D03*
X-11721011Y+7350000D03*
X-11072910Y+8312530D03*
X-10818910Y+8312530D03*
X-10564910Y+8312530D03*
X-10310910Y+8312530D03*
X-10056910Y+8312530D03*
X-9802910Y+8312530D03*
X-9548910Y+8312530D03*
X-9294910Y+8312530D03*
X-9040910Y+8312530D03*
X-8786910Y+8312530D03*
X-8532910Y+8312530D03*
X-8278910Y+8312530D03*
X-8024910Y+8312530D03*
X-7770910Y+8312530D03*
X-7516910Y+8312530D03*
X-7262910Y+8312530D03*
D32*
X-9055910Y+5651530D03*
D23*
X-8801910Y+5651530D03*
X-8547910Y+5651530D03*
X-8293910Y+5651530D03*
X-8039910Y+5651530D03*
X-7785910Y+5651530D03*
X-7531910Y+5651530D03*
X-7277910Y+5651530D03*
X-7023910Y+5651530D03*
X-6769910Y+5651530D03*
X-6515910Y+5651530D03*
X-6261910Y+5651530D03*
X-6007910Y+5651530D03*
X-5753910Y+5651530D03*
X-5499910Y+5651530D03*
X-5245910Y+5651530D03*
X-4991910Y+5651530D03*
X-4737910Y+5651530D03*
X-4483910Y+5651530D03*
X-4229910Y+5651530D03*
X-4229910Y+7175530D03*
X-4483910Y+7175530D03*
X-4737910Y+7175530D03*
X-4991910Y+7175530D03*
X-5245910Y+7175530D03*
X-5499910Y+7175530D03*
X-5753910Y+7175530D03*
X-6007910Y+7175530D03*
X-6261910Y+7175530D03*
X-6515910Y+7175530D03*
X-6769910Y+7175530D03*
X-7023910Y+7175530D03*
X-7277910Y+7175530D03*
X-7531910Y+7175530D03*
X-7785910Y+7175530D03*
X-8039910Y+7175530D03*
X-8293910Y+7175530D03*
X-8547910Y+7175530D03*
X-8801910Y+7175530D03*
X-9055910Y+7175530D03*
D33*
X-12255910Y+2151530D03*
X-12255910Y+1643530D03*
D70*
X-3305910Y+5897530D03*
X-3305910Y+6151530D03*
X-3305910Y+6405530D03*
D34*
X-5567910Y+1655530D03*
X-5567910Y+1909530D03*
X-5567910Y+2163530D03*
X-5567910Y+2417530D03*
X-6329910Y+2417530D03*
X-6329910Y+2163530D03*
X-6329910Y+1909530D03*
D17*
X-6294910Y+9312530D03*
X-6294910Y+8804530D03*
X-3294910Y+9312530D03*
X-3294910Y+8804530D03*
X-5294910Y+9312530D03*
X-5294910Y+8804530D03*
X-4294910Y+9312530D03*
X-4294910Y+8804530D03*
X-6805910Y+4651530D03*
X-6297910Y+4651530D03*
X-6555910Y+5151530D03*
X-7063910Y+5151530D03*
X-6055910Y+5151530D03*
X-5547910Y+5151530D03*
X-5805910Y+4651530D03*
X-5297910Y+4651530D03*
X-5055910Y+5151530D03*
X-4547910Y+5151530D03*
D35*
X-6805910Y+4151530D03*
D21*
X-6655910Y+4151530D03*
D17*
X-10794910Y+7562530D03*
X-9778910Y+7562530D03*
X-11016000Y+7150000D03*
X-10000000Y+7150000D03*
X-9794910Y+7812530D03*
X-10810910Y+7812530D03*
X-9944910Y+8812530D03*
X-10960910Y+8812530D03*
X-6044910Y+8312530D03*
X-5028910Y+8312530D03*
X-5544910Y+8062530D03*
X-4528910Y+8062530D03*
X-5044910Y+7812530D03*
X-4028910Y+7812530D03*
X-10015459Y+6900000D03*
X-11031459Y+6900000D03*
D33*
X-3305910Y+1651530D03*
X-3305910Y+2159530D03*
X-7055910Y+1901530D03*
X-7563910Y+1901530D03*
D36*
X-8555910Y+2901530D03*
X-8809910Y+2901530D03*
X-9063910Y+2901530D03*
X-10055910Y+2901530D03*
X-10309910Y+2901530D03*
X-10563910Y+2901530D03*
D32*
X-9055910Y+5151530D03*
D23*
X-9309910Y+5151530D03*
X-9563910Y+5151530D03*
X-9817910Y+5151530D03*
X-9817910Y+4389530D03*
X-9563910Y+4389530D03*
X-9309910Y+4389530D03*
X-9055910Y+4389530D03*
D17*
X-12005910Y+4651530D03*
X-12005910Y+4905530D03*
X-8555910Y+4151530D03*
X-8555910Y+4659530D03*
D35*
X-8055910Y+4476530D03*
D21*
X-8055910Y+4326530D03*
D17*
X-10055910Y+3901530D03*
X-9039910Y+3901530D03*
X-10305910Y+4651530D03*
X-11321910Y+4651530D03*
X-6055910Y+3651530D03*
X-7071910Y+3651530D03*
D37*
X-11239910Y+2651530D03*
X-12255910Y+2651530D03*
X-11239910Y+3151530D03*
X-12255910Y+3151530D03*
X-12266000Y+3700000D03*
X-11250000Y+3700000D03*
X-12271910Y+4151530D03*
X-11255910Y+4151530D03*
D36*
X-8805910Y+1901530D03*
X-8551910Y+1901530D03*
D17*
X-9555910Y+2401530D03*
X-9555910Y+3417530D03*
D37*
X-10555910Y+4417530D03*
X-10555910Y+3401530D03*
D17*
X-8805910Y+3651530D03*
X-7789910Y+3651530D03*
D38*
X-12050000Y+5800000D03*
D37*
X-12050000Y+6300000D03*
D38*
X-5550000Y+3150000D03*
D37*
X-5050000Y+3150000D03*
D25*
X-13155910Y+1151530D02*
X-2305910Y+1151530D01*
X-2305910Y+9701530D01*
X-13155910Y+9701530D01*
X-13155910Y+1151530D01*
M02*
