G04 PROTEUS RS274X GERBER FILE*
%FSLAX45Y45*%
%MOMM*%
G01*
%ADD29C,0.508000*%
%ADD72C,0.152400*%
%ADD25C,0.203200*%
%ADD73C,0.120000*%
%ADD30C,0.200000*%
D29*
X-11034810Y+8503030D02*
X-11034941Y+8506188D01*
X-11036007Y+8512506D01*
X-11038238Y+8518824D01*
X-11041883Y+8525142D01*
X-11047458Y+8531381D01*
X-11053776Y+8535977D01*
X-11060094Y+8538910D01*
X-11066412Y+8540572D01*
X-11072730Y+8541130D01*
X-11072910Y+8541130D01*
X-11111010Y+8503030D02*
X-11110879Y+8506188D01*
X-11109813Y+8512506D01*
X-11107582Y+8518824D01*
X-11103937Y+8525142D01*
X-11098362Y+8531381D01*
X-11092044Y+8535977D01*
X-11085726Y+8538910D01*
X-11079408Y+8540572D01*
X-11073090Y+8541130D01*
X-11072910Y+8541130D01*
X-11111010Y+8503030D02*
X-11110879Y+8499872D01*
X-11109813Y+8493554D01*
X-11107582Y+8487236D01*
X-11103937Y+8480918D01*
X-11098362Y+8474679D01*
X-11092044Y+8470083D01*
X-11085726Y+8467150D01*
X-11079408Y+8465488D01*
X-11073090Y+8464930D01*
X-11072910Y+8464930D01*
X-11034810Y+8503030D02*
X-11034941Y+8499872D01*
X-11036007Y+8493554D01*
X-11038238Y+8487236D01*
X-11041883Y+8480918D01*
X-11047458Y+8474679D01*
X-11053776Y+8470083D01*
X-11060094Y+8467150D01*
X-11066412Y+8465488D01*
X-11072730Y+8464930D01*
X-11072910Y+8464930D01*
D72*
X-11441210Y+8185530D02*
X-6894610Y+8185530D01*
X-6894610Y+8439530D01*
X-11441210Y+8439530D01*
X-11441210Y+8185530D01*
D25*
X-9294910Y+8627490D02*
X-9294910Y+8612250D01*
X-9279035Y+8597010D01*
X-9215535Y+8597010D01*
X-9199660Y+8612250D01*
X-9199660Y+8688450D01*
X-9072660Y+8627490D02*
X-9167910Y+8627490D01*
X-9104410Y+8688450D01*
X-9104410Y+8597010D01*
X-8928910Y+6413530D02*
X-8933990Y+6465282D01*
X-8948595Y+6513225D01*
X-8971772Y+6556405D01*
X-9002570Y+6593870D01*
X-9040035Y+6624668D01*
X-9083215Y+6647845D01*
X-9131158Y+6662450D01*
X-9182910Y+6667530D01*
X-8928910Y+6413530D02*
X-8933990Y+6361048D01*
X-8948595Y+6312763D01*
X-8971772Y+6269539D01*
X-9002570Y+6232238D01*
X-9040035Y+6201723D01*
X-9083215Y+6178858D01*
X-9131158Y+6164506D01*
X-9182910Y+6159530D01*
X-9182910Y+6667530D02*
X-9182910Y+7048530D01*
X-4102910Y+7048530D02*
X-4102910Y+5778530D01*
X-9182910Y+5778530D02*
X-9182910Y+6159530D01*
X-9182910Y+7048530D02*
X-4102910Y+7048530D01*
X-9182910Y+5778530D02*
X-4102910Y+5778530D01*
X-9314990Y+6286530D02*
X-9238790Y+6286530D01*
X-9223550Y+6302405D01*
X-9223550Y+6365905D01*
X-9238790Y+6381780D01*
X-9314990Y+6381780D01*
X-9299750Y+6429405D02*
X-9314990Y+6445280D01*
X-9314990Y+6492905D01*
X-9299750Y+6508780D01*
X-9284510Y+6508780D01*
X-9269270Y+6492905D01*
X-9269270Y+6445280D01*
X-9254030Y+6429405D01*
X-9223550Y+6429405D01*
X-9223550Y+6508780D01*
X-11747910Y+2405530D02*
X-12763910Y+2405530D01*
X-11747910Y+1389530D02*
X-12763910Y+1389530D01*
X-12763910Y+2405530D02*
X-12763910Y+1389530D01*
X-11747910Y+2405530D02*
X-11747910Y+1389530D01*
X-11646310Y+1770530D02*
X-11631070Y+1770530D01*
X-11615830Y+1786405D01*
X-11615830Y+1849905D01*
X-11631070Y+1865780D01*
X-11707270Y+1865780D01*
X-11676790Y+1929280D02*
X-11707270Y+1961030D01*
X-11615830Y+1961030D01*
D29*
X-3458310Y+5897530D02*
X-3458441Y+5900688D01*
X-3459507Y+5907006D01*
X-3461738Y+5913324D01*
X-3465383Y+5919642D01*
X-3470958Y+5925881D01*
X-3477276Y+5930477D01*
X-3483594Y+5933410D01*
X-3489912Y+5935072D01*
X-3496230Y+5935630D01*
X-3496410Y+5935630D01*
X-3534510Y+5897530D02*
X-3534379Y+5900688D01*
X-3533313Y+5907006D01*
X-3531082Y+5913324D01*
X-3527437Y+5919642D01*
X-3521862Y+5925881D01*
X-3515544Y+5930477D01*
X-3509226Y+5933410D01*
X-3502908Y+5935072D01*
X-3496590Y+5935630D01*
X-3496410Y+5935630D01*
X-3534510Y+5897530D02*
X-3534379Y+5894372D01*
X-3533313Y+5888054D01*
X-3531082Y+5881736D01*
X-3527437Y+5875418D01*
X-3521862Y+5869179D01*
X-3515544Y+5864583D01*
X-3509226Y+5861650D01*
X-3502908Y+5859988D01*
X-3496590Y+5859430D01*
X-3496410Y+5859430D01*
X-3458310Y+5897530D02*
X-3458441Y+5894372D01*
X-3459507Y+5888054D01*
X-3461738Y+5881736D01*
X-3465383Y+5875418D01*
X-3470958Y+5869179D01*
X-3477276Y+5864583D01*
X-3483594Y+5861650D01*
X-3489912Y+5859988D01*
X-3496230Y+5859430D01*
X-3496410Y+5859430D01*
D72*
X-3178910Y+5529230D02*
X-3178910Y+6773830D01*
X-3432910Y+6773830D01*
X-3432910Y+5529230D01*
X-3178910Y+5529230D01*
D25*
X-3620870Y+6024530D02*
X-3605630Y+6024530D01*
X-3590390Y+6040405D01*
X-3590390Y+6103905D01*
X-3605630Y+6119780D01*
X-3681830Y+6119780D01*
X-3681830Y+6246780D02*
X-3681830Y+6167405D01*
X-3651350Y+6167405D01*
X-3651350Y+6230905D01*
X-3636110Y+6246780D01*
X-3605630Y+6246780D01*
X-3590390Y+6230905D01*
X-3590390Y+6183280D01*
X-3605630Y+6167405D01*
X-6075910Y+1592030D02*
X-5821910Y+1592030D01*
X-5821910Y+1719030D01*
X-6075910Y+1719030D01*
X-6075910Y+1592030D01*
X-5923510Y+1592030D02*
X-5923510Y+1719030D01*
X-5898110Y+1592030D02*
X-5898110Y+1719030D01*
X-5872710Y+1592030D02*
X-5872710Y+1719030D01*
X-5847310Y+1592030D02*
X-5847310Y+1719030D01*
X-6075910Y+1846030D02*
X-5821910Y+1846030D01*
X-5821910Y+1973030D01*
X-6075910Y+1973030D01*
X-6075910Y+1846030D01*
X-5923510Y+1846030D02*
X-5923510Y+1973030D01*
X-5898110Y+1846030D02*
X-5898110Y+1973030D01*
X-5872710Y+1846030D02*
X-5872710Y+1973030D01*
X-5847310Y+1846030D02*
X-5847310Y+1973030D01*
X-6075910Y+2100030D02*
X-5821910Y+2100030D01*
X-5821910Y+2227030D01*
X-6075910Y+2227030D01*
X-6075910Y+2100030D01*
X-5923510Y+2100030D02*
X-5923510Y+2227030D01*
X-5898110Y+2100030D02*
X-5898110Y+2227030D01*
X-5872710Y+2100030D02*
X-5872710Y+2227030D01*
X-5847310Y+2100030D02*
X-5847310Y+2227030D01*
X-6075910Y+2354030D02*
X-5821910Y+2354030D01*
X-5821910Y+2481030D01*
X-6075910Y+2481030D01*
X-6075910Y+2354030D01*
X-5923510Y+2354030D02*
X-5923510Y+2481030D01*
X-5898110Y+2354030D02*
X-5898110Y+2481030D01*
X-5872710Y+2354030D02*
X-5872710Y+2481030D01*
X-5847310Y+2354030D02*
X-5847310Y+2481030D01*
X-6202910Y+1528530D02*
X-5694910Y+1528530D01*
X-5694910Y+2544530D01*
X-6202910Y+2544530D01*
X-6202910Y+1528530D01*
X-6202910Y+1396450D02*
X-6202910Y+1487890D01*
X-6139410Y+1487890D01*
X-6107660Y+1457410D01*
X-6107660Y+1426930D01*
X-6139410Y+1396450D01*
X-6202910Y+1396450D01*
X-6075910Y+1411690D02*
X-6060035Y+1396450D01*
X-5996535Y+1396450D01*
X-5980660Y+1411690D01*
X-5980660Y+1426930D01*
X-5996535Y+1442170D01*
X-6060035Y+1442170D01*
X-6075910Y+1457410D01*
X-6075910Y+1472650D01*
X-6060035Y+1487890D01*
X-5996535Y+1487890D01*
X-5980660Y+1472650D01*
X-5948910Y+1487890D02*
X-5948910Y+1396450D01*
X-5901285Y+1442170D01*
X-5853660Y+1396450D01*
X-5853660Y+1487890D01*
X-5790160Y+1457410D02*
X-5758410Y+1487890D01*
X-5758410Y+1396450D01*
X-6294910Y+9439530D02*
X-6269034Y+9432014D01*
X-6245062Y+9410360D01*
X-6223472Y+9375906D01*
X-6204740Y+9329992D01*
X-6189341Y+9273959D01*
X-6177752Y+9209144D01*
X-6170450Y+9136888D01*
X-6167910Y+9058530D01*
X-6294910Y+8677530D02*
X-6269034Y+8685150D01*
X-6245062Y+8707058D01*
X-6223472Y+8741824D01*
X-6204740Y+8788020D01*
X-6189341Y+8844218D01*
X-6177752Y+8908988D01*
X-6170450Y+8980901D01*
X-6167910Y+9058530D01*
X-6294910Y+8677530D02*
X-6320786Y+8685150D01*
X-6344758Y+8707058D01*
X-6366348Y+8741824D01*
X-6385080Y+8788020D01*
X-6400479Y+8844218D01*
X-6412068Y+8908988D01*
X-6419370Y+8980901D01*
X-6421910Y+9058530D01*
X-6294910Y+9439530D02*
X-6320786Y+9432014D01*
X-6344758Y+9410360D01*
X-6366348Y+9375906D01*
X-6385080Y+9329992D01*
X-6400479Y+9273959D01*
X-6412068Y+9209144D01*
X-6419370Y+9136888D01*
X-6421910Y+9058530D01*
X-6051070Y+8677530D02*
X-6035830Y+8693405D01*
X-6035830Y+8756905D01*
X-6051070Y+8772780D01*
X-6066310Y+8772780D01*
X-6081550Y+8756905D01*
X-6081550Y+8693405D01*
X-6096790Y+8677530D01*
X-6112030Y+8677530D01*
X-6127270Y+8693405D01*
X-6127270Y+8756905D01*
X-6112030Y+8772780D01*
X-6035830Y+8804530D02*
X-6127270Y+8804530D01*
X-6127270Y+8883905D01*
X-6112030Y+8899780D01*
X-6096790Y+8899780D01*
X-6081550Y+8883905D01*
X-6081550Y+8804530D01*
X-6081550Y+8883905D02*
X-6066310Y+8899780D01*
X-6035830Y+8899780D01*
X-6035830Y+9026780D02*
X-6035830Y+8931530D01*
X-6127270Y+8931530D01*
X-6127270Y+9026780D01*
X-6081550Y+8931530D02*
X-6081550Y+8995030D01*
X-6051070Y+9058530D02*
X-6035830Y+9074405D01*
X-6035830Y+9137905D01*
X-6051070Y+9153780D01*
X-6066310Y+9153780D01*
X-6081550Y+9137905D01*
X-6081550Y+9074405D01*
X-6096790Y+9058530D01*
X-6112030Y+9058530D01*
X-6127270Y+9074405D01*
X-6127270Y+9137905D01*
X-6112030Y+9153780D01*
X-6035830Y+9280780D02*
X-6035830Y+9185530D01*
X-6127270Y+9185530D01*
X-6127270Y+9280780D01*
X-6081550Y+9185530D02*
X-6081550Y+9249030D01*
X-6127270Y+9312530D02*
X-6127270Y+9407780D01*
X-6127270Y+9360155D02*
X-6035830Y+9360155D01*
X-3294910Y+9439530D02*
X-3269034Y+9432014D01*
X-3245062Y+9410360D01*
X-3223472Y+9375906D01*
X-3204740Y+9329992D01*
X-3189341Y+9273959D01*
X-3177752Y+9209144D01*
X-3170450Y+9136888D01*
X-3167910Y+9058530D01*
X-3294910Y+8677530D02*
X-3269034Y+8685150D01*
X-3245062Y+8707058D01*
X-3223472Y+8741824D01*
X-3204740Y+8788020D01*
X-3189341Y+8844218D01*
X-3177752Y+8908988D01*
X-3170450Y+8980901D01*
X-3167910Y+9058530D01*
X-3294910Y+8677530D02*
X-3320786Y+8685150D01*
X-3344758Y+8707058D01*
X-3366348Y+8741824D01*
X-3385080Y+8788020D01*
X-3400479Y+8844218D01*
X-3412068Y+8908988D01*
X-3419370Y+8980901D01*
X-3421910Y+9058530D01*
X-3294910Y+9439530D02*
X-3320786Y+9432014D01*
X-3344758Y+9410360D01*
X-3366348Y+9375906D01*
X-3385080Y+9329992D01*
X-3400479Y+9273959D01*
X-3412068Y+9209144D01*
X-3419370Y+9136888D01*
X-3421910Y+9058530D01*
X-3127270Y+8804530D02*
X-3035830Y+8804530D01*
X-3127270Y+8899780D02*
X-3081550Y+8852155D01*
X-3035830Y+8899780D01*
X-3081550Y+8804530D02*
X-3081550Y+8852155D01*
X-3035830Y+9026780D02*
X-3035830Y+8931530D01*
X-3127270Y+8931530D01*
X-3127270Y+9026780D01*
X-3081550Y+8931530D02*
X-3081550Y+8995030D01*
X-3127270Y+9153780D02*
X-3035830Y+9058530D01*
X-3127270Y+9058530D02*
X-3081550Y+9106155D01*
X-3051070Y+9185530D02*
X-3112030Y+9185530D01*
X-3127270Y+9201405D01*
X-3127270Y+9264905D01*
X-3112030Y+9280780D01*
X-3051070Y+9280780D01*
X-3035830Y+9264905D01*
X-3035830Y+9201405D01*
X-3051070Y+9185530D01*
X-3035830Y+9185530D02*
X-3127270Y+9280780D01*
X-5294910Y+9439530D02*
X-5269034Y+9432014D01*
X-5245062Y+9410360D01*
X-5223472Y+9375906D01*
X-5204740Y+9329992D01*
X-5189341Y+9273959D01*
X-5177752Y+9209144D01*
X-5170450Y+9136888D01*
X-5167910Y+9058530D01*
X-5294910Y+8677530D02*
X-5269034Y+8685150D01*
X-5245062Y+8707058D01*
X-5223472Y+8741824D01*
X-5204740Y+8788020D01*
X-5189341Y+8844218D01*
X-5177752Y+8908988D01*
X-5170450Y+8980901D01*
X-5167910Y+9058530D01*
X-5294910Y+8677530D02*
X-5320786Y+8685150D01*
X-5344758Y+8707058D01*
X-5366348Y+8741824D01*
X-5385080Y+8788020D01*
X-5400479Y+8844218D01*
X-5412068Y+8908988D01*
X-5419370Y+8980901D01*
X-5421910Y+9058530D01*
X-5294910Y+9439530D02*
X-5320786Y+9432014D01*
X-5344758Y+9410360D01*
X-5366348Y+9375906D01*
X-5385080Y+9329992D01*
X-5400479Y+9273959D01*
X-5412068Y+9209144D01*
X-5419370Y+9136888D01*
X-5421910Y+9058530D01*
X-5127270Y+8804530D02*
X-5035830Y+8804530D01*
X-5127270Y+8899780D02*
X-5081550Y+8852155D01*
X-5035830Y+8899780D01*
X-5081550Y+8804530D02*
X-5081550Y+8852155D01*
X-5035830Y+9026780D02*
X-5035830Y+8931530D01*
X-5127270Y+8931530D01*
X-5127270Y+9026780D01*
X-5081550Y+8931530D02*
X-5081550Y+8995030D01*
X-5127270Y+9153780D02*
X-5035830Y+9058530D01*
X-5127270Y+9058530D02*
X-5081550Y+9106155D01*
X-5096790Y+9217280D02*
X-5127270Y+9249030D01*
X-5035830Y+9249030D01*
X-4294910Y+9439530D02*
X-4269034Y+9432014D01*
X-4245062Y+9410360D01*
X-4223472Y+9375906D01*
X-4204740Y+9329992D01*
X-4189341Y+9273959D01*
X-4177752Y+9209144D01*
X-4170450Y+9136888D01*
X-4167910Y+9058530D01*
X-4294910Y+8677530D02*
X-4269034Y+8685150D01*
X-4245062Y+8707058D01*
X-4223472Y+8741824D01*
X-4204740Y+8788020D01*
X-4189341Y+8844218D01*
X-4177752Y+8908988D01*
X-4170450Y+8980901D01*
X-4167910Y+9058530D01*
X-4294910Y+8677530D02*
X-4320786Y+8685150D01*
X-4344758Y+8707058D01*
X-4366348Y+8741824D01*
X-4385080Y+8788020D01*
X-4400479Y+8844218D01*
X-4412068Y+8908988D01*
X-4419370Y+8980901D01*
X-4421910Y+9058530D01*
X-4294910Y+9439530D02*
X-4320786Y+9432014D01*
X-4344758Y+9410360D01*
X-4366348Y+9375906D01*
X-4385080Y+9329992D01*
X-4400479Y+9273959D01*
X-4412068Y+9209144D01*
X-4419370Y+9136888D01*
X-4421910Y+9058530D01*
X-4127270Y+8804530D02*
X-4035830Y+8804530D01*
X-4127270Y+8899780D02*
X-4081550Y+8852155D01*
X-4035830Y+8899780D01*
X-4081550Y+8804530D02*
X-4081550Y+8852155D01*
X-4035830Y+9026780D02*
X-4035830Y+8931530D01*
X-4127270Y+8931530D01*
X-4127270Y+9026780D01*
X-4081550Y+8931530D02*
X-4081550Y+8995030D01*
X-4127270Y+9153780D02*
X-4035830Y+9058530D01*
X-4127270Y+9058530D02*
X-4081550Y+9106155D01*
X-4112030Y+9201405D02*
X-4127270Y+9217280D01*
X-4127270Y+9264905D01*
X-4112030Y+9280780D01*
X-4096790Y+9280780D01*
X-4081550Y+9264905D01*
X-4081550Y+9217280D01*
X-4066310Y+9201405D01*
X-4035830Y+9201405D01*
X-4035830Y+9280780D01*
X-6932910Y+4651530D02*
X-6925394Y+4677406D01*
X-6903740Y+4701378D01*
X-6869286Y+4722968D01*
X-6823372Y+4741700D01*
X-6767338Y+4757099D01*
X-6702524Y+4768688D01*
X-6630268Y+4775990D01*
X-6551910Y+4778530D01*
X-6170910Y+4651530D02*
X-6178530Y+4677406D01*
X-6200438Y+4701378D01*
X-6235204Y+4722968D01*
X-6281400Y+4741700D01*
X-6337598Y+4757099D01*
X-6402368Y+4768688D01*
X-6474281Y+4775990D01*
X-6551910Y+4778530D01*
X-6170910Y+4651530D02*
X-6178530Y+4625654D01*
X-6200438Y+4601682D01*
X-6235204Y+4580092D01*
X-6281400Y+4561360D01*
X-6337598Y+4545961D01*
X-6402368Y+4534372D01*
X-6474281Y+4527070D01*
X-6551910Y+4524530D01*
X-6932910Y+4651530D02*
X-6925394Y+4625654D01*
X-6903740Y+4601682D01*
X-6869286Y+4580092D01*
X-6823372Y+4561360D01*
X-6767338Y+4545961D01*
X-6702524Y+4534372D01*
X-6630268Y+4527070D01*
X-6551910Y+4524530D01*
X-6583660Y+4834410D02*
X-6599535Y+4819170D01*
X-6647160Y+4819170D01*
X-6678910Y+4849650D01*
X-6678910Y+4880130D01*
X-6647160Y+4910610D01*
X-6599535Y+4910610D01*
X-6583660Y+4895370D01*
X-6536035Y+4910610D02*
X-6456660Y+4910610D01*
X-6456660Y+4895370D01*
X-6536035Y+4819170D01*
X-6428910Y+5151530D02*
X-6436426Y+5125654D01*
X-6458080Y+5101682D01*
X-6492534Y+5080092D01*
X-6538448Y+5061360D01*
X-6594482Y+5045961D01*
X-6659296Y+5034372D01*
X-6731552Y+5027070D01*
X-6809910Y+5024530D01*
X-7190910Y+5151530D02*
X-7183290Y+5125654D01*
X-7161382Y+5101682D01*
X-7126616Y+5080092D01*
X-7080420Y+5061360D01*
X-7024222Y+5045961D01*
X-6959452Y+5034372D01*
X-6887539Y+5027070D01*
X-6809910Y+5024530D01*
X-7190910Y+5151530D02*
X-7183290Y+5177406D01*
X-7161382Y+5201378D01*
X-7126616Y+5222968D01*
X-7080420Y+5241700D01*
X-7024222Y+5257099D01*
X-6959452Y+5268688D01*
X-6887539Y+5275990D01*
X-6809910Y+5278530D01*
X-6428910Y+5151530D02*
X-6436426Y+5177406D01*
X-6458080Y+5201378D01*
X-6492534Y+5222968D01*
X-6538448Y+5241700D01*
X-6594482Y+5257099D01*
X-6659296Y+5268688D01*
X-6731552Y+5275990D01*
X-6809910Y+5278530D01*
X-6841660Y+4907690D02*
X-6857535Y+4892450D01*
X-6905160Y+4892450D01*
X-6936910Y+4922930D01*
X-6936910Y+4953410D01*
X-6905160Y+4983890D01*
X-6857535Y+4983890D01*
X-6841660Y+4968650D01*
X-6778160Y+4938170D02*
X-6794035Y+4953410D01*
X-6794035Y+4968650D01*
X-6778160Y+4983890D01*
X-6730535Y+4983890D01*
X-6714660Y+4968650D01*
X-6714660Y+4953410D01*
X-6730535Y+4938170D01*
X-6778160Y+4938170D01*
X-6794035Y+4922930D01*
X-6794035Y+4907690D01*
X-6778160Y+4892450D01*
X-6730535Y+4892450D01*
X-6714660Y+4907690D01*
X-6714660Y+4922930D01*
X-6730535Y+4938170D01*
X-6182910Y+5151530D02*
X-6175394Y+5177406D01*
X-6153740Y+5201378D01*
X-6119286Y+5222968D01*
X-6073372Y+5241700D01*
X-6017338Y+5257099D01*
X-5952524Y+5268688D01*
X-5880268Y+5275990D01*
X-5801910Y+5278530D01*
X-5420910Y+5151530D02*
X-5428530Y+5177406D01*
X-5450438Y+5201378D01*
X-5485204Y+5222968D01*
X-5531400Y+5241700D01*
X-5587598Y+5257099D01*
X-5652368Y+5268688D01*
X-5724281Y+5275990D01*
X-5801910Y+5278530D01*
X-5420910Y+5151530D02*
X-5428530Y+5125654D01*
X-5450438Y+5101682D01*
X-5485204Y+5080092D01*
X-5531400Y+5061360D01*
X-5587598Y+5045961D01*
X-5652368Y+5034372D01*
X-5724281Y+5027070D01*
X-5801910Y+5024530D01*
X-6182910Y+5151530D02*
X-6175394Y+5125654D01*
X-6153740Y+5101682D01*
X-6119286Y+5080092D01*
X-6073372Y+5061360D01*
X-6017338Y+5045961D01*
X-5952524Y+5034372D01*
X-5880268Y+5027070D01*
X-5801910Y+5024530D01*
X-5833660Y+5334410D02*
X-5849535Y+5319170D01*
X-5897160Y+5319170D01*
X-5928910Y+5349650D01*
X-5928910Y+5380130D01*
X-5897160Y+5410610D01*
X-5849535Y+5410610D01*
X-5833660Y+5395370D01*
X-5706660Y+5380130D02*
X-5722535Y+5364890D01*
X-5770160Y+5364890D01*
X-5786035Y+5380130D01*
X-5786035Y+5395370D01*
X-5770160Y+5410610D01*
X-5722535Y+5410610D01*
X-5706660Y+5395370D01*
X-5706660Y+5334410D01*
X-5722535Y+5319170D01*
X-5770160Y+5319170D01*
X-5932910Y+4651530D02*
X-5925394Y+4677406D01*
X-5903740Y+4701378D01*
X-5869286Y+4722968D01*
X-5823372Y+4741700D01*
X-5767338Y+4757099D01*
X-5702524Y+4768688D01*
X-5630268Y+4775990D01*
X-5551910Y+4778530D01*
X-5170910Y+4651530D02*
X-5178530Y+4677406D01*
X-5200438Y+4701378D01*
X-5235204Y+4722968D01*
X-5281400Y+4741700D01*
X-5337598Y+4757099D01*
X-5402368Y+4768688D01*
X-5474281Y+4775990D01*
X-5551910Y+4778530D01*
X-5170910Y+4651530D02*
X-5178530Y+4625654D01*
X-5200438Y+4601682D01*
X-5235204Y+4580092D01*
X-5281400Y+4561360D01*
X-5337598Y+4545961D01*
X-5402368Y+4534372D01*
X-5474281Y+4527070D01*
X-5551910Y+4524530D01*
X-5932910Y+4651530D02*
X-5925394Y+4625654D01*
X-5903740Y+4601682D01*
X-5869286Y+4580092D01*
X-5823372Y+4561360D01*
X-5767338Y+4545961D01*
X-5702524Y+4534372D01*
X-5630268Y+4527070D01*
X-5551910Y+4524530D01*
X-5647160Y+4834410D02*
X-5663035Y+4819170D01*
X-5710660Y+4819170D01*
X-5742410Y+4849650D01*
X-5742410Y+4880130D01*
X-5710660Y+4910610D01*
X-5663035Y+4910610D01*
X-5647160Y+4895370D01*
X-5583660Y+4880130D02*
X-5551910Y+4910610D01*
X-5551910Y+4819170D01*
X-5488410Y+4834410D02*
X-5488410Y+4895370D01*
X-5472535Y+4910610D01*
X-5409035Y+4910610D01*
X-5393160Y+4895370D01*
X-5393160Y+4834410D01*
X-5409035Y+4819170D01*
X-5472535Y+4819170D01*
X-5488410Y+4834410D01*
X-5488410Y+4819170D02*
X-5393160Y+4910610D01*
X-5182910Y+5151530D02*
X-5175394Y+5177406D01*
X-5153740Y+5201378D01*
X-5119286Y+5222968D01*
X-5073372Y+5241700D01*
X-5017338Y+5257099D01*
X-4952524Y+5268688D01*
X-4880268Y+5275990D01*
X-4801910Y+5278530D01*
X-4420910Y+5151530D02*
X-4428530Y+5177406D01*
X-4450438Y+5201378D01*
X-4485204Y+5222968D01*
X-4531400Y+5241700D01*
X-4587598Y+5257099D01*
X-4652368Y+5268688D01*
X-4724281Y+5275990D01*
X-4801910Y+5278530D01*
X-4420910Y+5151530D02*
X-4428530Y+5125654D01*
X-4450438Y+5101682D01*
X-4485204Y+5080092D01*
X-4531400Y+5061360D01*
X-4587598Y+5045961D01*
X-4652368Y+5034372D01*
X-4724281Y+5027070D01*
X-4801910Y+5024530D01*
X-5182910Y+5151530D02*
X-5175394Y+5125654D01*
X-5153740Y+5101682D01*
X-5119286Y+5080092D01*
X-5073372Y+5061360D01*
X-5017338Y+5045961D01*
X-4952524Y+5034372D01*
X-4880268Y+5027070D01*
X-4801910Y+5024530D01*
X-4897160Y+5334410D02*
X-4913035Y+5319170D01*
X-4960660Y+5319170D01*
X-4992410Y+5349650D01*
X-4992410Y+5380130D01*
X-4960660Y+5410610D01*
X-4913035Y+5410610D01*
X-4897160Y+5395370D01*
X-4833660Y+5380130D02*
X-4801910Y+5410610D01*
X-4801910Y+5319170D01*
X-4706660Y+5380130D02*
X-4674910Y+5410610D01*
X-4674910Y+5319170D01*
D73*
X-6530910Y+4151530D02*
X-6531570Y+4167769D01*
X-6536935Y+4200249D01*
X-6548135Y+4232729D01*
X-6566359Y+4265209D01*
X-6594226Y+4297535D01*
X-6626706Y+4322239D01*
X-6659186Y+4338227D01*
X-6691666Y+4347642D01*
X-6724146Y+4351416D01*
X-6730910Y+4351530D01*
X-6930910Y+4151530D02*
X-6930250Y+4167769D01*
X-6924885Y+4200249D01*
X-6913685Y+4232729D01*
X-6895461Y+4265209D01*
X-6867594Y+4297535D01*
X-6835114Y+4322239D01*
X-6802634Y+4338227D01*
X-6770154Y+4347642D01*
X-6737674Y+4351416D01*
X-6730910Y+4351530D01*
X-6930910Y+4151530D02*
X-6930250Y+4135291D01*
X-6924885Y+4102811D01*
X-6913685Y+4070331D01*
X-6895461Y+4037851D01*
X-6867594Y+4005525D01*
X-6835114Y+3980821D01*
X-6802634Y+3964833D01*
X-6770154Y+3955418D01*
X-6737674Y+3951644D01*
X-6730910Y+3951530D01*
X-6530910Y+4151530D02*
X-6531570Y+4135291D01*
X-6536935Y+4102811D01*
X-6548135Y+4070331D01*
X-6566359Y+4037851D01*
X-6594226Y+4005525D01*
X-6626706Y+3980821D01*
X-6659186Y+3964833D01*
X-6691666Y+3955418D01*
X-6724146Y+3951644D01*
X-6730910Y+3951530D01*
D30*
X-6884910Y+4315530D02*
X-6884945Y+4316361D01*
X-6885226Y+4318025D01*
X-6885816Y+4319689D01*
X-6886780Y+4321353D01*
X-6888255Y+4322994D01*
X-6889919Y+4324195D01*
X-6891583Y+4324960D01*
X-6893247Y+4325391D01*
X-6894910Y+4325530D01*
X-6904910Y+4315530D02*
X-6904875Y+4316361D01*
X-6904594Y+4318025D01*
X-6904004Y+4319689D01*
X-6903040Y+4321353D01*
X-6901565Y+4322994D01*
X-6899901Y+4324195D01*
X-6898237Y+4324960D01*
X-6896573Y+4325391D01*
X-6894910Y+4325530D01*
X-6904910Y+4315530D02*
X-6904875Y+4314699D01*
X-6904594Y+4313035D01*
X-6904004Y+4311371D01*
X-6903040Y+4309707D01*
X-6901565Y+4308066D01*
X-6899901Y+4306865D01*
X-6898237Y+4306100D01*
X-6896573Y+4305669D01*
X-6894910Y+4305530D01*
X-6884910Y+4315530D02*
X-6884945Y+4314699D01*
X-6885226Y+4313035D01*
X-6885816Y+4311371D01*
X-6886780Y+4309707D01*
X-6888255Y+4308066D01*
X-6889919Y+4306865D01*
X-6891583Y+4306100D01*
X-6893247Y+4305669D01*
X-6894910Y+4305530D01*
D25*
X-6762660Y+4403250D02*
X-6778535Y+4388010D01*
X-6826160Y+4388010D01*
X-6857910Y+4418490D01*
X-6857910Y+4448970D01*
X-6826160Y+4479450D01*
X-6778535Y+4479450D01*
X-6762660Y+4464210D01*
X-6635660Y+4464210D02*
X-6651535Y+4479450D01*
X-6699160Y+4479450D01*
X-6715035Y+4464210D01*
X-6715035Y+4403250D01*
X-6699160Y+4388010D01*
X-6651535Y+4388010D01*
X-6635660Y+4403250D01*
X-6635660Y+4418490D01*
X-6651535Y+4433730D01*
X-6715035Y+4433730D01*
X-10667910Y+7562530D02*
X-10540910Y+7562530D01*
X-10540910Y+7499030D02*
X-10032910Y+7499030D01*
X-10032910Y+7626030D01*
X-10540910Y+7626030D01*
X-10540910Y+7499030D01*
X-10032910Y+7562530D02*
X-9905910Y+7562530D01*
X-10413910Y+7666670D02*
X-10413910Y+7758110D01*
X-10334535Y+7758110D01*
X-10318660Y+7742870D01*
X-10318660Y+7727630D01*
X-10334535Y+7712390D01*
X-10413910Y+7712390D01*
X-10334535Y+7712390D02*
X-10318660Y+7697150D01*
X-10318660Y+7666670D01*
X-10191660Y+7742870D02*
X-10207535Y+7758110D01*
X-10255160Y+7758110D01*
X-10271035Y+7742870D01*
X-10271035Y+7681910D01*
X-10255160Y+7666670D01*
X-10207535Y+7666670D01*
X-10191660Y+7681910D01*
X-10191660Y+7697150D01*
X-10207535Y+7712390D01*
X-10271035Y+7712390D01*
X-10889000Y+7150000D02*
X-10762000Y+7150000D01*
X-10762000Y+7086500D02*
X-10254000Y+7086500D01*
X-10254000Y+7213500D01*
X-10762000Y+7213500D01*
X-10762000Y+7086500D01*
X-10254000Y+7150000D02*
X-10127000Y+7150000D01*
X-10635000Y+7254140D02*
X-10635000Y+7345580D01*
X-10555625Y+7345580D01*
X-10539750Y+7330340D01*
X-10539750Y+7315100D01*
X-10555625Y+7299860D01*
X-10635000Y+7299860D01*
X-10555625Y+7299860D02*
X-10539750Y+7284620D01*
X-10539750Y+7254140D01*
X-10492125Y+7345580D02*
X-10412750Y+7345580D01*
X-10412750Y+7330340D01*
X-10492125Y+7254140D01*
X-9921910Y+7812530D02*
X-10048910Y+7812530D01*
X-10556910Y+7749030D02*
X-10048910Y+7749030D01*
X-10048910Y+7876030D01*
X-10556910Y+7876030D01*
X-10556910Y+7749030D01*
X-10556910Y+7812530D02*
X-10683910Y+7812530D01*
X-10429910Y+7616950D02*
X-10429910Y+7708390D01*
X-10350535Y+7708390D01*
X-10334660Y+7693150D01*
X-10334660Y+7677910D01*
X-10350535Y+7662670D01*
X-10429910Y+7662670D01*
X-10350535Y+7662670D02*
X-10334660Y+7647430D01*
X-10334660Y+7616950D01*
X-10271160Y+7662670D02*
X-10287035Y+7677910D01*
X-10287035Y+7693150D01*
X-10271160Y+7708390D01*
X-10223535Y+7708390D01*
X-10207660Y+7693150D01*
X-10207660Y+7677910D01*
X-10223535Y+7662670D01*
X-10271160Y+7662670D01*
X-10287035Y+7647430D01*
X-10287035Y+7632190D01*
X-10271160Y+7616950D01*
X-10223535Y+7616950D01*
X-10207660Y+7632190D01*
X-10207660Y+7647430D01*
X-10223535Y+7662670D01*
X-10071910Y+8812530D02*
X-10198910Y+8812530D01*
X-10706910Y+8749030D02*
X-10198910Y+8749030D01*
X-10198910Y+8876030D01*
X-10706910Y+8876030D01*
X-10706910Y+8749030D01*
X-10706910Y+8812530D02*
X-10833910Y+8812530D01*
X-10579910Y+8616950D02*
X-10579910Y+8708390D01*
X-10500535Y+8708390D01*
X-10484660Y+8693150D01*
X-10484660Y+8677910D01*
X-10500535Y+8662670D01*
X-10579910Y+8662670D01*
X-10500535Y+8662670D02*
X-10484660Y+8647430D01*
X-10484660Y+8616950D01*
X-10357660Y+8677910D02*
X-10373535Y+8662670D01*
X-10421160Y+8662670D01*
X-10437035Y+8677910D01*
X-10437035Y+8693150D01*
X-10421160Y+8708390D01*
X-10373535Y+8708390D01*
X-10357660Y+8693150D01*
X-10357660Y+8632190D01*
X-10373535Y+8616950D01*
X-10421160Y+8616950D01*
X-5917910Y+8312530D02*
X-5790910Y+8312530D01*
X-5790910Y+8249030D02*
X-5282910Y+8249030D01*
X-5282910Y+8376030D01*
X-5790910Y+8376030D01*
X-5790910Y+8249030D01*
X-5282910Y+8312530D02*
X-5155910Y+8312530D01*
X-5727410Y+8416670D02*
X-5727410Y+8508110D01*
X-5648035Y+8508110D01*
X-5632160Y+8492870D01*
X-5632160Y+8477630D01*
X-5648035Y+8462390D01*
X-5727410Y+8462390D01*
X-5648035Y+8462390D02*
X-5632160Y+8447150D01*
X-5632160Y+8416670D01*
X-5568660Y+8477630D02*
X-5536910Y+8508110D01*
X-5536910Y+8416670D01*
X-5473410Y+8431910D02*
X-5473410Y+8492870D01*
X-5457535Y+8508110D01*
X-5394035Y+8508110D01*
X-5378160Y+8492870D01*
X-5378160Y+8431910D01*
X-5394035Y+8416670D01*
X-5457535Y+8416670D01*
X-5473410Y+8431910D01*
X-5473410Y+8416670D02*
X-5378160Y+8508110D01*
X-5417910Y+8062530D02*
X-5290910Y+8062530D01*
X-5290910Y+7999030D02*
X-4782910Y+7999030D01*
X-4782910Y+8126030D01*
X-5290910Y+8126030D01*
X-5290910Y+7999030D01*
X-4782910Y+8062530D02*
X-4655910Y+8062530D01*
X-5227410Y+8166670D02*
X-5227410Y+8258110D01*
X-5148035Y+8258110D01*
X-5132160Y+8242870D01*
X-5132160Y+8227630D01*
X-5148035Y+8212390D01*
X-5227410Y+8212390D01*
X-5148035Y+8212390D02*
X-5132160Y+8197150D01*
X-5132160Y+8166670D01*
X-5068660Y+8227630D02*
X-5036910Y+8258110D01*
X-5036910Y+8166670D01*
X-4941660Y+8227630D02*
X-4909910Y+8258110D01*
X-4909910Y+8166670D01*
X-4917910Y+7812530D02*
X-4790910Y+7812530D01*
X-4790910Y+7749030D02*
X-4282910Y+7749030D01*
X-4282910Y+7876030D01*
X-4790910Y+7876030D01*
X-4790910Y+7749030D01*
X-4282910Y+7812530D02*
X-4155910Y+7812530D01*
X-4727410Y+7916670D02*
X-4727410Y+8008110D01*
X-4648035Y+8008110D01*
X-4632160Y+7992870D01*
X-4632160Y+7977630D01*
X-4648035Y+7962390D01*
X-4727410Y+7962390D01*
X-4648035Y+7962390D02*
X-4632160Y+7947150D01*
X-4632160Y+7916670D01*
X-4568660Y+7977630D02*
X-4536910Y+8008110D01*
X-4536910Y+7916670D01*
X-4457535Y+7992870D02*
X-4441660Y+8008110D01*
X-4394035Y+8008110D01*
X-4378160Y+7992870D01*
X-4378160Y+7977630D01*
X-4394035Y+7962390D01*
X-4441660Y+7962390D01*
X-4457535Y+7947150D01*
X-4457535Y+7916670D01*
X-4378160Y+7916670D01*
X-10142459Y+6900000D02*
X-10269459Y+6900000D01*
X-10777459Y+6836500D02*
X-10269459Y+6836500D01*
X-10269459Y+6963500D01*
X-10777459Y+6963500D01*
X-10777459Y+6836500D01*
X-10777459Y+6900000D02*
X-10904459Y+6900000D01*
X-10650459Y+6704420D02*
X-10650459Y+6795860D01*
X-10571084Y+6795860D01*
X-10555209Y+6780620D01*
X-10555209Y+6765380D01*
X-10571084Y+6750140D01*
X-10650459Y+6750140D01*
X-10571084Y+6750140D02*
X-10555209Y+6734900D01*
X-10555209Y+6704420D01*
X-10428209Y+6734900D02*
X-10523459Y+6734900D01*
X-10459959Y+6795860D01*
X-10459959Y+6704420D01*
X-3813910Y+1397530D02*
X-2797910Y+1397530D01*
X-3813910Y+2413530D02*
X-2797910Y+2413530D01*
X-2797910Y+1397530D02*
X-2797910Y+2413530D01*
X-3813910Y+1397530D02*
X-3813910Y+2413530D01*
X-3885030Y+1778530D02*
X-3869790Y+1778530D01*
X-3854550Y+1794405D01*
X-3854550Y+1857905D01*
X-3869790Y+1873780D01*
X-3945990Y+1873780D01*
X-3930750Y+1921405D02*
X-3945990Y+1937280D01*
X-3945990Y+1984905D01*
X-3930750Y+2000780D01*
X-3915510Y+2000780D01*
X-3900270Y+1984905D01*
X-3900270Y+1937280D01*
X-3885030Y+1921405D01*
X-3854550Y+1921405D01*
X-3854550Y+2000780D01*
X-6801910Y+1393530D02*
X-6801910Y+2409530D01*
X-7817910Y+1393530D02*
X-7817910Y+2409530D01*
X-6801910Y+2409530D02*
X-7817910Y+2409530D01*
X-6801910Y+1393530D02*
X-7817910Y+1393530D01*
X-7436910Y+1291930D02*
X-7436910Y+1276690D01*
X-7421035Y+1261450D01*
X-7357535Y+1261450D01*
X-7341660Y+1276690D01*
X-7341660Y+1352890D01*
X-7294035Y+1337650D02*
X-7278160Y+1352890D01*
X-7230535Y+1352890D01*
X-7214660Y+1337650D01*
X-7214660Y+1322410D01*
X-7230535Y+1307170D01*
X-7214660Y+1291930D01*
X-7214660Y+1276690D01*
X-7230535Y+1261450D01*
X-7278160Y+1261450D01*
X-7294035Y+1276690D01*
X-7262285Y+1307170D02*
X-7230535Y+1307170D01*
X-9190910Y+2774530D02*
X-8428910Y+2774530D01*
X-8428910Y+3028530D01*
X-9190910Y+3028530D01*
X-9190910Y+2774530D01*
X-8428910Y+2774530D02*
X-8428910Y+2647530D01*
X-9190910Y+2647530D01*
X-9190910Y+2774530D01*
X-8428910Y+2774530D02*
X-8555910Y+2647530D01*
X-8555910Y+2774530D02*
X-8682910Y+2647530D01*
X-8682910Y+2774530D02*
X-8809910Y+2647530D01*
X-8809910Y+2774530D02*
X-8936910Y+2647530D01*
X-8936910Y+2774530D02*
X-9063910Y+2647530D01*
X-9063910Y+2774530D02*
X-9190910Y+2647530D01*
X-8936910Y+2606890D02*
X-8936910Y+2530690D01*
X-8921035Y+2515450D01*
X-8857535Y+2515450D01*
X-8841660Y+2530690D01*
X-8841660Y+2606890D01*
X-8794035Y+2591650D02*
X-8778160Y+2606890D01*
X-8730535Y+2606890D01*
X-8714660Y+2591650D01*
X-8714660Y+2576410D01*
X-8730535Y+2561170D01*
X-8714660Y+2545930D01*
X-8714660Y+2530690D01*
X-8730535Y+2515450D01*
X-8778160Y+2515450D01*
X-8794035Y+2530690D01*
X-8762285Y+2561170D02*
X-8730535Y+2561170D01*
X-10690910Y+2774530D02*
X-9928910Y+2774530D01*
X-9928910Y+3028530D01*
X-10690910Y+3028530D01*
X-10690910Y+2774530D01*
X-9928910Y+2774530D02*
X-9928910Y+2647530D01*
X-10690910Y+2647530D01*
X-10690910Y+2774530D01*
X-9928910Y+2774530D02*
X-10055910Y+2647530D01*
X-10055910Y+2774530D02*
X-10182910Y+2647530D01*
X-10182910Y+2774530D02*
X-10309910Y+2647530D01*
X-10309910Y+2774530D02*
X-10436910Y+2647530D01*
X-10436910Y+2774530D02*
X-10563910Y+2647530D01*
X-10563910Y+2774530D02*
X-10690910Y+2647530D01*
X-10436910Y+2606890D02*
X-10436910Y+2530690D01*
X-10421035Y+2515450D01*
X-10357535Y+2515450D01*
X-10341660Y+2530690D01*
X-10341660Y+2606890D01*
X-10278160Y+2576410D02*
X-10246410Y+2606890D01*
X-10246410Y+2515450D01*
X-8928910Y+4643530D02*
X-8928910Y+4516530D01*
X-9944910Y+4516530D01*
X-9944910Y+5024530D01*
X-8928910Y+5024530D01*
X-8928910Y+4897530D01*
X-9055910Y+4770530D02*
X-9053474Y+4744654D01*
X-9046425Y+4720682D01*
X-9035148Y+4699092D01*
X-9020032Y+4680360D01*
X-9001464Y+4664961D01*
X-8979829Y+4653372D01*
X-8955516Y+4646070D01*
X-8928910Y+4643530D01*
X-9055910Y+4770530D02*
X-9053474Y+4797136D01*
X-9046425Y+4821449D01*
X-9035148Y+4843084D01*
X-9020032Y+4861652D01*
X-9001464Y+4876768D01*
X-8979829Y+4888045D01*
X-8955516Y+4895094D01*
X-8928910Y+4897530D01*
X-8888270Y+4643530D02*
X-8812070Y+4643530D01*
X-8796830Y+4659405D01*
X-8796830Y+4722905D01*
X-8812070Y+4738780D01*
X-8888270Y+4738780D01*
X-8827310Y+4865780D02*
X-8827310Y+4770530D01*
X-8888270Y+4834030D01*
X-8796830Y+4834030D01*
X-12005910Y+4524530D02*
X-12031786Y+4529610D01*
X-12055758Y+4544215D01*
X-12077348Y+4567392D01*
X-12096080Y+4598190D01*
X-12111479Y+4635655D01*
X-12123068Y+4678835D01*
X-12130370Y+4726778D01*
X-12132910Y+4778530D01*
X-12005910Y+5032530D02*
X-12031786Y+5027450D01*
X-12055758Y+5012845D01*
X-12077348Y+4989668D01*
X-12096080Y+4958870D01*
X-12111479Y+4921405D01*
X-12123068Y+4878225D01*
X-12130370Y+4830282D01*
X-12132910Y+4778530D01*
X-12005910Y+4524530D02*
X-11980034Y+4529610D01*
X-11956062Y+4544215D01*
X-11934472Y+4567392D01*
X-11915740Y+4598190D01*
X-11900341Y+4635655D01*
X-11888752Y+4678835D01*
X-11881450Y+4726778D01*
X-11878910Y+4778530D01*
X-12005910Y+5032530D02*
X-11980034Y+5027450D01*
X-11956062Y+5012845D01*
X-11934472Y+4989668D01*
X-11915740Y+4958870D01*
X-11900341Y+4921405D01*
X-11888752Y+4878225D01*
X-11881450Y+4830282D01*
X-11878910Y+4778530D01*
X-12188790Y+4683280D02*
X-12173550Y+4667405D01*
X-12173550Y+4619780D01*
X-12204030Y+4588030D01*
X-12234510Y+4588030D01*
X-12264990Y+4619780D01*
X-12264990Y+4667405D01*
X-12249750Y+4683280D01*
X-12249750Y+4730905D02*
X-12264990Y+4746780D01*
X-12264990Y+4794405D01*
X-12249750Y+4810280D01*
X-12234510Y+4810280D01*
X-12219270Y+4794405D01*
X-12204030Y+4810280D01*
X-12188790Y+4810280D01*
X-12173550Y+4794405D01*
X-12173550Y+4746780D01*
X-12188790Y+4730905D01*
X-12219270Y+4762655D02*
X-12219270Y+4794405D01*
X-12219270Y+4842030D02*
X-12219270Y+4937280D01*
X-12249750Y+4889655D02*
X-12188790Y+4889655D01*
X-8555910Y+4024530D02*
X-8581786Y+4032046D01*
X-8605758Y+4053700D01*
X-8627348Y+4088154D01*
X-8646080Y+4134068D01*
X-8661479Y+4190101D01*
X-8673068Y+4254916D01*
X-8680370Y+4327172D01*
X-8682910Y+4405530D01*
X-8555910Y+4786530D02*
X-8581786Y+4778910D01*
X-8605758Y+4757002D01*
X-8627348Y+4722236D01*
X-8646080Y+4676040D01*
X-8661479Y+4619842D01*
X-8673068Y+4555072D01*
X-8680370Y+4483159D01*
X-8682910Y+4405530D01*
X-8555910Y+4786530D02*
X-8530034Y+4778910D01*
X-8506062Y+4757002D01*
X-8484472Y+4722236D01*
X-8465740Y+4676040D01*
X-8450341Y+4619842D01*
X-8438752Y+4555072D01*
X-8431450Y+4483159D01*
X-8428910Y+4405530D01*
X-8555910Y+4024530D02*
X-8530034Y+4032046D01*
X-8506062Y+4053700D01*
X-8484472Y+4088154D01*
X-8465740Y+4134068D01*
X-8450341Y+4190101D01*
X-8438752Y+4254916D01*
X-8431450Y+4327172D01*
X-8428910Y+4405530D01*
X-8738790Y+4310280D02*
X-8723550Y+4294405D01*
X-8723550Y+4246780D01*
X-8754030Y+4215030D01*
X-8784510Y+4215030D01*
X-8814990Y+4246780D01*
X-8814990Y+4294405D01*
X-8799750Y+4310280D01*
X-8754030Y+4437280D02*
X-8754030Y+4342030D01*
X-8814990Y+4405530D01*
X-8723550Y+4405530D01*
X-8769270Y+4469030D02*
X-8769270Y+4564280D01*
X-8799750Y+4516655D02*
X-8738790Y+4516655D01*
D73*
X-7855910Y+4401530D02*
X-7856570Y+4417769D01*
X-7861935Y+4450249D01*
X-7873135Y+4482729D01*
X-7891359Y+4515209D01*
X-7919226Y+4547535D01*
X-7951706Y+4572239D01*
X-7984186Y+4588227D01*
X-8016666Y+4597642D01*
X-8049146Y+4601416D01*
X-8055910Y+4601530D01*
X-8255910Y+4401530D02*
X-8255250Y+4417769D01*
X-8249885Y+4450249D01*
X-8238685Y+4482729D01*
X-8220461Y+4515209D01*
X-8192594Y+4547535D01*
X-8160114Y+4572239D01*
X-8127634Y+4588227D01*
X-8095154Y+4597642D01*
X-8062674Y+4601416D01*
X-8055910Y+4601530D01*
X-8255910Y+4401530D02*
X-8255250Y+4385291D01*
X-8249885Y+4352811D01*
X-8238685Y+4320331D01*
X-8220461Y+4287851D01*
X-8192594Y+4255525D01*
X-8160114Y+4230821D01*
X-8127634Y+4214833D01*
X-8095154Y+4205418D01*
X-8062674Y+4201644D01*
X-8055910Y+4201530D01*
X-7855910Y+4401530D02*
X-7856570Y+4385291D01*
X-7861935Y+4352811D01*
X-7873135Y+4320331D01*
X-7891359Y+4287851D01*
X-7919226Y+4255525D01*
X-7951706Y+4230821D01*
X-7984186Y+4214833D01*
X-8016666Y+4205418D01*
X-8049146Y+4201644D01*
X-8055910Y+4201530D01*
D30*
X-7881910Y+4565530D02*
X-7881945Y+4566361D01*
X-7882226Y+4568025D01*
X-7882816Y+4569689D01*
X-7883780Y+4571353D01*
X-7885255Y+4572994D01*
X-7886919Y+4574195D01*
X-7888583Y+4574960D01*
X-7890247Y+4575391D01*
X-7891910Y+4575530D01*
X-7901910Y+4565530D02*
X-7901875Y+4566361D01*
X-7901594Y+4568025D01*
X-7901004Y+4569689D01*
X-7900040Y+4571353D01*
X-7898565Y+4572994D01*
X-7896901Y+4574195D01*
X-7895237Y+4574960D01*
X-7893573Y+4575391D01*
X-7891910Y+4575530D01*
X-7901910Y+4565530D02*
X-7901875Y+4564699D01*
X-7901594Y+4563035D01*
X-7901004Y+4561371D01*
X-7900040Y+4559707D01*
X-7898565Y+4558066D01*
X-7896901Y+4556865D01*
X-7895237Y+4556100D01*
X-7893573Y+4555669D01*
X-7891910Y+4555530D01*
X-7881910Y+4565530D02*
X-7881945Y+4564699D01*
X-7882226Y+4563035D01*
X-7882816Y+4561371D01*
X-7883780Y+4559707D01*
X-7885255Y+4558066D01*
X-7886919Y+4556865D01*
X-7888583Y+4556100D01*
X-7890247Y+4555669D01*
X-7891910Y+4555530D01*
D25*
X-7743230Y+4306280D02*
X-7727990Y+4290405D01*
X-7727990Y+4242780D01*
X-7758470Y+4211030D01*
X-7788950Y+4211030D01*
X-7819430Y+4242780D01*
X-7819430Y+4290405D01*
X-7804190Y+4306280D01*
X-7819430Y+4433280D02*
X-7819430Y+4353905D01*
X-7788950Y+4353905D01*
X-7788950Y+4417405D01*
X-7773710Y+4433280D01*
X-7743230Y+4433280D01*
X-7727990Y+4417405D01*
X-7727990Y+4369780D01*
X-7743230Y+4353905D01*
X-7773710Y+4465030D02*
X-7773710Y+4560280D01*
X-7804190Y+4512655D02*
X-7743230Y+4512655D01*
X-9928910Y+3901530D02*
X-9801910Y+3901530D01*
X-9801910Y+3838030D02*
X-9293910Y+3838030D01*
X-9293910Y+3965030D01*
X-9801910Y+3965030D01*
X-9801910Y+3838030D01*
X-9293910Y+3901530D02*
X-9166910Y+3901530D01*
X-9738410Y+4005670D02*
X-9738410Y+4097110D01*
X-9659035Y+4097110D01*
X-9643160Y+4081870D01*
X-9643160Y+4066630D01*
X-9659035Y+4051390D01*
X-9738410Y+4051390D01*
X-9659035Y+4051390D02*
X-9643160Y+4036150D01*
X-9643160Y+4005670D01*
X-9579660Y+4066630D02*
X-9547910Y+4097110D01*
X-9547910Y+4005670D01*
X-9484410Y+4051390D02*
X-9389160Y+4051390D01*
X-9436785Y+4081870D02*
X-9436785Y+4020910D01*
X-10432910Y+4651530D02*
X-10559910Y+4651530D01*
X-11067910Y+4588030D02*
X-10559910Y+4588030D01*
X-10559910Y+4715030D01*
X-11067910Y+4715030D01*
X-11067910Y+4588030D01*
X-11067910Y+4651530D02*
X-11194910Y+4651530D01*
X-11004410Y+4705950D02*
X-11004410Y+4797390D01*
X-10925035Y+4797390D01*
X-10909160Y+4782150D01*
X-10909160Y+4766910D01*
X-10925035Y+4751670D01*
X-11004410Y+4751670D01*
X-10925035Y+4751670D02*
X-10909160Y+4736430D01*
X-10909160Y+4705950D01*
X-10861535Y+4782150D02*
X-10845660Y+4797390D01*
X-10798035Y+4797390D01*
X-10782160Y+4782150D01*
X-10782160Y+4766910D01*
X-10798035Y+4751670D01*
X-10845660Y+4751670D01*
X-10861535Y+4736430D01*
X-10861535Y+4705950D01*
X-10782160Y+4705950D01*
X-10750410Y+4751670D02*
X-10655160Y+4751670D01*
X-10702785Y+4782150D02*
X-10702785Y+4721190D01*
X-6182910Y+3651530D02*
X-6309910Y+3651530D01*
X-6817910Y+3588030D02*
X-6309910Y+3588030D01*
X-6309910Y+3715030D01*
X-6817910Y+3715030D01*
X-6817910Y+3588030D01*
X-6817910Y+3651530D02*
X-6944910Y+3651530D01*
X-6754410Y+3455950D02*
X-6754410Y+3547390D01*
X-6675035Y+3547390D01*
X-6659160Y+3532150D01*
X-6659160Y+3516910D01*
X-6675035Y+3501670D01*
X-6754410Y+3501670D01*
X-6675035Y+3501670D02*
X-6659160Y+3486430D01*
X-6659160Y+3455950D01*
X-6611535Y+3532150D02*
X-6595660Y+3547390D01*
X-6548035Y+3547390D01*
X-6532160Y+3532150D01*
X-6532160Y+3516910D01*
X-6548035Y+3501670D01*
X-6532160Y+3486430D01*
X-6532160Y+3471190D01*
X-6548035Y+3455950D01*
X-6595660Y+3455950D01*
X-6611535Y+3471190D01*
X-6579785Y+3501670D02*
X-6548035Y+3501670D01*
X-6500410Y+3501670D02*
X-6405160Y+3501670D01*
X-6452785Y+3532150D02*
X-6452785Y+3471190D01*
X-12006990Y+2519450D02*
X-11488830Y+2519450D01*
X-11488830Y+2786150D01*
X-12006990Y+2786150D01*
X-12006990Y+2519450D01*
X-11925710Y+2783610D02*
X-11925710Y+2521990D01*
X-12078110Y+2651530D02*
X-12006990Y+2651530D01*
X-11488830Y+2651530D02*
X-11417710Y+2651530D01*
X-11874910Y+2826790D02*
X-11874910Y+2918230D01*
X-11811410Y+2918230D01*
X-11779660Y+2887750D01*
X-11779660Y+2857270D01*
X-11811410Y+2826790D01*
X-11874910Y+2826790D01*
X-11732035Y+2902990D02*
X-11716160Y+2918230D01*
X-11668535Y+2918230D01*
X-11652660Y+2902990D01*
X-11652660Y+2887750D01*
X-11668535Y+2872510D01*
X-11652660Y+2857270D01*
X-11652660Y+2842030D01*
X-11668535Y+2826790D01*
X-11716160Y+2826790D01*
X-11732035Y+2842030D01*
X-11700285Y+2872510D02*
X-11668535Y+2872510D01*
X-12006990Y+3019450D02*
X-11488830Y+3019450D01*
X-11488830Y+3286150D01*
X-12006990Y+3286150D01*
X-12006990Y+3019450D01*
X-11925710Y+3283610D02*
X-11925710Y+3021990D01*
X-12078110Y+3151530D02*
X-12006990Y+3151530D01*
X-11488830Y+3151530D02*
X-11417710Y+3151530D01*
X-11874910Y+3326790D02*
X-11874910Y+3418230D01*
X-11811410Y+3418230D01*
X-11779660Y+3387750D01*
X-11779660Y+3357270D01*
X-11811410Y+3326790D01*
X-11874910Y+3326790D01*
X-11652660Y+3357270D02*
X-11747910Y+3357270D01*
X-11684410Y+3418230D01*
X-11684410Y+3326790D01*
X-12017080Y+3565380D02*
X-11498920Y+3565380D01*
X-11498920Y+3832080D01*
X-12017080Y+3832080D01*
X-12017080Y+3565380D01*
X-11580200Y+3567920D02*
X-11580200Y+3829540D01*
X-11427800Y+3700000D02*
X-11498920Y+3700000D01*
X-12017080Y+3700000D02*
X-12088200Y+3700000D01*
X-11885000Y+3433300D02*
X-11885000Y+3524740D01*
X-11821500Y+3524740D01*
X-11789750Y+3494260D01*
X-11789750Y+3463780D01*
X-11821500Y+3433300D01*
X-11885000Y+3433300D01*
X-11662750Y+3524740D02*
X-11742125Y+3524740D01*
X-11742125Y+3494260D01*
X-11678625Y+3494260D01*
X-11662750Y+3479020D01*
X-11662750Y+3448540D01*
X-11678625Y+3433300D01*
X-11726250Y+3433300D01*
X-11742125Y+3448540D01*
X-12022990Y+4016910D02*
X-11504830Y+4016910D01*
X-11504830Y+4283610D01*
X-12022990Y+4283610D01*
X-12022990Y+4016910D01*
X-11586110Y+4019450D02*
X-11586110Y+4281070D01*
X-11433710Y+4151530D02*
X-11504830Y+4151530D01*
X-12022990Y+4151530D02*
X-12094110Y+4151530D01*
X-11890910Y+3884830D02*
X-11890910Y+3976270D01*
X-11827410Y+3976270D01*
X-11795660Y+3945790D01*
X-11795660Y+3915310D01*
X-11827410Y+3884830D01*
X-11890910Y+3884830D01*
X-11668660Y+3961030D02*
X-11684535Y+3976270D01*
X-11732160Y+3976270D01*
X-11748035Y+3961030D01*
X-11748035Y+3900070D01*
X-11732160Y+3884830D01*
X-11684535Y+3884830D01*
X-11668660Y+3900070D01*
X-11668660Y+3915310D01*
X-11684535Y+3930550D01*
X-11748035Y+3930550D01*
X-8424910Y+1901530D02*
X-8425737Y+1922013D01*
X-8432455Y+1962980D01*
X-8446473Y+2003947D01*
X-8469251Y+2044914D01*
X-8504051Y+2085759D01*
X-8545018Y+2117375D01*
X-8585985Y+2137922D01*
X-8626952Y+2150159D01*
X-8667919Y+2155292D01*
X-8678910Y+2155530D01*
X-8932910Y+1901530D02*
X-8932083Y+1922013D01*
X-8925365Y+1962980D01*
X-8911347Y+2003947D01*
X-8888569Y+2044914D01*
X-8853769Y+2085759D01*
X-8812802Y+2117375D01*
X-8771835Y+2137922D01*
X-8730868Y+2150159D01*
X-8689901Y+2155292D01*
X-8678910Y+2155530D01*
X-8932910Y+1901530D02*
X-8932083Y+1881047D01*
X-8925365Y+1840080D01*
X-8911347Y+1799113D01*
X-8888569Y+1758146D01*
X-8853769Y+1717301D01*
X-8812802Y+1685685D01*
X-8771835Y+1665138D01*
X-8730868Y+1652901D01*
X-8689901Y+1647768D01*
X-8678910Y+1647530D01*
X-8424910Y+1901530D02*
X-8425737Y+1881047D01*
X-8432455Y+1840080D01*
X-8446473Y+1799113D01*
X-8469251Y+1758146D01*
X-8504051Y+1717301D01*
X-8545018Y+1685685D01*
X-8585985Y+1665138D01*
X-8626952Y+1652901D01*
X-8667919Y+1647768D01*
X-8678910Y+1647530D01*
X-8996410Y+2155530D02*
X-8869410Y+2155530D01*
X-8932910Y+2219030D02*
X-8932910Y+2092030D01*
X-8837660Y+2259670D02*
X-8837660Y+2351110D01*
X-8774160Y+2351110D01*
X-8742410Y+2320630D01*
X-8742410Y+2290150D01*
X-8774160Y+2259670D01*
X-8837660Y+2259670D01*
X-8678910Y+2305390D02*
X-8694785Y+2320630D01*
X-8694785Y+2335870D01*
X-8678910Y+2351110D01*
X-8631285Y+2351110D01*
X-8615410Y+2335870D01*
X-8615410Y+2320630D01*
X-8631285Y+2305390D01*
X-8678910Y+2305390D01*
X-8694785Y+2290150D01*
X-8694785Y+2274910D01*
X-8678910Y+2259670D01*
X-8631285Y+2259670D01*
X-8615410Y+2274910D01*
X-8615410Y+2290150D01*
X-8631285Y+2305390D01*
X-9555910Y+2528530D02*
X-9555910Y+2655530D01*
X-9619410Y+2655530D02*
X-9492410Y+2655530D01*
X-9492410Y+3163530D01*
X-9619410Y+3163530D01*
X-9619410Y+2655530D01*
X-9555910Y+3163530D02*
X-9555910Y+3290530D01*
X-9660050Y+2782530D02*
X-9751490Y+2782530D01*
X-9751490Y+2861905D01*
X-9736250Y+2877780D01*
X-9721010Y+2877780D01*
X-9705770Y+2861905D01*
X-9705770Y+2782530D01*
X-9705770Y+2861905D02*
X-9690530Y+2877780D01*
X-9660050Y+2877780D01*
X-9751490Y+3004780D02*
X-9751490Y+2925405D01*
X-9721010Y+2925405D01*
X-9721010Y+2988905D01*
X-9705770Y+3004780D01*
X-9675290Y+3004780D01*
X-9660050Y+2988905D01*
X-9660050Y+2941280D01*
X-9675290Y+2925405D01*
X-10690530Y+3650450D02*
X-10423830Y+3650450D01*
X-10423830Y+4168610D01*
X-10690530Y+4168610D01*
X-10690530Y+3650450D01*
X-10687990Y+3731730D02*
X-10426370Y+3731730D01*
X-10555910Y+3579330D02*
X-10555910Y+3650450D01*
X-10555910Y+4168610D02*
X-10555910Y+4239730D01*
X-10731170Y+3782530D02*
X-10822610Y+3782530D01*
X-10822610Y+3846030D01*
X-10792130Y+3877780D01*
X-10761650Y+3877780D01*
X-10731170Y+3846030D01*
X-10731170Y+3782530D01*
X-10792130Y+3941280D02*
X-10822610Y+3973030D01*
X-10731170Y+3973030D01*
X-8678910Y+3651530D02*
X-8551910Y+3651530D01*
X-8551910Y+3588030D02*
X-8043910Y+3588030D01*
X-8043910Y+3715030D01*
X-8551910Y+3715030D01*
X-8551910Y+3588030D01*
X-8043910Y+3651530D02*
X-7916910Y+3651530D01*
X-8488410Y+3847110D02*
X-8488410Y+3755670D01*
X-8393160Y+3755670D01*
X-8329660Y+3816630D02*
X-8297910Y+3847110D01*
X-8297910Y+3755670D01*
X-8234410Y+3801390D02*
X-8139160Y+3801390D01*
X-8186785Y+3831870D02*
X-8186785Y+3770910D01*
X-13155910Y+1151530D02*
X-2305910Y+1151530D01*
X-2305910Y+9701530D01*
X-13155910Y+9701530D01*
X-13155910Y+1151530D01*
D73*
X-11550000Y+6050000D02*
X-11551531Y+6089100D01*
X-11563954Y+6167301D01*
X-11589806Y+6245502D01*
X-11631566Y+6323703D01*
X-11694805Y+6401904D01*
X-11772998Y+6466257D01*
X-11851199Y+6508779D01*
X-11929400Y+6535238D01*
X-12007601Y+6548199D01*
X-12050000Y+6550000D01*
X-12550000Y+6050000D02*
X-12548469Y+6089100D01*
X-12536046Y+6167301D01*
X-12510194Y+6245502D01*
X-12468434Y+6323703D01*
X-12405195Y+6401904D01*
X-12327002Y+6466257D01*
X-12248801Y+6508779D01*
X-12170600Y+6535238D01*
X-12092399Y+6548199D01*
X-12050000Y+6550000D01*
X-12550000Y+6050000D02*
X-12548469Y+6010900D01*
X-12536046Y+5932699D01*
X-12510194Y+5854498D01*
X-12468434Y+5776297D01*
X-12405195Y+5698096D01*
X-12327002Y+5633743D01*
X-12248801Y+5591221D01*
X-12170600Y+5564762D01*
X-12092399Y+5551801D01*
X-12050000Y+5550000D01*
X-11550000Y+6050000D02*
X-11551531Y+6010900D01*
X-11563954Y+5932699D01*
X-11589806Y+5854498D01*
X-11631566Y+5776297D01*
X-11694805Y+5698096D01*
X-11772998Y+5633743D01*
X-11851199Y+5591221D01*
X-11929400Y+5564762D01*
X-12007601Y+5551801D01*
X-12050000Y+5550000D01*
D30*
X-12416000Y+5674000D02*
X-12416035Y+5674831D01*
X-12416316Y+5676495D01*
X-12416906Y+5678159D01*
X-12417870Y+5679823D01*
X-12419345Y+5681464D01*
X-12421009Y+5682665D01*
X-12422673Y+5683430D01*
X-12424337Y+5683861D01*
X-12426000Y+5684000D01*
X-12436000Y+5674000D02*
X-12435965Y+5674831D01*
X-12435684Y+5676495D01*
X-12435094Y+5678159D01*
X-12434130Y+5679823D01*
X-12432655Y+5681464D01*
X-12430991Y+5682665D01*
X-12429327Y+5683430D01*
X-12427663Y+5683861D01*
X-12426000Y+5684000D01*
X-12436000Y+5674000D02*
X-12435965Y+5673169D01*
X-12435684Y+5671505D01*
X-12435094Y+5669841D01*
X-12434130Y+5668177D01*
X-12432655Y+5666536D01*
X-12430991Y+5665335D01*
X-12429327Y+5664570D01*
X-12427663Y+5664139D01*
X-12426000Y+5664000D01*
X-12416000Y+5674000D02*
X-12416035Y+5673169D01*
X-12416316Y+5671505D01*
X-12416906Y+5669841D01*
X-12417870Y+5668177D01*
X-12419345Y+5666536D01*
X-12421009Y+5665335D01*
X-12422673Y+5664570D01*
X-12424337Y+5664139D01*
X-12426000Y+5664000D01*
D25*
X-12601720Y+5954750D02*
X-12586480Y+5938875D01*
X-12586480Y+5891250D01*
X-12616960Y+5859500D01*
X-12647440Y+5859500D01*
X-12677920Y+5891250D01*
X-12677920Y+5938875D01*
X-12662680Y+5954750D01*
X-12647440Y+6018250D02*
X-12677920Y+6050000D01*
X-12586480Y+6050000D01*
X-12632200Y+6113500D02*
X-12632200Y+6208750D01*
X-12662680Y+6161125D02*
X-12601720Y+6161125D01*
D73*
X-4800000Y+3150000D02*
X-4801531Y+3189100D01*
X-4813954Y+3267301D01*
X-4839806Y+3345502D01*
X-4881566Y+3423703D01*
X-4944805Y+3501904D01*
X-5022998Y+3566257D01*
X-5101199Y+3608779D01*
X-5179400Y+3635238D01*
X-5257601Y+3648199D01*
X-5300000Y+3650000D01*
X-5800000Y+3150000D02*
X-5798469Y+3189100D01*
X-5786046Y+3267301D01*
X-5760194Y+3345502D01*
X-5718434Y+3423703D01*
X-5655195Y+3501904D01*
X-5577002Y+3566257D01*
X-5498801Y+3608779D01*
X-5420600Y+3635238D01*
X-5342399Y+3648199D01*
X-5300000Y+3650000D01*
X-5800000Y+3150000D02*
X-5798469Y+3110900D01*
X-5786046Y+3032699D01*
X-5760194Y+2954498D01*
X-5718434Y+2876297D01*
X-5655195Y+2798096D01*
X-5577002Y+2733743D01*
X-5498801Y+2691221D01*
X-5420600Y+2664762D01*
X-5342399Y+2651801D01*
X-5300000Y+2650000D01*
X-4800000Y+3150000D02*
X-4801531Y+3110900D01*
X-4813954Y+3032699D01*
X-4839806Y+2954498D01*
X-4881566Y+2876297D01*
X-4944805Y+2798096D01*
X-5022998Y+2733743D01*
X-5101199Y+2691221D01*
X-5179400Y+2664762D01*
X-5257601Y+2651801D01*
X-5300000Y+2650000D01*
D30*
X-5666000Y+3526000D02*
X-5666035Y+3526831D01*
X-5666316Y+3528495D01*
X-5666906Y+3530159D01*
X-5667870Y+3531823D01*
X-5669345Y+3533464D01*
X-5671009Y+3534665D01*
X-5672673Y+3535430D01*
X-5674337Y+3535861D01*
X-5676000Y+3536000D01*
X-5686000Y+3526000D02*
X-5685965Y+3526831D01*
X-5685684Y+3528495D01*
X-5685094Y+3530159D01*
X-5684130Y+3531823D01*
X-5682655Y+3533464D01*
X-5680991Y+3534665D01*
X-5679327Y+3535430D01*
X-5677663Y+3535861D01*
X-5676000Y+3536000D01*
X-5686000Y+3526000D02*
X-5685965Y+3525169D01*
X-5685684Y+3523505D01*
X-5685094Y+3521841D01*
X-5684130Y+3520177D01*
X-5682655Y+3518536D01*
X-5680991Y+3517335D01*
X-5679327Y+3516570D01*
X-5677663Y+3516139D01*
X-5676000Y+3516000D01*
X-5666000Y+3526000D02*
X-5666035Y+3525169D01*
X-5666316Y+3523505D01*
X-5666906Y+3521841D01*
X-5667870Y+3520177D01*
X-5669345Y+3518536D01*
X-5671009Y+3517335D01*
X-5672673Y+3516570D01*
X-5674337Y+3516139D01*
X-5676000Y+3516000D01*
D25*
X-5395250Y+3701720D02*
X-5411125Y+3686480D01*
X-5458750Y+3686480D01*
X-5490500Y+3716960D01*
X-5490500Y+3747440D01*
X-5458750Y+3777920D01*
X-5411125Y+3777920D01*
X-5395250Y+3762680D01*
X-5347625Y+3762680D02*
X-5331750Y+3777920D01*
X-5284125Y+3777920D01*
X-5268250Y+3762680D01*
X-5268250Y+3747440D01*
X-5284125Y+3732200D01*
X-5331750Y+3732200D01*
X-5347625Y+3716960D01*
X-5347625Y+3686480D01*
X-5268250Y+3686480D01*
X-5236500Y+3732200D02*
X-5141250Y+3732200D01*
X-5188875Y+3762680D02*
X-5188875Y+3701720D01*
M02*
