G04 PROTEUS RS274X GERBER FILE*
%FSLAX45Y45*%
%MOMM*%
G01*
%ADD10C,0.762000*%
%ADD11C,1.524000*%
%ADD12C,1.270000*%
%ADD26C,1.016000*%
%ADD27C,1.778000*%
%ADD13C,0.762000*%
%ADD14C,1.524000*%
%ADD28C,0.381000*%
%ADD15C,0.000000*%
%ADD16R,1.905000X1.905000*%
%ADD17C,2.032000*%
%ADD18C,3.048000*%
%AMDIL009*
4,1,8,
-1.270000,0.457200,-0.965200,0.762000,0.965200,0.762000,1.270000,0.457200,1.270000,-0.457200,
0.965200,-0.762000,-0.965200,-0.762000,-1.270000,-0.457200,-1.270000,0.457200,
0*%
%ADD19DIL009*%
%ADD70C,1.778000*%
%ADD71R,1.050000X1.050000*%
%ADD20C,0.254000*%
%ADD21C,1.050000*%
%ADD22R,2.032000X2.032000*%
%ADD23C,2.286000*%
%ADD24R,2.286000X2.286000*%
%ADD25C,0.203200*%
G36*
X-7459653Y+9475233D02*
X-7459653Y+9371279D01*
X-10046775Y+9371279D01*
X-10246216Y+9570720D01*
X-7364166Y+9570720D01*
X-7459653Y+9475233D01*
G37*
G36*
X-7459653Y+9475233D02*
X-7459653Y+9371279D01*
X-10046775Y+9371279D01*
X-10246216Y+9570720D01*
X-7364166Y+9570720D01*
X-7459653Y+9475233D01*
G37*
G36*
X-12157162Y+9024782D02*
X-12203659Y+8978285D01*
X-12203659Y+7532046D01*
X-12218462Y+7546849D01*
X-12381538Y+7546849D01*
X-12405910Y+7522477D01*
X-12405910Y+9570720D01*
X-11611224Y+9570720D01*
X-12157162Y+9024782D01*
G37*
G36*
X-12157162Y+9024782D02*
X-12203659Y+8978285D01*
X-12203659Y+7532046D01*
X-12218462Y+7546849D01*
X-12381538Y+7546849D01*
X-12405910Y+7522477D01*
X-12405910Y+9570720D01*
X-11611224Y+9570720D01*
X-12157162Y+9024782D01*
G37*
G36*
X-12328386Y+6300000D02*
X-12405910Y+6222476D01*
X-12405910Y+6377524D01*
X-12328386Y+6300000D01*
G37*
G36*
X-12328386Y+6300000D02*
X-12405910Y+6222476D01*
X-12405910Y+6377524D01*
X-12328386Y+6300000D01*
G37*
G36*
X-12357296Y+4928530D02*
X-12405910Y+4879916D01*
X-12405910Y+4977144D01*
X-12357296Y+4928530D01*
G37*
G36*
X-12357296Y+4928530D02*
X-12405910Y+4879916D01*
X-12405910Y+4977144D01*
X-12357296Y+4928530D01*
G37*
G36*
X-10494059Y+2079252D02*
X-9697147Y+1282340D01*
X-12266210Y+1282340D01*
X-12266210Y+1370481D01*
X-12142809Y+1370481D01*
X-11982861Y+1530429D01*
X-11982861Y+1628267D01*
X-11894548Y+1539954D01*
X-11731472Y+1539954D01*
X-11680175Y+1591251D01*
X-10984245Y+1591251D01*
X-10494059Y+2081437D01*
X-10494059Y+2079252D01*
G37*
G36*
X-10494059Y+2079252D02*
X-9697147Y+1282340D01*
X-12266210Y+1282340D01*
X-12266210Y+1370481D01*
X-12142809Y+1370481D01*
X-11982861Y+1530429D01*
X-11982861Y+1628267D01*
X-11894548Y+1539954D01*
X-11731472Y+1539954D01*
X-11680175Y+1591251D01*
X-10984245Y+1591251D01*
X-10494059Y+2081437D01*
X-10494059Y+2079252D01*
G37*
G36*
X-2436720Y+1282340D02*
X-6114674Y+1282340D01*
X-5815559Y+1581455D01*
X-5815559Y+1458681D01*
X-5320261Y+1458681D01*
X-5320261Y+2233381D01*
X-4948187Y+2233381D01*
X-4182187Y+1467381D01*
X-3507911Y+1467381D01*
X-3419011Y+1378481D01*
X-3192809Y+1378481D01*
X-3032861Y+1538429D01*
X-3032861Y+1764631D01*
X-3173760Y+1905530D01*
X-3116609Y+1962681D01*
X-2868463Y+1962681D01*
X-2753151Y+2077993D01*
X-2753151Y+5797186D01*
X-2795938Y+5881305D01*
X-2849110Y+5922504D01*
X-2698061Y+6073553D01*
X-2698061Y+8994067D01*
X-3085361Y+9381367D01*
X-3085361Y+9399328D01*
X-3208112Y+9522079D01*
X-3381708Y+9522079D01*
X-3394408Y+9509379D01*
X-4195412Y+9509379D01*
X-4208112Y+9522079D01*
X-4381708Y+9522079D01*
X-4394408Y+9509379D01*
X-5195412Y+9509379D01*
X-5208112Y+9522079D01*
X-5381708Y+9522079D01*
X-5394408Y+9509379D01*
X-6195412Y+9509379D01*
X-6208112Y+9522079D01*
X-6279955Y+9522079D01*
X-6316625Y+9558749D01*
X-7149471Y+9558749D01*
X-7161442Y+9570720D01*
X-2436720Y+9570720D01*
X-2436720Y+1282340D01*
G37*
G36*
X-2436720Y+1282340D02*
X-6114674Y+1282340D01*
X-5815559Y+1581455D01*
X-5815559Y+1458681D01*
X-5320261Y+1458681D01*
X-5320261Y+2233381D01*
X-4948187Y+2233381D01*
X-4182187Y+1467381D01*
X-3507911Y+1467381D01*
X-3419011Y+1378481D01*
X-3192809Y+1378481D01*
X-3032861Y+1538429D01*
X-3032861Y+1764631D01*
X-3173760Y+1905530D01*
X-3116609Y+1962681D01*
X-2868463Y+1962681D01*
X-2753151Y+2077993D01*
X-2753151Y+5797186D01*
X-2795938Y+5881305D01*
X-2849110Y+5922504D01*
X-2698061Y+6073553D01*
X-2698061Y+8994067D01*
X-3085361Y+9381367D01*
X-3085361Y+9399328D01*
X-3208112Y+9522079D01*
X-3381708Y+9522079D01*
X-3394408Y+9509379D01*
X-4195412Y+9509379D01*
X-4208112Y+9522079D01*
X-4381708Y+9522079D01*
X-4394408Y+9509379D01*
X-5195412Y+9509379D01*
X-5208112Y+9522079D01*
X-5381708Y+9522079D01*
X-5394408Y+9509379D01*
X-6195412Y+9509379D01*
X-6208112Y+9522079D01*
X-6279955Y+9522079D01*
X-6316625Y+9558749D01*
X-7149471Y+9558749D01*
X-7161442Y+9570720D01*
X-2436720Y+9570720D01*
X-2436720Y+1282340D01*
G37*
G36*
X-10224782Y+9100278D02*
X-10203224Y+9078720D01*
X-10453659Y+8828286D01*
X-10453659Y+8479666D01*
X-10483372Y+8509379D01*
X-10619675Y+8509379D01*
X-10498061Y+8630993D01*
X-10498061Y+9044067D01*
X-10745245Y+9291251D01*
X-10415755Y+9291251D01*
X-10224782Y+9100278D01*
G37*
G36*
X-10224782Y+9100278D02*
X-10203224Y+9078720D01*
X-10453659Y+8828286D01*
X-10453659Y+8479666D01*
X-10483372Y+8509379D01*
X-10619675Y+8509379D01*
X-10498061Y+8630993D01*
X-10498061Y+9044067D01*
X-10745245Y+9291251D01*
X-10415755Y+9291251D01*
X-10224782Y+9100278D01*
G37*
G36*
X-11212861Y+8472965D02*
X-11212861Y+8481993D01*
X-11079173Y+8615681D01*
X-11070145Y+8615681D01*
X-11212861Y+8472965D01*
G37*
G36*
X-11212861Y+8472965D02*
X-11212861Y+8481993D01*
X-11079173Y+8615681D01*
X-11070145Y+8615681D01*
X-11212861Y+8472965D01*
G37*
G36*
X-10031708Y+8602981D02*
X-9858112Y+8602981D01*
X-9807312Y+8653781D01*
X-8082665Y+8653781D01*
X-7895356Y+8466472D01*
X-7897910Y+8463917D01*
X-7943372Y+8509379D01*
X-8106448Y+8509379D01*
X-8151910Y+8463917D01*
X-8197372Y+8509379D01*
X-8360448Y+8509379D01*
X-8405910Y+8463917D01*
X-8451372Y+8509379D01*
X-8614448Y+8509379D01*
X-8659910Y+8463917D01*
X-8705372Y+8509379D01*
X-8868448Y+8509379D01*
X-8913910Y+8463917D01*
X-8959372Y+8509379D01*
X-9122448Y+8509379D01*
X-9167910Y+8463917D01*
X-9213372Y+8509379D01*
X-9376448Y+8509379D01*
X-9421910Y+8463917D01*
X-9467372Y+8509379D01*
X-9630448Y+8509379D01*
X-9675910Y+8463917D01*
X-9721372Y+8509379D01*
X-9884448Y+8509379D01*
X-9929910Y+8463917D01*
X-9975372Y+8509379D01*
X-10136161Y+8509379D01*
X-10136161Y+8696776D01*
X-10130832Y+8702105D01*
X-10031708Y+8602981D01*
G37*
G36*
X-10031708Y+8602981D02*
X-9858112Y+8602981D01*
X-9807312Y+8653781D01*
X-8082665Y+8653781D01*
X-7895356Y+8466472D01*
X-7897910Y+8463917D01*
X-7943372Y+8509379D01*
X-8106448Y+8509379D01*
X-8151910Y+8463917D01*
X-8197372Y+8509379D01*
X-8360448Y+8509379D01*
X-8405910Y+8463917D01*
X-8451372Y+8509379D01*
X-8614448Y+8509379D01*
X-8659910Y+8463917D01*
X-8705372Y+8509379D01*
X-8868448Y+8509379D01*
X-8913910Y+8463917D01*
X-8959372Y+8509379D01*
X-9122448Y+8509379D01*
X-9167910Y+8463917D01*
X-9213372Y+8509379D01*
X-9376448Y+8509379D01*
X-9421910Y+8463917D01*
X-9467372Y+8509379D01*
X-9630448Y+8509379D01*
X-9675910Y+8463917D01*
X-9721372Y+8509379D01*
X-9884448Y+8509379D01*
X-9929910Y+8463917D01*
X-9975372Y+8509379D01*
X-10136161Y+8509379D01*
X-10136161Y+8696776D01*
X-10130832Y+8702105D01*
X-10031708Y+8602981D01*
G37*
G36*
X-5393229Y+8221879D02*
X-5424780Y+8238747D01*
X-5458112Y+8272079D01*
X-5490715Y+8272079D01*
X-5710124Y+8373988D01*
X-5745277Y+8392781D01*
X-5564131Y+8392781D01*
X-5393229Y+8221879D01*
G37*
G36*
X-5393229Y+8221879D02*
X-5424780Y+8238747D01*
X-5458112Y+8272079D01*
X-5490715Y+8272079D01*
X-5710124Y+8373988D01*
X-5745277Y+8392781D01*
X-5564131Y+8392781D01*
X-5393229Y+8221879D01*
G37*
G36*
X-7372515Y+8143748D02*
X-7377624Y+8143748D01*
X-7392464Y+8158588D01*
X-7389910Y+8161143D01*
X-7372515Y+8143748D01*
G37*
G36*
X-7372515Y+8143748D02*
X-7377624Y+8143748D01*
X-7392464Y+8158588D01*
X-7389910Y+8161143D01*
X-7372515Y+8143748D01*
G37*
G36*
X-9122448Y+8115681D02*
X-8991759Y+8115681D01*
X-8991759Y+8071279D01*
X-9230865Y+8071279D01*
X-9314793Y+7987351D01*
X-9314793Y+8048917D01*
X-9424464Y+8158588D01*
X-9421910Y+8161143D01*
X-9376448Y+8115681D01*
X-9213372Y+8115681D01*
X-9167910Y+8161143D01*
X-9122448Y+8115681D01*
G37*
G36*
X-9122448Y+8115681D02*
X-8991759Y+8115681D01*
X-8991759Y+8071279D01*
X-9230865Y+8071279D01*
X-9314793Y+7987351D01*
X-9314793Y+8048917D01*
X-9424464Y+8158588D01*
X-9421910Y+8161143D01*
X-9376448Y+8115681D01*
X-9213372Y+8115681D01*
X-9167910Y+8161143D01*
X-9122448Y+8115681D01*
G37*
G36*
X-10753659Y+8046776D02*
X-10753659Y+8033665D01*
X-10835675Y+8115681D01*
X-10822564Y+8115681D01*
X-10753659Y+8046776D01*
G37*
G36*
X-10753659Y+8046776D02*
X-10753659Y+8033665D01*
X-10835675Y+8115681D01*
X-10822564Y+8115681D01*
X-10753659Y+8046776D01*
G37*
G36*
X-6732531Y+8392781D02*
X-6385605Y+8392781D01*
X-6701759Y+8076627D01*
X-6701759Y+7975883D01*
X-7066061Y+8340185D01*
X-7066061Y+8394068D01*
X-7104161Y+8432168D01*
X-7104161Y+8514817D01*
X-7070730Y+8548248D01*
X-7070730Y+8711324D01*
X-7186041Y+8826635D01*
X-7349117Y+8826635D01*
X-7464428Y+8711324D01*
X-7464428Y+8548248D01*
X-7421659Y+8505479D01*
X-7421659Y+8495666D01*
X-7435372Y+8509379D01*
X-7489255Y+8509379D01*
X-7833657Y+8853781D01*
X-7193531Y+8853781D01*
X-6732531Y+8392781D01*
G37*
G36*
X-6732531Y+8392781D02*
X-6385605Y+8392781D01*
X-6701759Y+8076627D01*
X-6701759Y+7975883D01*
X-7066061Y+8340185D01*
X-7066061Y+8394068D01*
X-7104161Y+8432168D01*
X-7104161Y+8514817D01*
X-7070730Y+8548248D01*
X-7070730Y+8711324D01*
X-7186041Y+8826635D01*
X-7349117Y+8826635D01*
X-7464428Y+8711324D01*
X-7464428Y+8548248D01*
X-7421659Y+8505479D01*
X-7421659Y+8495666D01*
X-7435372Y+8509379D01*
X-7489255Y+8509379D01*
X-7833657Y+8853781D01*
X-7193531Y+8853781D01*
X-6732531Y+8392781D01*
G37*
G36*
X-6504459Y+9225732D02*
X-6381708Y+9102981D01*
X-6208112Y+9102981D01*
X-6195412Y+9115681D01*
X-5394408Y+9115681D01*
X-5381708Y+9102981D01*
X-5208112Y+9102981D01*
X-5195412Y+9115681D01*
X-4394408Y+9115681D01*
X-4381708Y+9102981D01*
X-4208112Y+9102981D01*
X-4195412Y+9115681D01*
X-3394408Y+9115681D01*
X-3381708Y+9102981D01*
X-3363747Y+9102981D01*
X-3274845Y+9014079D01*
X-3381708Y+9014079D01*
X-3504459Y+8891328D01*
X-3504459Y+8717732D01*
X-3453659Y+8666932D01*
X-3453659Y+8578285D01*
X-4009865Y+8022079D01*
X-4115708Y+8022079D01*
X-4189832Y+7947956D01*
X-4319361Y+8077485D01*
X-4319361Y+8149328D01*
X-4370161Y+8200128D01*
X-4370161Y+8444375D01*
X-4333554Y+8480981D01*
X-4240561Y+8573974D01*
X-4240561Y+8594981D01*
X-4208112Y+8594981D01*
X-4085361Y+8717732D01*
X-4085361Y+8891328D01*
X-4208112Y+9014079D01*
X-4381708Y+9014079D01*
X-4504459Y+8891328D01*
X-4504459Y+8834985D01*
X-4558059Y+8781385D01*
X-4558059Y+8705485D01*
X-4687659Y+8575885D01*
X-4687659Y+8200128D01*
X-4689832Y+8197956D01*
X-4819361Y+8327485D01*
X-4819361Y+8399328D01*
X-4942112Y+8522079D01*
X-5013955Y+8522079D01*
X-5136161Y+8644285D01*
X-5136161Y+8666932D01*
X-5085361Y+8717732D01*
X-5085361Y+8891328D01*
X-5208112Y+9014079D01*
X-5381708Y+9014079D01*
X-5504459Y+8891328D01*
X-5504459Y+8717732D01*
X-5497006Y+8710279D01*
X-6092814Y+8710279D01*
X-6085361Y+8717732D01*
X-6085361Y+8891328D01*
X-6208112Y+9014079D01*
X-6381708Y+9014079D01*
X-6432508Y+8963279D01*
X-6525230Y+8963279D01*
X-6803202Y+9241251D01*
X-6504459Y+9241251D01*
X-6504459Y+9225732D01*
G37*
G36*
X-6504459Y+9225732D02*
X-6381708Y+9102981D01*
X-6208112Y+9102981D01*
X-6195412Y+9115681D01*
X-5394408Y+9115681D01*
X-5381708Y+9102981D01*
X-5208112Y+9102981D01*
X-5195412Y+9115681D01*
X-4394408Y+9115681D01*
X-4381708Y+9102981D01*
X-4208112Y+9102981D01*
X-4195412Y+9115681D01*
X-3394408Y+9115681D01*
X-3381708Y+9102981D01*
X-3363747Y+9102981D01*
X-3274845Y+9014079D01*
X-3381708Y+9014079D01*
X-3504459Y+8891328D01*
X-3504459Y+8717732D01*
X-3453659Y+8666932D01*
X-3453659Y+8578285D01*
X-4009865Y+8022079D01*
X-4115708Y+8022079D01*
X-4189832Y+7947956D01*
X-4319361Y+8077485D01*
X-4319361Y+8149328D01*
X-4370161Y+8200128D01*
X-4370161Y+8444375D01*
X-4333554Y+8480981D01*
X-4240561Y+8573974D01*
X-4240561Y+8594981D01*
X-4208112Y+8594981D01*
X-4085361Y+8717732D01*
X-4085361Y+8891328D01*
X-4208112Y+9014079D01*
X-4381708Y+9014079D01*
X-4504459Y+8891328D01*
X-4504459Y+8834985D01*
X-4558059Y+8781385D01*
X-4558059Y+8705485D01*
X-4687659Y+8575885D01*
X-4687659Y+8200128D01*
X-4689832Y+8197956D01*
X-4819361Y+8327485D01*
X-4819361Y+8399328D01*
X-4942112Y+8522079D01*
X-5013955Y+8522079D01*
X-5136161Y+8644285D01*
X-5136161Y+8666932D01*
X-5085361Y+8717732D01*
X-5085361Y+8891328D01*
X-5208112Y+9014079D01*
X-5381708Y+9014079D01*
X-5504459Y+8891328D01*
X-5504459Y+8717732D01*
X-5497006Y+8710279D01*
X-6092814Y+8710279D01*
X-6085361Y+8717732D01*
X-6085361Y+8891328D01*
X-6208112Y+9014079D01*
X-6381708Y+9014079D01*
X-6432508Y+8963279D01*
X-6525230Y+8963279D01*
X-6803202Y+9241251D01*
X-6504459Y+9241251D01*
X-6504459Y+9225732D01*
G37*
G36*
X-5879696Y+8001072D02*
X-5665040Y+7886313D01*
X-5631708Y+7852981D01*
X-5599105Y+7852981D01*
X-5379695Y+7751072D01*
X-5285391Y+7700655D01*
X-5355745Y+7700655D01*
X-5393845Y+7738755D01*
X-5556921Y+7738755D01*
X-5611776Y+7683900D01*
X-5643370Y+7715494D01*
X-5643370Y+7773863D01*
X-5758681Y+7889174D01*
X-5831518Y+7889174D01*
X-5831518Y+7925426D01*
X-5930988Y+8024896D01*
X-5879696Y+8001072D01*
G37*
G36*
X-5879696Y+8001072D02*
X-5665040Y+7886313D01*
X-5631708Y+7852981D01*
X-5599105Y+7852981D01*
X-5379695Y+7751072D01*
X-5285391Y+7700655D01*
X-5355745Y+7700655D01*
X-5393845Y+7738755D01*
X-5556921Y+7738755D01*
X-5611776Y+7683900D01*
X-5643370Y+7715494D01*
X-5643370Y+7773863D01*
X-5758681Y+7889174D01*
X-5831518Y+7889174D01*
X-5831518Y+7925426D01*
X-5930988Y+8024896D01*
X-5879696Y+8001072D01*
G37*
G36*
X-8247129Y+8108278D02*
X-8247129Y+7945202D01*
X-8131818Y+7829891D01*
X-8036775Y+7829891D01*
X-7907539Y+7700655D01*
X-8632221Y+7700655D01*
X-8675485Y+7753781D01*
X-8613155Y+7753781D01*
X-8251255Y+8115681D01*
X-8239726Y+8115681D01*
X-8247129Y+8108278D01*
G37*
G36*
X-8247129Y+8108278D02*
X-8247129Y+7945202D01*
X-8131818Y+7829891D01*
X-8036775Y+7829891D01*
X-7907539Y+7700655D01*
X-8632221Y+7700655D01*
X-8675485Y+7753781D01*
X-8613155Y+7753781D01*
X-8251255Y+8115681D01*
X-8239726Y+8115681D01*
X-8247129Y+8108278D01*
G37*
G36*
X-10004459Y+7797575D02*
X-10004459Y+7757849D01*
X-10329737Y+7757849D01*
X-10585361Y+7502225D01*
X-10585361Y+7547575D01*
X-10436161Y+7696775D01*
X-10436161Y+7993531D01*
X-10200415Y+7993531D01*
X-10004459Y+7797575D01*
G37*
G36*
X-10004459Y+7797575D02*
X-10004459Y+7757849D01*
X-10329737Y+7757849D01*
X-10585361Y+7502225D01*
X-10585361Y+7547575D01*
X-10436161Y+7696775D01*
X-10436161Y+7993531D01*
X-10200415Y+7993531D01*
X-10004459Y+7797575D01*
G37*
G36*
X-5774663Y+7397779D02*
X-5838161Y+7397779D01*
X-5838161Y+7461277D01*
X-5774663Y+7397779D01*
G37*
G36*
X-5774663Y+7397779D02*
X-5838161Y+7397779D01*
X-5838161Y+7461277D01*
X-5774663Y+7397779D01*
G37*
G36*
X-8806029Y+7412523D02*
X-8774174Y+7397779D01*
X-8893969Y+7397779D01*
X-8911309Y+7380439D01*
X-8911309Y+7492892D01*
X-8892462Y+7511739D01*
X-8806029Y+7412523D01*
G37*
G36*
X-8806029Y+7412523D02*
X-8774174Y+7397779D01*
X-8893969Y+7397779D01*
X-8911309Y+7380439D01*
X-8911309Y+7492892D01*
X-8892462Y+7511739D01*
X-8806029Y+7412523D01*
G37*
G36*
X-5118910Y+7362838D02*
X-5139229Y+7383157D01*
X-5098591Y+7383157D01*
X-5118910Y+7362838D01*
G37*
G36*
X-5118910Y+7362838D02*
X-5139229Y+7383157D01*
X-5098591Y+7383157D01*
X-5118910Y+7362838D01*
G37*
G36*
X-7404910Y+7362838D02*
X-7425229Y+7383157D01*
X-7384591Y+7383157D01*
X-7404910Y+7362838D01*
G37*
G36*
X-7404910Y+7362838D02*
X-7425229Y+7383157D01*
X-7384591Y+7383157D01*
X-7404910Y+7362838D01*
G37*
G36*
X-7658910Y+7362838D02*
X-7679229Y+7383157D01*
X-7638591Y+7383157D01*
X-7658910Y+7362838D01*
G37*
G36*
X-7658910Y+7362838D02*
X-7679229Y+7383157D01*
X-7638591Y+7383157D01*
X-7658910Y+7362838D01*
G37*
G36*
X-7912910Y+7362838D02*
X-7933229Y+7383157D01*
X-7892591Y+7383157D01*
X-7912910Y+7362838D01*
G37*
G36*
X-7912910Y+7362838D02*
X-7933229Y+7383157D01*
X-7892591Y+7383157D01*
X-7912910Y+7362838D01*
G37*
G36*
X-8166910Y+7362838D02*
X-8187229Y+7383157D01*
X-8146591Y+7383157D01*
X-8166910Y+7362838D01*
G37*
G36*
X-8166910Y+7362838D02*
X-8187229Y+7383157D01*
X-8146591Y+7383157D01*
X-8166910Y+7362838D01*
G37*
G36*
X-8420910Y+7362838D02*
X-8441229Y+7383157D01*
X-8400591Y+7383157D01*
X-8420910Y+7362838D01*
G37*
G36*
X-8420910Y+7362838D02*
X-8441229Y+7383157D01*
X-8400591Y+7383157D01*
X-8420910Y+7362838D01*
G37*
G36*
X-8674910Y+7362838D02*
X-8695229Y+7383157D01*
X-8654591Y+7383157D01*
X-8674910Y+7362838D01*
G37*
G36*
X-8674910Y+7362838D02*
X-8695229Y+7383157D01*
X-8654591Y+7383157D01*
X-8674910Y+7362838D01*
G37*
G36*
X-11020459Y+7743693D02*
X-11020459Y+7725732D01*
X-10974257Y+7679530D01*
X-11004459Y+7649328D01*
X-11004459Y+7475732D01*
X-10881708Y+7352981D01*
X-10734605Y+7352981D01*
X-10740737Y+7346849D01*
X-10884462Y+7346849D01*
X-10934462Y+7396849D01*
X-11072843Y+7396849D01*
X-11212861Y+7536867D01*
X-11212861Y+7936095D01*
X-11020459Y+7743693D01*
G37*
G36*
X-11020459Y+7743693D02*
X-11020459Y+7725732D01*
X-10974257Y+7679530D01*
X-11004459Y+7649328D01*
X-11004459Y+7475732D01*
X-10881708Y+7352981D01*
X-10734605Y+7352981D01*
X-10740737Y+7346849D01*
X-10884462Y+7346849D01*
X-10934462Y+7396849D01*
X-11072843Y+7396849D01*
X-11212861Y+7536867D01*
X-11212861Y+7936095D01*
X-11020459Y+7743693D01*
G37*
G36*
X-3514659Y+7385775D02*
X-3514659Y+7167285D01*
X-3583565Y+7098379D01*
X-3589124Y+7098379D01*
X-3589124Y+7347248D01*
X-3884657Y+7642781D01*
X-3771665Y+7642781D01*
X-3514659Y+7385775D01*
G37*
G36*
X-3514659Y+7385775D02*
X-3514659Y+7167285D01*
X-3583565Y+7098379D01*
X-3589124Y+7098379D01*
X-3589124Y+7347248D01*
X-3884657Y+7642781D01*
X-3771665Y+7642781D01*
X-3514659Y+7385775D01*
G37*
G36*
X-11331145Y+7096849D02*
X-11338276Y+7096849D01*
X-11520737Y+7279310D01*
X-11520737Y+7286441D01*
X-11331145Y+7096849D01*
G37*
G36*
X-11331145Y+7096849D02*
X-11338276Y+7096849D01*
X-11520737Y+7279310D01*
X-11520737Y+7286441D01*
X-11331145Y+7096849D01*
G37*
G36*
X-4321969Y+6953281D02*
X-4148654Y+6953281D01*
X-4148654Y+6858749D01*
X-4771195Y+6858749D01*
X-5756165Y+5873779D01*
X-5845969Y+5873779D01*
X-5880910Y+5838838D01*
X-5915851Y+5873779D01*
X-6099969Y+5873779D01*
X-6134910Y+5838838D01*
X-6169851Y+5873779D01*
X-6353969Y+5873779D01*
X-6388910Y+5838838D01*
X-6423851Y+5873779D01*
X-6573061Y+5873779D01*
X-6573061Y+6102632D01*
X-6696590Y+6226161D01*
X-6732511Y+6226161D01*
X-6845133Y+6338781D01*
X-5604155Y+6338781D01*
X-4989655Y+6953281D01*
X-4899851Y+6953281D01*
X-4864910Y+6988222D01*
X-4829969Y+6953281D01*
X-4645851Y+6953281D01*
X-4610910Y+6988222D01*
X-4575969Y+6953281D01*
X-4391851Y+6953281D01*
X-4356910Y+6988222D01*
X-4321969Y+6953281D01*
G37*
G36*
X-4321969Y+6953281D02*
X-4148654Y+6953281D01*
X-4148654Y+6858749D01*
X-4771195Y+6858749D01*
X-5756165Y+5873779D01*
X-5845969Y+5873779D01*
X-5880910Y+5838838D01*
X-5915851Y+5873779D01*
X-6099969Y+5873779D01*
X-6134910Y+5838838D01*
X-6169851Y+5873779D01*
X-6353969Y+5873779D01*
X-6388910Y+5838838D01*
X-6423851Y+5873779D01*
X-6573061Y+5873779D01*
X-6573061Y+6102632D01*
X-6696590Y+6226161D01*
X-6732511Y+6226161D01*
X-6845133Y+6338781D01*
X-5604155Y+6338781D01*
X-4989655Y+6953281D01*
X-4899851Y+6953281D01*
X-4864910Y+6988222D01*
X-4829969Y+6953281D01*
X-4645851Y+6953281D01*
X-4610910Y+6988222D01*
X-4575969Y+6953281D01*
X-4391851Y+6953281D01*
X-4356910Y+6988222D01*
X-4321969Y+6953281D01*
G37*
G36*
X-7369969Y+6953281D02*
X-7220759Y+6953281D01*
X-7220759Y+6912164D01*
X-7117344Y+6808749D01*
X-8877625Y+6808749D01*
X-9022157Y+6953281D01*
X-8963851Y+6953281D01*
X-8928910Y+6988222D01*
X-8893969Y+6953281D01*
X-8709851Y+6953281D01*
X-8674910Y+6988222D01*
X-8639969Y+6953281D01*
X-8455851Y+6953281D01*
X-8420910Y+6988222D01*
X-8385969Y+6953281D01*
X-8201851Y+6953281D01*
X-8166910Y+6988222D01*
X-8131969Y+6953281D01*
X-7947851Y+6953281D01*
X-7912910Y+6988222D01*
X-7877969Y+6953281D01*
X-7693851Y+6953281D01*
X-7658910Y+6988222D01*
X-7623969Y+6953281D01*
X-7439851Y+6953281D01*
X-7404910Y+6988222D01*
X-7369969Y+6953281D01*
G37*
G36*
X-7369969Y+6953281D02*
X-7220759Y+6953281D01*
X-7220759Y+6912164D01*
X-7117344Y+6808749D01*
X-8877625Y+6808749D01*
X-9022157Y+6953281D01*
X-8963851Y+6953281D01*
X-8928910Y+6988222D01*
X-8893969Y+6953281D01*
X-8709851Y+6953281D01*
X-8674910Y+6988222D01*
X-8639969Y+6953281D01*
X-8455851Y+6953281D01*
X-8420910Y+6988222D01*
X-8385969Y+6953281D01*
X-8201851Y+6953281D01*
X-8166910Y+6988222D01*
X-8131969Y+6953281D01*
X-7947851Y+6953281D01*
X-7912910Y+6988222D01*
X-7877969Y+6953281D01*
X-7693851Y+6953281D01*
X-7658910Y+6988222D01*
X-7623969Y+6953281D01*
X-7439851Y+6953281D01*
X-7404910Y+6988222D01*
X-7369969Y+6953281D01*
G37*
G36*
X-6099969Y+6953281D02*
X-6071223Y+6953281D01*
X-6215755Y+6808749D01*
X-6396742Y+6808749D01*
X-6308432Y+6897059D01*
X-6308432Y+6953281D01*
X-6169851Y+6953281D01*
X-6134910Y+6988222D01*
X-6099969Y+6953281D01*
G37*
G36*
X-6099969Y+6953281D02*
X-6071223Y+6953281D01*
X-6215755Y+6808749D01*
X-6396742Y+6808749D01*
X-6308432Y+6897059D01*
X-6308432Y+6953281D01*
X-6169851Y+6953281D01*
X-6134910Y+6988222D01*
X-6099969Y+6953281D01*
G37*
G36*
X-3091759Y+6766262D02*
X-3184246Y+6858749D01*
X-3359061Y+6858749D01*
X-3359061Y+6873875D01*
X-3197161Y+7035775D01*
X-3197161Y+7517285D01*
X-3631406Y+7951530D01*
X-3136161Y+8446775D01*
X-3136161Y+8666932D01*
X-3091759Y+8711334D01*
X-3091759Y+6766262D01*
G37*
G36*
X-3091759Y+6766262D02*
X-3184246Y+6858749D01*
X-3359061Y+6858749D01*
X-3359061Y+6873875D01*
X-3197161Y+7035775D01*
X-3197161Y+7517285D01*
X-3631406Y+7951530D01*
X-3136161Y+8446775D01*
X-3136161Y+8666932D01*
X-3091759Y+8711334D01*
X-3091759Y+6766262D01*
G37*
G36*
X-9950365Y+7359549D02*
X-10086798Y+7359549D01*
X-10137598Y+7308749D01*
X-10181754Y+7308749D01*
X-10774749Y+6715754D01*
X-10774749Y+6199079D01*
X-11050753Y+6199079D01*
X-11886161Y+7034487D01*
X-11886161Y+7087961D01*
X-11799123Y+7000924D01*
X-11501351Y+6703151D01*
X-11130957Y+6703151D01*
X-11118257Y+6690451D01*
X-10944661Y+6690451D01*
X-10821910Y+6813202D01*
X-10821910Y+6953151D01*
X-10577663Y+6953151D01*
X-10166663Y+7364151D01*
X-9950365Y+7364151D01*
X-9950365Y+7359549D01*
G37*
G36*
X-9950365Y+7359549D02*
X-10086798Y+7359549D01*
X-10137598Y+7308749D01*
X-10181754Y+7308749D01*
X-10774749Y+6715754D01*
X-10774749Y+6199079D01*
X-11050753Y+6199079D01*
X-11886161Y+7034487D01*
X-11886161Y+7087961D01*
X-11799123Y+7000924D01*
X-11501351Y+6703151D01*
X-11130957Y+6703151D01*
X-11118257Y+6690451D01*
X-10944661Y+6690451D01*
X-10821910Y+6813202D01*
X-10821910Y+6953151D01*
X-10577663Y+6953151D01*
X-10166663Y+7364151D01*
X-9950365Y+7364151D01*
X-9950365Y+7359549D01*
G37*
G36*
X-5591969Y+6953281D02*
X-5438663Y+6953281D01*
X-5735665Y+6656279D01*
X-5919217Y+6656279D01*
X-5607092Y+6968404D01*
X-5591969Y+6953281D01*
G37*
G36*
X-5591969Y+6953281D02*
X-5438663Y+6953281D01*
X-5735665Y+6656279D01*
X-5919217Y+6656279D01*
X-5607092Y+6968404D01*
X-5591969Y+6953281D01*
G37*
G36*
X-9434923Y+6199079D02*
X-9731491Y+6199079D01*
X-9731491Y+6355845D01*
X-9769591Y+6393945D01*
X-9769591Y+6461514D01*
X-9733474Y+6497630D01*
X-9434923Y+6199079D01*
G37*
G36*
X-9434923Y+6199079D02*
X-9731491Y+6199079D01*
X-9731491Y+6355845D01*
X-9769591Y+6393945D01*
X-9769591Y+6461514D01*
X-9733474Y+6497630D01*
X-9434923Y+6199079D01*
G37*
G36*
X-10225008Y+6813202D02*
X-10174208Y+6762402D01*
X-10174208Y+6526568D01*
X-10087089Y+6439449D01*
X-10087089Y+6393945D01*
X-10125189Y+6355845D01*
X-10125189Y+6199079D01*
X-10457251Y+6199079D01*
X-10457251Y+6584244D01*
X-10225008Y+6816487D01*
X-10225008Y+6813202D01*
G37*
G36*
X-10225008Y+6813202D02*
X-10174208Y+6762402D01*
X-10174208Y+6526568D01*
X-10087089Y+6439449D01*
X-10087089Y+6393945D01*
X-10125189Y+6355845D01*
X-10125189Y+6199079D01*
X-10457251Y+6199079D01*
X-10457251Y+6584244D01*
X-10225008Y+6816487D01*
X-10225008Y+6813202D01*
G37*
G36*
X-3502759Y+6233068D02*
X-3502759Y+6098379D01*
X-3637448Y+6098379D01*
X-3665231Y+6070596D01*
X-3677335Y+6082700D01*
X-3840411Y+6082700D01*
X-3866985Y+6056126D01*
X-4025504Y+6056126D01*
X-4140815Y+5940815D01*
X-4140815Y+5873779D01*
X-4321969Y+5873779D01*
X-4356910Y+5838838D01*
X-4391851Y+5873779D01*
X-4575969Y+5873779D01*
X-4610910Y+5838838D01*
X-4645851Y+5873779D01*
X-4829969Y+5873779D01*
X-4864910Y+5838838D01*
X-4899851Y+5873779D01*
X-5053157Y+5873779D01*
X-4689755Y+6237181D01*
X-3811155Y+6237181D01*
X-3801555Y+6246781D01*
X-3489046Y+6246781D01*
X-3502759Y+6233068D01*
G37*
G36*
X-3502759Y+6233068D02*
X-3502759Y+6098379D01*
X-3637448Y+6098379D01*
X-3665231Y+6070596D01*
X-3677335Y+6082700D01*
X-3840411Y+6082700D01*
X-3866985Y+6056126D01*
X-4025504Y+6056126D01*
X-4140815Y+5940815D01*
X-4140815Y+5873779D01*
X-4321969Y+5873779D01*
X-4356910Y+5838838D01*
X-4391851Y+5873779D01*
X-4575969Y+5873779D01*
X-4610910Y+5838838D01*
X-4645851Y+5873779D01*
X-4829969Y+5873779D01*
X-4864910Y+5838838D01*
X-4899851Y+5873779D01*
X-5053157Y+5873779D01*
X-4689755Y+6237181D01*
X-3811155Y+6237181D01*
X-3801555Y+6246781D01*
X-3489046Y+6246781D01*
X-3502759Y+6233068D01*
G37*
G36*
X-11910869Y+6034949D02*
X-12036665Y+6034949D01*
X-12006563Y+6065051D01*
X-11952681Y+6065051D01*
X-11946826Y+6070906D01*
X-11910869Y+6034949D01*
G37*
G36*
X-11910869Y+6034949D02*
X-12036665Y+6034949D01*
X-12006563Y+6065051D01*
X-11952681Y+6065051D01*
X-11946826Y+6070906D01*
X-11910869Y+6034949D01*
G37*
G36*
X-6974977Y+5983695D02*
X-6974977Y+5947774D01*
X-6966759Y+5939555D01*
X-6966759Y+5873779D01*
X-7021655Y+5873779D01*
X-7227957Y+6080081D01*
X-7071363Y+6080081D01*
X-6974977Y+5983695D01*
G37*
G36*
X-6974977Y+5983695D02*
X-6974977Y+5947774D01*
X-6966759Y+5939555D01*
X-6966759Y+5873779D01*
X-7021655Y+5873779D01*
X-7227957Y+6080081D01*
X-7071363Y+6080081D01*
X-6974977Y+5983695D01*
G37*
G36*
X-7470663Y+5873779D02*
X-7623969Y+5873779D01*
X-7636622Y+5861126D01*
X-7657077Y+5881581D01*
X-7478465Y+5881581D01*
X-7470663Y+5873779D01*
G37*
G36*
X-7470663Y+5873779D02*
X-7623969Y+5873779D01*
X-7636622Y+5861126D01*
X-7657077Y+5881581D01*
X-7478465Y+5881581D01*
X-7470663Y+5873779D01*
G37*
G36*
X-9271809Y+5633309D02*
X-9405161Y+5633309D01*
X-9405161Y+5669775D01*
X-9345755Y+5729181D01*
X-9271809Y+5729181D01*
X-9271809Y+5633309D01*
G37*
G36*
X-9271809Y+5633309D02*
X-9405161Y+5633309D01*
X-9405161Y+5669775D01*
X-9345755Y+5729181D01*
X-9271809Y+5729181D01*
X-9271809Y+5633309D01*
G37*
G36*
X-5591969Y+5429281D02*
X-5502759Y+5429281D01*
X-5502759Y+5421185D01*
X-5562865Y+5361079D01*
X-5634708Y+5361079D01*
X-5757459Y+5238328D01*
X-5757459Y+5094179D01*
X-5846361Y+5094179D01*
X-5846361Y+5238328D01*
X-5969112Y+5361079D01*
X-6142708Y+5361079D01*
X-6155408Y+5348379D01*
X-6319062Y+5348379D01*
X-6319062Y+5429281D01*
X-6169851Y+5429281D01*
X-6134910Y+5464222D01*
X-6099969Y+5429281D01*
X-5915851Y+5429281D01*
X-5880910Y+5464222D01*
X-5845969Y+5429281D01*
X-5661851Y+5429281D01*
X-5626910Y+5464222D01*
X-5591969Y+5429281D01*
G37*
G36*
X-5591969Y+5429281D02*
X-5502759Y+5429281D01*
X-5502759Y+5421185D01*
X-5562865Y+5361079D01*
X-5634708Y+5361079D01*
X-5757459Y+5238328D01*
X-5757459Y+5094179D01*
X-5846361Y+5094179D01*
X-5846361Y+5238328D01*
X-5969112Y+5361079D01*
X-6142708Y+5361079D01*
X-6155408Y+5348379D01*
X-6319062Y+5348379D01*
X-6319062Y+5429281D01*
X-6169851Y+5429281D01*
X-6134910Y+5464222D01*
X-6099969Y+5429281D01*
X-5915851Y+5429281D01*
X-5880910Y+5464222D01*
X-5845969Y+5429281D01*
X-5661851Y+5429281D01*
X-5626910Y+5464222D01*
X-5591969Y+5429281D01*
G37*
G36*
X-11228760Y+5928078D02*
X-11182263Y+5881581D01*
X-9642363Y+5881581D01*
X-9722659Y+5801285D01*
X-9722659Y+5370587D01*
X-9725851Y+5373779D01*
X-9745393Y+5373779D01*
X-10068462Y+5696848D01*
X-11015996Y+5696848D01*
X-11815997Y+6496849D01*
X-11914581Y+6496849D01*
X-11952681Y+6534949D01*
X-12006563Y+6534949D01*
X-12103151Y+6631537D01*
X-12103151Y+6802469D01*
X-11228760Y+5928078D01*
G37*
G36*
X-11228760Y+5928078D02*
X-11182263Y+5881581D01*
X-9642363Y+5881581D01*
X-9722659Y+5801285D01*
X-9722659Y+5370587D01*
X-9725851Y+5373779D01*
X-9745393Y+5373779D01*
X-10068462Y+5696848D01*
X-11015996Y+5696848D01*
X-11815997Y+6496849D01*
X-11914581Y+6496849D01*
X-11952681Y+6534949D01*
X-12006563Y+6534949D01*
X-12103151Y+6631537D01*
X-12103151Y+6802469D01*
X-11228760Y+5928078D01*
G37*
G36*
X-4575969Y+5429281D02*
X-4502759Y+5429281D01*
X-4502759Y+5361079D01*
X-4532955Y+5361079D01*
X-4579161Y+5407285D01*
X-4579161Y+5432473D01*
X-4575969Y+5429281D01*
G37*
G36*
X-4575969Y+5429281D02*
X-4502759Y+5429281D01*
X-4502759Y+5361079D01*
X-4532955Y+5361079D01*
X-4579161Y+5407285D01*
X-4579161Y+5432473D01*
X-4575969Y+5429281D01*
G37*
G36*
X-7222659Y+5289128D02*
X-7224932Y+5286855D01*
X-7321506Y+5383430D01*
X-7275655Y+5429281D01*
X-7222659Y+5429281D01*
X-7222659Y+5289128D01*
G37*
G36*
X-7222659Y+5289128D02*
X-7224932Y+5286855D01*
X-7321506Y+5383430D01*
X-7275655Y+5429281D01*
X-7222659Y+5429281D01*
X-7222659Y+5289128D01*
G37*
G36*
X-7877969Y+5429281D02*
X-7724663Y+5429281D01*
X-8021665Y+5132279D01*
X-8334657Y+5132279D01*
X-8037655Y+5429281D01*
X-7947851Y+5429281D01*
X-7912910Y+5464222D01*
X-7877969Y+5429281D01*
G37*
G36*
X-7877969Y+5429281D02*
X-7724663Y+5429281D01*
X-8021665Y+5132279D01*
X-8334657Y+5132279D01*
X-8037655Y+5429281D01*
X-7947851Y+5429281D01*
X-7912910Y+5464222D01*
X-7877969Y+5429281D01*
G37*
G36*
X-5265459Y+5094179D02*
X-5338361Y+5094179D01*
X-5338361Y+5136575D01*
X-5270255Y+5204681D01*
X-5265459Y+5204681D01*
X-5265459Y+5094179D01*
G37*
G36*
X-5265459Y+5094179D02*
X-5338361Y+5094179D01*
X-5338361Y+5136575D01*
X-5270255Y+5204681D01*
X-5265459Y+5204681D01*
X-5265459Y+5094179D01*
G37*
G36*
X-11866840Y+5392336D02*
X-11866840Y+5062807D01*
X-11919112Y+5115079D01*
X-11987073Y+5115079D01*
X-12103151Y+5231157D01*
X-12103151Y+5565051D01*
X-12039555Y+5565051D01*
X-11866840Y+5392336D01*
G37*
G36*
X-11866840Y+5392336D02*
X-11866840Y+5062807D01*
X-11919112Y+5115079D01*
X-11987073Y+5115079D01*
X-12103151Y+5231157D01*
X-12103151Y+5565051D01*
X-12039555Y+5565051D01*
X-11866840Y+5392336D01*
G37*
G36*
X-11458617Y+5582697D02*
X-11179072Y+5303152D01*
X-10231538Y+5303152D01*
X-10040159Y+5111773D01*
X-10040159Y+5065532D01*
X-10190001Y+5065532D01*
X-10202701Y+5052832D01*
X-10524992Y+5052832D01*
X-10647545Y+5050895D01*
X-10657592Y+5060942D01*
X-10820668Y+5060942D01*
X-10935979Y+4945631D01*
X-10935979Y+4835679D01*
X-11209712Y+4835679D01*
X-11235112Y+4861079D01*
X-11408708Y+4861079D01*
X-11531459Y+4738328D01*
X-11531459Y+4634149D01*
X-11728103Y+4634149D01*
X-11729431Y+4635477D01*
X-11723583Y+4641325D01*
X-11669700Y+4641325D01*
X-11554389Y+4756636D01*
X-11554389Y+4860519D01*
X-11549342Y+4865566D01*
X-11549342Y+5523846D01*
X-11815051Y+5789555D01*
X-11815051Y+5939131D01*
X-11458617Y+5582697D01*
G37*
G36*
X-11458617Y+5582697D02*
X-11179072Y+5303152D01*
X-10231538Y+5303152D01*
X-10040159Y+5111773D01*
X-10040159Y+5065532D01*
X-10190001Y+5065532D01*
X-10202701Y+5052832D01*
X-10524992Y+5052832D01*
X-10647545Y+5050895D01*
X-10657592Y+5060942D01*
X-10820668Y+5060942D01*
X-10935979Y+4945631D01*
X-10935979Y+4835679D01*
X-11209712Y+4835679D01*
X-11235112Y+4861079D01*
X-11408708Y+4861079D01*
X-11531459Y+4738328D01*
X-11531459Y+4634149D01*
X-11728103Y+4634149D01*
X-11729431Y+4635477D01*
X-11723583Y+4641325D01*
X-11669700Y+4641325D01*
X-11554389Y+4756636D01*
X-11554389Y+4860519D01*
X-11549342Y+4865566D01*
X-11549342Y+5523846D01*
X-11815051Y+5789555D01*
X-11815051Y+5939131D01*
X-11458617Y+5582697D01*
G37*
G36*
X-3909783Y+5464564D02*
X-3947883Y+5426464D01*
X-3947883Y+5263388D01*
X-3832572Y+5148077D01*
X-3714659Y+5148077D01*
X-3714659Y+5117284D01*
X-3821664Y+5010279D01*
X-4182155Y+5010279D01*
X-4338361Y+5166485D01*
X-4338361Y+5204681D01*
X-4224372Y+5204681D01*
X-4186272Y+5242781D01*
X-4171327Y+5242781D01*
X-3909783Y+5504325D01*
X-3909783Y+5464564D01*
G37*
G36*
X-3909783Y+5464564D02*
X-3947883Y+5426464D01*
X-3947883Y+5263388D01*
X-3832572Y+5148077D01*
X-3714659Y+5148077D01*
X-3714659Y+5117284D01*
X-3821664Y+5010279D01*
X-4182155Y+5010279D01*
X-4338361Y+5166485D01*
X-4338361Y+5204681D01*
X-4224372Y+5204681D01*
X-4186272Y+5242781D01*
X-4171327Y+5242781D01*
X-3909783Y+5504325D01*
X-3909783Y+5464564D01*
G37*
G36*
X-3392708Y+5687981D02*
X-3214562Y+5687981D01*
X-3146849Y+5643758D01*
X-3146849Y+2386619D01*
X-3192809Y+2432579D01*
X-3308573Y+2432579D01*
X-5317975Y+4441981D01*
X-5312865Y+4441981D01*
X-4813665Y+3942781D01*
X-3893859Y+3942781D01*
X-3746897Y+4089743D01*
X-3693014Y+4089743D01*
X-3577703Y+4205054D01*
X-3577703Y+4368130D01*
X-3693014Y+4483441D01*
X-3856090Y+4483441D01*
X-3971401Y+4368130D01*
X-3971401Y+4314247D01*
X-4025369Y+4260279D01*
X-4682155Y+4260279D01*
X-4902406Y+4480530D01*
X-4647161Y+4735775D01*
X-4647161Y+4954434D01*
X-4634708Y+4941981D01*
X-4562865Y+4941981D01*
X-4313665Y+4692781D01*
X-3690154Y+4692781D01*
X-3397161Y+4985774D01*
X-3397161Y+5692434D01*
X-3392708Y+5687981D01*
G37*
G36*
X-3392708Y+5687981D02*
X-3214562Y+5687981D01*
X-3146849Y+5643758D01*
X-3146849Y+2386619D01*
X-3192809Y+2432579D01*
X-3308573Y+2432579D01*
X-5317975Y+4441981D01*
X-5312865Y+4441981D01*
X-4813665Y+3942781D01*
X-3893859Y+3942781D01*
X-3746897Y+4089743D01*
X-3693014Y+4089743D01*
X-3577703Y+4205054D01*
X-3577703Y+4368130D01*
X-3693014Y+4483441D01*
X-3856090Y+4483441D01*
X-3971401Y+4368130D01*
X-3971401Y+4314247D01*
X-4025369Y+4260279D01*
X-4682155Y+4260279D01*
X-4902406Y+4480530D01*
X-4647161Y+4735775D01*
X-4647161Y+4954434D01*
X-4634708Y+4941981D01*
X-4562865Y+4941981D01*
X-4313665Y+4692781D01*
X-3690154Y+4692781D01*
X-3397161Y+4985774D01*
X-3397161Y+5692434D01*
X-3392708Y+5687981D01*
G37*
G36*
X-10515459Y+4652479D02*
X-10530433Y+4652479D01*
X-10561175Y+4683221D01*
X-10520455Y+4684534D01*
X-10515459Y+4684534D01*
X-10515459Y+4652479D01*
G37*
G36*
X-10515459Y+4652479D02*
X-10530433Y+4652479D01*
X-10561175Y+4683221D01*
X-10520455Y+4684534D01*
X-10515459Y+4684534D01*
X-10515459Y+4652479D01*
G37*
G36*
X-5507459Y+4631465D02*
X-5576475Y+4700481D01*
X-5507459Y+4700481D01*
X-5507459Y+4631465D01*
G37*
G36*
X-5507459Y+4631465D02*
X-5576475Y+4700481D01*
X-5507459Y+4700481D01*
X-5507459Y+4631465D01*
G37*
G36*
X-9785344Y+4611779D02*
X-9909969Y+4611779D01*
X-9960769Y+4560979D01*
X-9972895Y+4560979D01*
X-10083750Y+4671834D01*
X-10026925Y+4671834D01*
X-9936162Y+4762597D01*
X-9785344Y+4611779D01*
G37*
G36*
X-9785344Y+4611779D02*
X-9909969Y+4611779D01*
X-9960769Y+4560979D01*
X-9972895Y+4560979D01*
X-10083750Y+4671834D01*
X-10026925Y+4671834D01*
X-9936162Y+4762597D01*
X-9785344Y+4611779D01*
G37*
G36*
X-6252759Y+4861079D02*
X-6384708Y+4861079D01*
X-6507459Y+4738328D01*
X-6507459Y+4564732D01*
X-6476319Y+4533592D01*
X-6647161Y+4362750D01*
X-6647161Y+4513932D01*
X-6596361Y+4564732D01*
X-6596361Y+4738328D01*
X-6609061Y+4751028D01*
X-6609061Y+4941981D01*
X-6469112Y+4941981D01*
X-6456412Y+4954681D01*
X-6252759Y+4954681D01*
X-6252759Y+4861079D01*
G37*
G36*
X-6252759Y+4861079D02*
X-6384708Y+4861079D01*
X-6507459Y+4738328D01*
X-6507459Y+4564732D01*
X-6476319Y+4533592D01*
X-6647161Y+4362750D01*
X-6647161Y+4513932D01*
X-6596361Y+4564732D01*
X-6596361Y+4738328D01*
X-6609061Y+4751028D01*
X-6609061Y+4941981D01*
X-6469112Y+4941981D01*
X-6456412Y+4954681D01*
X-6252759Y+4954681D01*
X-6252759Y+4861079D01*
G37*
G36*
X-9401969Y+4929281D02*
X-9388565Y+4929281D01*
X-9274065Y+4814781D01*
X-8697006Y+4814781D01*
X-8765459Y+4746328D01*
X-8765459Y+4572732D01*
X-8642708Y+4449981D01*
X-8469112Y+4449981D01*
X-8443712Y+4475381D01*
X-8229059Y+4475381D01*
X-8229059Y+4413807D01*
X-8307187Y+4335679D01*
X-8443712Y+4335679D01*
X-8469112Y+4361079D01*
X-8642708Y+4361079D01*
X-8765459Y+4238328D01*
X-8765459Y+4220367D01*
X-8887447Y+4098379D01*
X-8940412Y+4098379D01*
X-8953112Y+4111079D01*
X-8971073Y+4111079D01*
X-9027275Y+4167281D01*
X-8963851Y+4167281D01*
X-8833661Y+4297471D01*
X-8833661Y+4481589D01*
X-8963851Y+4611779D01*
X-9147969Y+4611779D01*
X-9182910Y+4576838D01*
X-9217851Y+4611779D01*
X-9367061Y+4611779D01*
X-9367061Y+4750268D01*
X-9546074Y+4929281D01*
X-9471851Y+4929281D01*
X-9436910Y+4964222D01*
X-9401969Y+4929281D01*
G37*
G36*
X-9401969Y+4929281D02*
X-9388565Y+4929281D01*
X-9274065Y+4814781D01*
X-8697006Y+4814781D01*
X-8765459Y+4746328D01*
X-8765459Y+4572732D01*
X-8642708Y+4449981D01*
X-8469112Y+4449981D01*
X-8443712Y+4475381D01*
X-8229059Y+4475381D01*
X-8229059Y+4413807D01*
X-8307187Y+4335679D01*
X-8443712Y+4335679D01*
X-8469112Y+4361079D01*
X-8642708Y+4361079D01*
X-8765459Y+4238328D01*
X-8765459Y+4220367D01*
X-8887447Y+4098379D01*
X-8940412Y+4098379D01*
X-8953112Y+4111079D01*
X-8971073Y+4111079D01*
X-9027275Y+4167281D01*
X-8963851Y+4167281D01*
X-8833661Y+4297471D01*
X-8833661Y+4481589D01*
X-8963851Y+4611779D01*
X-9147969Y+4611779D01*
X-9182910Y+4576838D01*
X-9217851Y+4611779D01*
X-9367061Y+4611779D01*
X-9367061Y+4750268D01*
X-9546074Y+4929281D01*
X-9471851Y+4929281D01*
X-9436910Y+4964222D01*
X-9401969Y+4929281D01*
G37*
G36*
X-11937616Y+4322810D02*
X-12036961Y+4223465D01*
X-12036961Y+4248849D01*
X-12075061Y+4286949D01*
X-12075061Y+4441981D01*
X-12056787Y+4441981D01*
X-11937616Y+4322810D01*
G37*
G36*
X-11937616Y+4322810D02*
X-12036961Y+4223465D01*
X-12036961Y+4248849D01*
X-12075061Y+4286949D01*
X-12075061Y+4441981D01*
X-12056787Y+4441981D01*
X-11937616Y+4322810D01*
G37*
G36*
X-10114927Y+4218081D02*
X-9989358Y+4218081D01*
X-9989358Y+4210546D01*
X-10088825Y+4111079D01*
X-10125761Y+4111079D01*
X-10125761Y+4228915D01*
X-10114927Y+4218081D01*
G37*
G36*
X-10114927Y+4218081D02*
X-9989358Y+4218081D01*
X-9989358Y+4210546D01*
X-10088825Y+4111079D01*
X-10125761Y+4111079D01*
X-10125761Y+4228915D01*
X-10114927Y+4218081D01*
G37*
G36*
X-9506757Y+4098379D02*
X-9646460Y+4098379D01*
X-9646460Y+4167281D01*
X-9506757Y+4167281D01*
X-9506757Y+4098379D01*
G37*
G36*
X-9506757Y+4098379D02*
X-9646460Y+4098379D01*
X-9646460Y+4167281D01*
X-9506757Y+4167281D01*
X-9506757Y+4098379D01*
G37*
G36*
X-7496337Y+5001486D02*
X-7442454Y+5001486D01*
X-7230659Y+4789691D01*
X-7230659Y+4048590D01*
X-7259079Y+4048590D01*
X-7745334Y+4534845D01*
X-7745334Y+4552807D01*
X-8007308Y+4814781D01*
X-7890155Y+4814781D01*
X-7599894Y+5105042D01*
X-7496337Y+5001486D01*
G37*
G36*
X-7496337Y+5001486D02*
X-7442454Y+5001486D01*
X-7230659Y+4789691D01*
X-7230659Y+4048590D01*
X-7259079Y+4048590D01*
X-7745334Y+4534845D01*
X-7745334Y+4552807D01*
X-8007308Y+4814781D01*
X-7890155Y+4814781D01*
X-7599894Y+5105042D01*
X-7496337Y+5001486D01*
G37*
G36*
X-11359458Y+3922810D02*
X-11484949Y+3797319D01*
X-11484949Y+3704775D01*
X-11664323Y+3884149D01*
X-11855425Y+3884149D01*
X-11723723Y+4015851D01*
X-11452499Y+4015851D01*
X-11359458Y+3922810D01*
G37*
G36*
X-11359458Y+3922810D02*
X-11484949Y+3797319D01*
X-11484949Y+3704775D01*
X-11664323Y+3884149D01*
X-11855425Y+3884149D01*
X-11723723Y+4015851D01*
X-11452499Y+4015851D01*
X-11359458Y+3922810D01*
G37*
G36*
X-10653229Y+4182581D02*
X-10581387Y+4182581D01*
X-10494059Y+4095253D01*
X-10494059Y+3636479D01*
X-10546433Y+3636479D01*
X-10745633Y+3835679D01*
X-10761335Y+3835679D01*
X-10671761Y+3925253D01*
X-10671761Y+3967813D01*
X-10665851Y+3973723D01*
X-10665851Y+4195203D01*
X-10653229Y+4182581D01*
G37*
G36*
X-10653229Y+4182581D02*
X-10581387Y+4182581D01*
X-10494059Y+4095253D01*
X-10494059Y+3636479D01*
X-10546433Y+3636479D01*
X-10745633Y+3835679D01*
X-10761335Y+3835679D01*
X-10671761Y+3925253D01*
X-10671761Y+3967813D01*
X-10665851Y+3973723D01*
X-10665851Y+4195203D01*
X-10653229Y+4182581D01*
G37*
G36*
X-7698642Y+4003224D02*
X-7840787Y+3861079D01*
X-7876708Y+3861079D01*
X-7999459Y+3738328D01*
X-7999459Y+3564732D01*
X-7876708Y+3441981D01*
X-7703112Y+3441981D01*
X-7580361Y+3564732D01*
X-7580361Y+3600653D01*
X-7513422Y+3667592D01*
X-7398932Y+3667592D01*
X-7386232Y+3654892D01*
X-7281459Y+3654892D01*
X-7281459Y+3564732D01*
X-7158708Y+3441981D01*
X-7112815Y+3441981D01*
X-7122466Y+3432330D01*
X-8863459Y+3432330D01*
X-9086872Y+3208918D01*
X-9346361Y+3468407D01*
X-9346361Y+3504328D01*
X-9469112Y+3627079D01*
X-9601975Y+3627079D01*
X-9524373Y+3704681D01*
X-9382070Y+3704681D01*
X-9382070Y+3560490D01*
X-9266759Y+3445179D01*
X-9103683Y+3445179D01*
X-9090983Y+3457879D01*
X-8908606Y+3457879D01*
X-8892708Y+3441981D01*
X-8719112Y+3441981D01*
X-8596361Y+3564732D01*
X-8596361Y+3738328D01*
X-8643544Y+3785510D01*
X-8487073Y+3941981D01*
X-8469112Y+3941981D01*
X-8443712Y+3967381D01*
X-8154633Y+3967381D01*
X-7908716Y+4213298D01*
X-7698642Y+4003224D01*
G37*
G36*
X-7698642Y+4003224D02*
X-7840787Y+3861079D01*
X-7876708Y+3861079D01*
X-7999459Y+3738328D01*
X-7999459Y+3564732D01*
X-7876708Y+3441981D01*
X-7703112Y+3441981D01*
X-7580361Y+3564732D01*
X-7580361Y+3600653D01*
X-7513422Y+3667592D01*
X-7398932Y+3667592D01*
X-7386232Y+3654892D01*
X-7281459Y+3654892D01*
X-7281459Y+3564732D01*
X-7158708Y+3441981D01*
X-7112815Y+3441981D01*
X-7122466Y+3432330D01*
X-8863459Y+3432330D01*
X-9086872Y+3208918D01*
X-9346361Y+3468407D01*
X-9346361Y+3504328D01*
X-9469112Y+3627079D01*
X-9601975Y+3627079D01*
X-9524373Y+3704681D01*
X-9382070Y+3704681D01*
X-9382070Y+3560490D01*
X-9266759Y+3445179D01*
X-9103683Y+3445179D01*
X-9090983Y+3457879D01*
X-8908606Y+3457879D01*
X-8892708Y+3441981D01*
X-8719112Y+3441981D01*
X-8596361Y+3564732D01*
X-8596361Y+3738328D01*
X-8643544Y+3785510D01*
X-8487073Y+3941981D01*
X-8469112Y+3941981D01*
X-8443712Y+3967381D01*
X-8154633Y+3967381D01*
X-7908716Y+4213298D01*
X-7698642Y+4003224D01*
G37*
G36*
X-11649405Y+3348379D02*
X-11701687Y+3348379D01*
X-11869159Y+3515851D01*
X-11816877Y+3515851D01*
X-11649405Y+3348379D01*
G37*
G36*
X-11649405Y+3348379D02*
X-11701687Y+3348379D01*
X-11869159Y+3515851D01*
X-11816877Y+3515851D01*
X-11649405Y+3348379D01*
G37*
G36*
X-10887387Y+3456581D02*
X-10790859Y+3360053D01*
X-10790859Y+3345376D01*
X-10912864Y+3467381D01*
X-10898187Y+3467381D01*
X-10887387Y+3456581D01*
G37*
G36*
X-10887387Y+3456581D02*
X-10790859Y+3360053D01*
X-10790859Y+3345376D01*
X-10912864Y+3467381D01*
X-10898187Y+3467381D01*
X-10887387Y+3456581D01*
G37*
G36*
X-7508262Y+3046296D02*
X-7508262Y+3028335D01*
X-7600918Y+2935679D01*
X-8329633Y+2935679D01*
X-8333661Y+2939707D01*
X-8333661Y+3114832D01*
X-7439726Y+3114832D01*
X-7508262Y+3046296D01*
G37*
G36*
X-7508262Y+3046296D02*
X-7508262Y+3028335D01*
X-7600918Y+2935679D01*
X-8329633Y+2935679D01*
X-8333661Y+2939707D01*
X-8333661Y+3114832D01*
X-7439726Y+3114832D01*
X-7508262Y+3046296D01*
G37*
G36*
X-12251285Y+2886479D02*
X-12266210Y+2886479D01*
X-12266210Y+2901404D01*
X-12251285Y+2886479D01*
G37*
G36*
X-12251285Y+2886479D02*
X-12266210Y+2886479D01*
X-12266210Y+2901404D01*
X-12251285Y+2886479D01*
G37*
G36*
X-11090059Y+2833947D02*
X-11142591Y+2886479D01*
X-11214433Y+2886479D01*
X-11244535Y+2916581D01*
X-11142591Y+2916581D01*
X-11090059Y+2969113D01*
X-11090059Y+2833947D01*
G37*
G36*
X-11090059Y+2833947D02*
X-11142591Y+2886479D01*
X-11214433Y+2886479D01*
X-11244535Y+2916581D01*
X-11142591Y+2916581D01*
X-11090059Y+2969113D01*
X-11090059Y+2833947D01*
G37*
G36*
X-6631547Y+3924696D02*
X-6631547Y+3058397D01*
X-7515365Y+2174579D01*
X-7677011Y+2174579D01*
X-7791311Y+2060279D01*
X-8329661Y+2060279D01*
X-8329661Y+2123779D01*
X-8355061Y+2123779D01*
X-8355061Y+2194999D01*
X-8613061Y+2452999D01*
X-8613061Y+2679281D01*
X-8594087Y+2679281D01*
X-8482187Y+2567381D01*
X-7448364Y+2567381D01*
X-7247836Y+2767909D01*
X-7229875Y+2767909D01*
X-7114564Y+2883220D01*
X-7114564Y+3046296D01*
X-7183100Y+3114832D01*
X-6990956Y+3114832D01*
X-6651181Y+3454607D01*
X-6651181Y+3944330D01*
X-6631547Y+3924696D01*
G37*
G36*
X-6631547Y+3924696D02*
X-6631547Y+3058397D01*
X-7515365Y+2174579D01*
X-7677011Y+2174579D01*
X-7791311Y+2060279D01*
X-8329661Y+2060279D01*
X-8329661Y+2123779D01*
X-8355061Y+2123779D01*
X-8355061Y+2194999D01*
X-8613061Y+2452999D01*
X-8613061Y+2679281D01*
X-8594087Y+2679281D01*
X-8482187Y+2567381D01*
X-7448364Y+2567381D01*
X-7247836Y+2767909D01*
X-7229875Y+2767909D01*
X-7114564Y+2883220D01*
X-7114564Y+3046296D01*
X-7183100Y+3114832D01*
X-6990956Y+3114832D01*
X-6651181Y+3454607D01*
X-6651181Y+3944330D01*
X-6631547Y+3924696D01*
G37*
G36*
X-5892708Y+4441981D02*
X-5874747Y+4441981D01*
X-3827425Y+2394659D01*
X-4016273Y+2394659D01*
X-4815051Y+3193437D01*
X-4815051Y+3247319D01*
X-4952681Y+3384949D01*
X-5147319Y+3384949D01*
X-5284949Y+3247319D01*
X-5284949Y+3052681D01*
X-5147319Y+2915051D01*
X-5093437Y+2915051D01*
X-4179347Y+2000961D01*
X-3533491Y+2000961D01*
X-3438060Y+1905530D01*
X-3507911Y+1835679D01*
X-4029633Y+1835679D01*
X-4795633Y+2601679D01*
X-5320261Y+2601679D01*
X-5320261Y+2614379D01*
X-5391251Y+2614379D01*
X-5391251Y+2915051D01*
X-5315051Y+2915051D01*
X-5315051Y+3384949D01*
X-5784949Y+3384949D01*
X-5784949Y+2915051D01*
X-5708749Y+2915051D01*
X-5708749Y+2614379D01*
X-5815559Y+2614379D01*
X-5815559Y+2601679D01*
X-5866187Y+2601679D01*
X-6082261Y+2385605D01*
X-6082261Y+2404753D01*
X-5871761Y+2615253D01*
X-5871761Y+3539332D01*
X-5846361Y+3564732D01*
X-5846361Y+3738328D01*
X-5969112Y+3861079D01*
X-6142708Y+3861079D01*
X-6265459Y+3738328D01*
X-6265459Y+3564732D01*
X-6240059Y+3539332D01*
X-6240059Y+2767807D01*
X-6393487Y+2614379D01*
X-6577559Y+2614379D01*
X-6577559Y+2601678D01*
X-6616188Y+2601678D01*
X-7043287Y+2174579D01*
X-7066357Y+2174579D01*
X-6314049Y+2926887D01*
X-6314049Y+4056206D01*
X-6409373Y+4151530D01*
X-6139161Y+4421742D01*
X-6139161Y+4454681D01*
X-5905408Y+4454681D01*
X-5892708Y+4441981D01*
G37*
G36*
X-5892708Y+4441981D02*
X-5874747Y+4441981D01*
X-3827425Y+2394659D01*
X-4016273Y+2394659D01*
X-4815051Y+3193437D01*
X-4815051Y+3247319D01*
X-4952681Y+3384949D01*
X-5147319Y+3384949D01*
X-5284949Y+3247319D01*
X-5284949Y+3052681D01*
X-5147319Y+2915051D01*
X-5093437Y+2915051D01*
X-4179347Y+2000961D01*
X-3533491Y+2000961D01*
X-3438060Y+1905530D01*
X-3507911Y+1835679D01*
X-4029633Y+1835679D01*
X-4795633Y+2601679D01*
X-5320261Y+2601679D01*
X-5320261Y+2614379D01*
X-5391251Y+2614379D01*
X-5391251Y+2915051D01*
X-5315051Y+2915051D01*
X-5315051Y+3384949D01*
X-5784949Y+3384949D01*
X-5784949Y+2915051D01*
X-5708749Y+2915051D01*
X-5708749Y+2614379D01*
X-5815559Y+2614379D01*
X-5815559Y+2601679D01*
X-5866187Y+2601679D01*
X-6082261Y+2385605D01*
X-6082261Y+2404753D01*
X-5871761Y+2615253D01*
X-5871761Y+3539332D01*
X-5846361Y+3564732D01*
X-5846361Y+3738328D01*
X-5969112Y+3861079D01*
X-6142708Y+3861079D01*
X-6265459Y+3738328D01*
X-6265459Y+3564732D01*
X-6240059Y+3539332D01*
X-6240059Y+2767807D01*
X-6393487Y+2614379D01*
X-6577559Y+2614379D01*
X-6577559Y+2601678D01*
X-6616188Y+2601678D01*
X-7043287Y+2174579D01*
X-7066357Y+2174579D01*
X-6314049Y+2926887D01*
X-6314049Y+4056206D01*
X-6409373Y+4151530D01*
X-6139161Y+4421742D01*
X-6139161Y+4454681D01*
X-5905408Y+4454681D01*
X-5892708Y+4441981D01*
G37*
G36*
X-11474859Y+2626053D02*
X-11474859Y+2554211D01*
X-11337229Y+2416581D01*
X-11243845Y+2416581D01*
X-11326277Y+2334149D01*
X-11622326Y+2334149D01*
X-11622326Y+2459505D01*
X-11737637Y+2574816D01*
X-11791520Y+2574816D01*
X-11868234Y+2651530D01*
X-11500336Y+2651530D01*
X-11474859Y+2626053D01*
G37*
G36*
X-11474859Y+2626053D02*
X-11474859Y+2554211D01*
X-11337229Y+2416581D01*
X-11243845Y+2416581D01*
X-11326277Y+2334149D01*
X-11622326Y+2334149D01*
X-11622326Y+2459505D01*
X-11737637Y+2574816D01*
X-11791520Y+2574816D01*
X-11868234Y+2651530D01*
X-11500336Y+2651530D01*
X-11474859Y+2626053D01*
G37*
G36*
X-12016024Y+2350312D02*
X-12016024Y+2334149D01*
X-12052379Y+2334149D01*
X-12142809Y+2424579D01*
X-12150593Y+2424579D01*
X-12120442Y+2454730D01*
X-12016024Y+2350312D01*
G37*
G36*
X-12016024Y+2350312D02*
X-12016024Y+2334149D01*
X-12052379Y+2334149D01*
X-12142809Y+2424579D01*
X-12150593Y+2424579D01*
X-12120442Y+2454730D01*
X-12016024Y+2350312D01*
G37*
G36*
X-9006759Y+2289925D02*
X-8845890Y+2129056D01*
X-9104003Y+2296948D01*
X-9206530Y+2366865D01*
X-9006759Y+2366865D01*
X-9006759Y+2289925D01*
G37*
G36*
X-9006759Y+2289925D02*
X-8845890Y+2129056D01*
X-9104003Y+2296948D01*
X-9206530Y+2366865D01*
X-9006759Y+2366865D01*
X-9006759Y+2289925D01*
G37*
G36*
X-10722659Y+2301845D02*
X-11115755Y+1908749D01*
X-11706569Y+1908749D01*
X-11731472Y+1933652D01*
X-11894548Y+1933652D01*
X-12009859Y+1818341D01*
X-12009859Y+1783629D01*
X-12123760Y+1897530D01*
X-12055439Y+1965851D01*
X-11173723Y+1965851D01*
X-10722659Y+2416915D01*
X-10722659Y+2301845D01*
G37*
G36*
X-10722659Y+2301845D02*
X-11115755Y+1908749D01*
X-11706569Y+1908749D01*
X-11731472Y+1933652D01*
X-11894548Y+1933652D01*
X-12009859Y+1818341D01*
X-12009859Y+1783629D01*
X-12123760Y+1897530D01*
X-12055439Y+1965851D01*
X-11173723Y+1965851D01*
X-10722659Y+2416915D01*
X-10722659Y+2301845D01*
G37*
G36*
X-9543845Y+2611079D02*
X-9642708Y+2611079D01*
X-9765459Y+2488328D01*
X-9765459Y+2314732D01*
X-9642708Y+2191981D01*
X-9543567Y+2191981D01*
X-9257817Y+2006112D01*
X-9028159Y+1849500D01*
X-9028159Y+1679281D01*
X-8329661Y+1679281D01*
X-8329661Y+1742781D01*
X-7791311Y+1742781D01*
X-7677011Y+1628481D01*
X-7450809Y+1628481D01*
X-7309910Y+1769380D01*
X-7169011Y+1628481D01*
X-6942809Y+1628481D01*
X-6782861Y+1788429D01*
X-6782861Y+1914153D01*
X-6577559Y+2119455D01*
X-6577559Y+1712681D01*
X-6488659Y+1712681D01*
X-6488659Y+1589774D01*
X-6483034Y+1584149D01*
X-9478104Y+1584149D01*
X-10125761Y+2231806D01*
X-10125761Y+2679281D01*
X-9833661Y+2679281D01*
X-9833661Y+2900895D01*
X-9543845Y+2611079D01*
G37*
G36*
X-9543845Y+2611079D02*
X-9642708Y+2611079D01*
X-9765459Y+2488328D01*
X-9765459Y+2314732D01*
X-9642708Y+2191981D01*
X-9543567Y+2191981D01*
X-9257817Y+2006112D01*
X-9028159Y+1849500D01*
X-9028159Y+1679281D01*
X-8329661Y+1679281D01*
X-8329661Y+1742781D01*
X-7791311Y+1742781D01*
X-7677011Y+1628481D01*
X-7450809Y+1628481D01*
X-7309910Y+1769380D01*
X-7169011Y+1628481D01*
X-6942809Y+1628481D01*
X-6782861Y+1788429D01*
X-6782861Y+1914153D01*
X-6577559Y+2119455D01*
X-6577559Y+1712681D01*
X-6488659Y+1712681D01*
X-6488659Y+1589774D01*
X-6483034Y+1584149D01*
X-9478104Y+1584149D01*
X-10125761Y+2231806D01*
X-10125761Y+2679281D01*
X-9833661Y+2679281D01*
X-9833661Y+2900895D01*
X-9543845Y+2611079D01*
G37*
G36*
X-12468759Y+4348379D02*
X-12537447Y+4348379D01*
X-12852759Y+4033067D01*
X-12852759Y+3519993D01*
X-12558494Y+3225728D01*
X-12990059Y+2794163D01*
X-12990059Y+1807347D01*
X-12642093Y+1459381D01*
X-12457911Y+1459381D01*
X-12405910Y+1407380D01*
X-12405910Y+1282340D01*
X-13025100Y+1282340D01*
X-13025100Y+4501530D01*
X-12468759Y+4501530D01*
X-12468759Y+4348379D01*
G37*
G36*
X-12405910Y+3892358D02*
X-12459061Y+3839207D01*
X-12459061Y+3869993D01*
X-12405910Y+3923144D01*
X-12405910Y+3892358D01*
G37*
G36*
X-12405910Y+2833798D02*
X-12490859Y+2748849D01*
X-12490859Y+2554211D01*
X-12405910Y+2469262D01*
X-12405910Y+2387680D01*
X-12528959Y+2264631D01*
X-12528959Y+2038429D01*
X-12405910Y+1915380D01*
X-12405910Y+1879680D01*
X-12457911Y+1827679D01*
X-12489539Y+1827679D01*
X-12621761Y+1959901D01*
X-12621761Y+2641609D01*
X-12405910Y+2857460D01*
X-12405910Y+2833798D01*
G37*
D10*
X-9794910Y+7812530D02*
X-10134660Y+8152280D01*
X-10404660Y+8152280D01*
X-10564910Y+8312530D01*
X-9055910Y+5151530D02*
X-8539910Y+5151530D01*
X-8039910Y+5651530D01*
D11*
X-6055910Y+5151530D02*
X-6055910Y+4942730D01*
X-6010510Y+4897330D01*
X-5553310Y+4897330D02*
X-6010510Y+4897330D01*
X-9817910Y+5151530D02*
X-9817910Y+4922731D01*
X-9563909Y+4668730D01*
X-9563910Y+4389530D01*
X-5553310Y+4897330D02*
X-5144810Y+4897330D01*
X-5055910Y+4986230D01*
X-5055910Y+5151530D01*
X-8555910Y+4151530D02*
X-8805910Y+3901530D01*
X-9039910Y+3901530D01*
X-9309910Y+4389530D02*
X-9309909Y+4171529D01*
X-9039910Y+3901530D01*
X-3294910Y+9312530D02*
X-4294910Y+9312530D01*
X-5294910Y+9312530D02*
X-4294910Y+9312530D01*
X-9563909Y+4389530D02*
X-9563910Y+4389530D01*
X-9309910Y+4389530D01*
X-9309909Y+4389530D01*
X-6010510Y+4651530D02*
X-5805910Y+4651530D01*
X-11072910Y+8312530D02*
X-11072910Y+8074530D01*
X-10810910Y+7812530D01*
D10*
X-4737910Y+5651530D02*
X-4737910Y+5341530D01*
X-4547910Y+5151530D01*
X-5028910Y+8312530D02*
X-5294910Y+8578530D01*
X-5294910Y+8804530D01*
X-4399310Y+8639730D02*
X-4399310Y+8715630D01*
X-4310410Y+8804530D01*
X-4294910Y+8804530D01*
X-4399310Y+8639730D02*
X-4528910Y+8510130D01*
X-4528910Y+8062530D01*
X-9817909Y+4389530D02*
X-9817910Y+4389530D01*
X-9309910Y+5151530D02*
X-9309910Y+5075130D01*
X-9208310Y+4973530D01*
X-7955910Y+4973530D01*
X-7277910Y+5651530D01*
X-5499910Y+5651530D02*
X-4755510Y+6395930D01*
X-3876910Y+6395930D01*
X-3867310Y+6405530D01*
X-3305910Y+6405530D01*
X-6805910Y+4151530D02*
X-6805910Y+4651530D01*
D11*
X-5294910Y+9312530D02*
X-6294910Y+9312530D01*
D10*
X-8551910Y+1901530D02*
X-7563910Y+1901530D01*
X-10555910Y+3401530D02*
X-10555910Y+2909530D01*
X-10563910Y+2901530D01*
D12*
X-8829910Y+2881530D02*
X-8809910Y+2901530D01*
D11*
X-8829910Y+2881530D02*
X-8829910Y+2901530D01*
X-8809910Y+2901530D01*
D12*
X-8555910Y+4151530D02*
X-8230910Y+4151530D01*
X-8055910Y+4326530D01*
X-7055910Y+1901530D02*
X-6539910Y+2417530D01*
X-6329910Y+2417530D01*
X-7304694Y+3851741D02*
X-7589699Y+3851741D01*
X-7789910Y+3651530D01*
X-8555910Y+4659530D02*
X-8112483Y+4659530D01*
X-7929483Y+4476530D01*
D26*
X-8055910Y+4476530D02*
X-7929483Y+4476530D01*
X-7304694Y+3851741D01*
D10*
X-7023910Y+5651530D02*
X-7412710Y+6040330D01*
X-9515710Y+6040330D01*
X-5245910Y+5461530D02*
X-5245910Y+5508567D01*
X-5245910Y+5651530D01*
X-5245910Y+5461530D02*
X-5245910Y+5453530D01*
X-5547910Y+5151530D01*
X-4028910Y+7812530D02*
X-4017910Y+7801530D01*
D11*
X-6769910Y+7175530D02*
X-6824263Y+7229883D01*
D10*
X-10393245Y+6040330D02*
X-9515710Y+6040330D01*
D12*
X-10563910Y+2901530D02*
X-10563910Y+3373330D01*
X-10563910Y+3393530D01*
X-10811110Y+3640730D01*
D10*
X-10563910Y+3373330D02*
X-10811110Y+3620530D01*
X-10811110Y+3640730D01*
D26*
X-10055910Y+3901530D02*
X-9817909Y+4139531D01*
X-9817909Y+4389529D01*
X-9817910Y+4389530D01*
X-10043910Y+4389530D01*
X-10305910Y+4651530D01*
D10*
X-9817910Y+4389530D02*
X-9817909Y+4389529D01*
X-10043910Y+4389530D01*
X-9817910Y+4389530D02*
X-9817909Y+4389529D01*
X-9817909Y+4139531D01*
X-7078860Y+7838661D02*
X-7094910Y+7838661D01*
X-7551041Y+7838661D01*
X-8024910Y+8312530D01*
X-7067541Y+7541906D02*
X-8707627Y+7541906D01*
X-8894910Y+7762530D01*
X-9772614Y+8031800D02*
X-10053344Y+8312530D01*
X-10056910Y+8312530D01*
X-6948202Y+7697551D02*
X-7679931Y+7697551D01*
X-8009120Y+8026740D01*
X-8050280Y+8026740D01*
X-8794910Y+8062530D02*
X-8544910Y+8312530D01*
X-8532910Y+8312530D01*
D12*
X-5567910Y+2417530D02*
X-4871910Y+2417530D01*
X-4105910Y+1651530D01*
X-3305910Y+1651530D01*
X-6329910Y+2417530D02*
X-6055910Y+2691530D01*
X-6055910Y+3651530D01*
X-12255910Y+1643530D02*
X-12565816Y+1643530D01*
X-12805910Y+1883624D01*
X-12805910Y+2717886D01*
X-12372266Y+3151530D01*
X-12255910Y+3151530D01*
D11*
X-11239910Y+3151530D02*
X-11783224Y+3151530D01*
X-11874283Y+3242589D01*
X-12051492Y+3419798D01*
X-12474178Y+3419798D01*
X-12655910Y+3601530D01*
X-12655910Y+3951530D01*
X-12455910Y+4151530D01*
X-12271910Y+4151530D01*
D12*
X-10555910Y+4417530D02*
X-10789910Y+4651530D01*
X-11321910Y+4651530D01*
X-10811110Y+3640730D02*
X-10821910Y+3651530D01*
X-11055910Y+3651530D01*
X-11250000Y+3700000D02*
X-11200000Y+3700000D01*
X-10309910Y+2901530D02*
X-10309910Y+4171530D01*
X-10555910Y+4417530D01*
D26*
X-10055910Y+2901530D02*
X-10055910Y+3901530D01*
D10*
X-9944910Y+8812530D02*
X-8016910Y+8812530D01*
X-7516910Y+8312530D01*
X-10818910Y+8312530D02*
X-10794909Y+8312530D01*
X-10594910Y+8112531D01*
X-10594910Y+7762530D01*
X-10794910Y+7562530D01*
D11*
X-6769910Y+5651530D02*
X-6805910Y+5615530D01*
X-6805910Y+4651530D01*
X-6769910Y+5651530D02*
X-6769910Y+6021093D01*
X-6769910Y+6021094D01*
X-6778128Y+6029312D01*
X-6769910Y+5651530D02*
X-6769910Y+6021094D01*
X-6769910Y+6021093D01*
X-6778128Y+6029312D01*
X-6779422Y+6861107D02*
X-6622770Y+6861107D01*
X-6505281Y+6978596D01*
X-6505281Y+7164901D01*
X-6515910Y+7175530D01*
X-7023910Y+7175530D02*
X-7023910Y+6993701D01*
X-6891316Y+6861107D01*
X-6779422Y+6861107D01*
X-6010510Y+4651530D02*
X-6055910Y+4651530D01*
X-6055910Y+4897330D01*
X-6010510Y+4897330D01*
X-6055910Y+4651530D02*
X-6297910Y+4651530D01*
D10*
X-5247910Y+4601530D02*
X-5297910Y+4651530D01*
D11*
X-8551910Y+1901530D02*
X-8551910Y+2113462D01*
X-8809910Y+2371462D01*
X-8809910Y+2576320D01*
X-8809910Y+2901530D01*
D12*
X-9555910Y+3417530D02*
X-9063910Y+2925530D01*
D11*
X-9063910Y+2901530D02*
X-9063910Y+2925530D01*
D10*
X-9555910Y+2401530D02*
X-8805910Y+1901530D01*
D12*
X-9063910Y+2925530D02*
X-9063910Y+3007375D01*
D10*
X-8797704Y+3273581D01*
X-7056711Y+3273581D01*
X-6809930Y+3520362D01*
X-6809930Y+4099030D01*
X-6805910Y+4151530D01*
D11*
X-9039910Y+3901530D02*
X-9605910Y+3901530D01*
X-9805910Y+3701530D01*
X-9805910Y+3151530D01*
X-9218094Y+2563714D01*
X-8822516Y+2563714D01*
X-8809910Y+2576320D01*
D10*
X-6769910Y+7175530D02*
X-6758910Y+7175530D01*
X-6758910Y+7808530D01*
X-7262910Y+8312530D01*
X-6007910Y+7175530D02*
X-5996910Y+7175530D01*
X-5996910Y+7812431D01*
X-6028367Y+7843888D01*
X-4737910Y+7175530D02*
X-4737910Y+7336530D01*
X-4726910Y+7336530D01*
X-4932286Y+7541906D01*
X-5475383Y+7541906D01*
X-5499910Y+7175530D02*
X-5499910Y+7336530D01*
X-5488910Y+7336530D01*
X-5840219Y+7687839D01*
X-5840219Y+7692325D01*
D11*
X-11016000Y+7150000D02*
X-11016000Y+7200000D01*
D10*
X-4017910Y+7801530D02*
X-3955910Y+7801530D01*
X-3865910Y+7801530D01*
X-3705910Y+7801530D01*
X-3355910Y+7451530D01*
X-3355910Y+7101530D01*
X-3555910Y+6901530D01*
X-3555910Y+5901530D02*
X-3555910Y+5051529D01*
X-3755909Y+4851530D01*
X-4247910Y+4851530D01*
X-4547910Y+5151530D01*
X-4017910Y+7801530D02*
X-3957910Y+7849530D01*
X-3294910Y+8512530D01*
X-3294910Y+8804530D01*
X-5028910Y+8312530D02*
X-4218323Y+7501943D01*
X-4206324Y+7501943D01*
X-3955910Y+7251529D01*
X-3955910Y+6917609D01*
X-3951805Y+6917609D01*
X-3943966Y+5859277D02*
X-3943966Y+5694646D01*
X-4237082Y+5401530D01*
X-4305910Y+5401530D01*
X-5305910Y+5401530D02*
X-5245910Y+5461530D01*
D11*
X-6044910Y+8312530D02*
X-5544910Y+8062530D01*
D10*
X-10310910Y+8312530D02*
X-10294910Y+8328530D01*
X-10294910Y+8762531D01*
X-10044911Y+9012530D01*
X-7127776Y+9012530D01*
X-6666776Y+8551530D01*
X-5498376Y+8551530D01*
X-4472910Y+7526064D01*
X-4472910Y+7175530D01*
X-4483910Y+7175530D01*
D11*
X-5544910Y+8062530D02*
X-5044910Y+7812530D01*
D10*
X-4528910Y+8062530D02*
X-3747873Y+7281493D01*
X-3747873Y+6904986D01*
X-3758873Y+6904986D01*
X-3751034Y+5878012D02*
X-3751034Y+5344926D01*
X-3743194Y+5337086D01*
X-3774552Y+4286592D02*
X-3959614Y+4101530D01*
X-4747910Y+4101530D01*
X-5247910Y+4601530D01*
X-4991910Y+5651530D02*
X-4991910Y+5430730D01*
X-4805910Y+5201530D01*
X-4805910Y+4801530D01*
X-5005910Y+4601530D01*
X-5247910Y+4601530D01*
D12*
X-8555910Y+2901530D02*
X-8405910Y+2751530D01*
X-7524641Y+2751530D01*
X-7311413Y+2964758D01*
D10*
X-7563910Y+1901530D02*
X-6472798Y+2992642D01*
X-6472798Y+3990451D01*
X-6633877Y+4151530D01*
X-6651890Y+4151530D01*
X-6655910Y+4151530D01*
D11*
X-6055910Y+5151530D02*
X-6555910Y+5151530D01*
X-6515910Y+5651530D02*
X-6515910Y+5191530D01*
X-6555910Y+5151530D01*
D10*
X-7023910Y+5651530D02*
X-7055910Y+5619530D01*
X-7055910Y+5398730D01*
X-7063910Y+5390730D01*
X-7063910Y+5151530D01*
X-7262910Y+8312530D02*
X-7262910Y+8625117D01*
X-7267579Y+8629786D01*
X-7262804Y+9393695D02*
X-7256499Y+9400000D01*
X-6382380Y+9400000D01*
X-6294910Y+9312530D01*
X-6297910Y+4651530D02*
X-6297910Y+4487497D01*
X-6603410Y+4181997D01*
X-6655910Y+4151530D01*
X-8278910Y+8312530D02*
X-8678910Y+7912530D01*
X-9165110Y+7912530D01*
X-9276110Y+7801530D01*
X-9276110Y+6982730D01*
X-8943380Y+6650000D01*
X-6150000Y+6650000D01*
X-5753910Y+7046090D01*
X-5753910Y+7175530D01*
D11*
X-6044910Y+8312530D02*
X-6187470Y+8312530D01*
X-6504910Y+7995090D01*
X-6504910Y+7175530D01*
X-6515910Y+7175530D01*
D10*
X-6261910Y+7175530D02*
X-6250910Y+7175530D01*
X-6250910Y+7819946D01*
X-6150000Y+7984999D01*
X-7250000Y+7984999D02*
X-7443379Y+7984999D01*
X-7770910Y+8312530D01*
X-3305910Y+6151530D02*
X-3100000Y+6357440D01*
X-3100000Y+6549999D01*
X-3250001Y+6700000D01*
X-4705440Y+6700000D01*
X-5753910Y+5651530D01*
D27*
X-3305910Y+5897530D02*
X-3152470Y+5897530D01*
D11*
X-2894910Y+6155090D01*
X-2894910Y+8912530D01*
X-3294910Y+9312530D01*
X-3152470Y+5897530D02*
X-2950000Y+5750000D01*
X-2950000Y+2159530D01*
X-3305910Y+2159530D01*
D12*
X-12255910Y+3151530D02*
X-11940059Y+2835679D01*
X-11424059Y+2835679D01*
X-11239910Y+2651530D01*
X-11255910Y+4151530D02*
X-11255910Y+4200000D01*
X-11800000Y+4200000D01*
X-12185700Y+3814300D01*
X-12266000Y+3700000D01*
X-11055910Y+3651530D02*
X-11055910Y+3700000D01*
X-11157440Y+3700000D01*
X-11200000Y+3700000D01*
X-11205910Y+3651530D02*
X-11157440Y+3700000D01*
X-11200000Y+3700000D02*
X-10855910Y+4044090D01*
X-10850000Y+4050000D01*
X-10850000Y+4255379D01*
X-11046151Y+4451530D01*
X-11052061Y+4451530D01*
X-11157440Y+3700000D02*
X-10855910Y+4001530D01*
X-10855910Y+4044090D01*
X-10855910Y+4255379D01*
X-11052061Y+4451530D01*
X-12255910Y+2151530D02*
X-12254380Y+2150000D01*
X-11250000Y+2150000D01*
X-10905910Y+2494090D01*
X-10905910Y+3200001D01*
X-11155909Y+3450000D01*
X-11490600Y+3450000D01*
X-11740600Y+3700000D01*
X-12266000Y+3700000D01*
X-11052061Y+4451530D02*
X-11053591Y+4450000D01*
X-11804380Y+4450000D01*
X-12005910Y+4651530D01*
D10*
X-10563910Y+2901530D02*
X-10563910Y+2236090D01*
X-11050000Y+1750000D01*
X-11799813Y+1750000D01*
X-11813010Y+1736803D01*
X-11819175Y+2377967D02*
X-12092738Y+2651530D01*
X-12255910Y+2651530D01*
X-9563910Y+5151530D02*
X-9563910Y+5735530D01*
X-9411510Y+5887930D01*
X-7887930Y+5887930D01*
X-7785910Y+5785910D01*
X-7785910Y+5651530D01*
X-10000000Y+7150000D02*
X-10115999Y+7150000D01*
X-10616000Y+6649999D01*
X-10616000Y+6052995D01*
X-10603335Y+6040330D01*
X-10393245Y+6040330D01*
D11*
X-10967530Y+7151530D02*
X-11016000Y+7200000D01*
X-11064470Y+7151530D01*
X-11066000Y+7150000D01*
X-11105910Y+7150000D01*
X-11409710Y+7453800D01*
X-11409710Y+7455330D01*
X-11409710Y+8563530D01*
X-11160710Y+8812530D01*
X-10960910Y+8812530D01*
X-10967530Y+7151530D02*
X-11064470Y+7151530D01*
X-11105910Y+7151530D01*
X-11409710Y+7455330D01*
D26*
X-9778910Y+7561000D02*
X-9778910Y+7562530D01*
D11*
X-9778910Y+7561000D02*
X-10248200Y+7561000D01*
X-10659200Y+7150000D01*
X-10966000Y+7150000D01*
X-10967530Y+7151530D01*
D10*
X-9926360Y+6583132D02*
X-9928340Y+6468743D01*
X-9928340Y+6283127D01*
X-9346257Y+5436460D02*
X-8711256Y+5436460D01*
X-8623062Y+5348266D01*
X-7414799Y+5198335D02*
X-7071910Y+4855446D01*
X-7071910Y+3651530D01*
X-9055910Y+7175530D02*
X-9044910Y+7175530D01*
X-9070058Y+7200678D01*
X-9070058Y+7612530D01*
X-9926360Y+6583132D02*
X-10014884Y+6591748D01*
X-10015459Y+6592323D01*
X-10015459Y+6900000D01*
D26*
X-6778128Y+6029312D02*
X-7000347Y+6251530D01*
X-9244910Y+6251530D01*
X-9700000Y+6706620D01*
X-9700000Y+7262235D01*
X-9706117Y+7256118D01*
X-9778917Y+7328918D01*
X-9778910Y+7561000D01*
D10*
X-9802910Y+8312530D02*
X-9473542Y+7983162D01*
X-9473542Y+6780162D01*
X-9190910Y+6497530D01*
X-5669910Y+6497530D01*
X-4991910Y+7175530D01*
X-11751238Y+4838174D02*
X-11937882Y+4651530D01*
X-12005910Y+4651530D01*
D12*
X-10739130Y+4864093D02*
X-10523063Y+4868683D01*
X-10108463Y+4868683D01*
X-9185221Y+3642028D02*
X-8815412Y+3642028D01*
X-8805910Y+3651530D01*
D11*
X-12271910Y+4151530D02*
X-12271910Y+4735530D01*
X-12101910Y+4905530D01*
D10*
X-12050000Y+5800000D02*
X-11708091Y+5458091D01*
X-11708091Y+4931321D01*
X-11801238Y+4838174D01*
X-11751238Y+4838174D01*
D11*
X-12050000Y+6300000D02*
X-12300000Y+6050000D01*
X-12300000Y+5149620D01*
X-12055910Y+4905530D01*
X-12101910Y+4905530D01*
X-12055910Y+4905530D02*
X-12005910Y+4905530D01*
X-12050000Y+6300000D02*
X-11897534Y+6300000D01*
X-11319424Y+5721890D01*
X-11097534Y+5500000D01*
X-10150000Y+5500000D01*
X-9817910Y+5167910D01*
X-9817910Y+5151530D01*
X-12050000Y+6300000D02*
X-12300000Y+6550000D01*
X-12300000Y+7350000D01*
X-11717586Y+7346575D02*
X-11717586Y+7197773D01*
X-11419813Y+6900000D01*
X-11031459Y+6900000D01*
X-11717586Y+7197773D02*
X-11718579Y+7198766D01*
X-11718579Y+8778970D01*
X-11335019Y+9162530D01*
X-10894910Y+9162530D01*
X-10694910Y+8962530D01*
X-10694910Y+8712530D01*
X-11072910Y+8334530D01*
X-11072910Y+8312530D01*
X-5050000Y+3150000D02*
X-4097810Y+2197810D01*
X-3458310Y+2197810D01*
X-3316593Y+2162213D01*
X-3305910Y+2159530D01*
X-5805910Y+4651530D02*
X-3316593Y+2162213D01*
X-3313910Y+2159530D01*
X-3305910Y+2159530D01*
D10*
X-5550000Y+3150000D02*
X-5550000Y+2435440D01*
X-5567910Y+2417530D01*
D12*
X-5789910Y+2417530D01*
X-5955910Y+2251530D01*
X-5955910Y+1701530D01*
X-6257440Y+1400000D01*
X-9554381Y+1400000D01*
X-10309910Y+2155529D01*
X-10309910Y+2901530D01*
D10*
X-6294910Y+8804530D02*
X-6590985Y+8804530D01*
X-6998985Y+9212530D01*
X-10112530Y+9212530D01*
X-10350000Y+9450000D01*
X-11507440Y+9450000D01*
X-12044910Y+8912530D01*
X-12044910Y+6968732D01*
X-11116508Y+6040330D01*
X-10603335Y+6040330D01*
D13*
X-7078860Y+7838661D03*
D14*
X-7094910Y+7838661D03*
X-6028367Y+7843888D03*
X-5475383Y+7541906D03*
X-7067541Y+7541906D03*
X-8894910Y+7762530D03*
X-9772614Y+8031800D03*
X-5840219Y+7692325D03*
X-6948202Y+7697551D03*
X-8050280Y+8026740D03*
X-8794910Y+8062530D03*
D13*
X-10393245Y+6040330D03*
D14*
X-6779422Y+6861107D03*
X-3555910Y+6901530D03*
X-3555910Y+5901530D03*
X-3951805Y+6917609D03*
X-3943966Y+5859277D03*
X-4305910Y+5401530D03*
X-5305910Y+5401530D03*
X-3758873Y+6904986D03*
X-3758873Y+5885851D03*
D13*
X-3751034Y+5878012D03*
D14*
X-3751034Y+5344926D03*
D13*
X-3743194Y+5337086D03*
D14*
X-3774552Y+4286592D03*
X-7311413Y+2964758D03*
X-7304694Y+3851741D03*
X-7267579Y+8629786D03*
X-7262804Y+9393695D03*
X-6150000Y+7984999D03*
X-7250000Y+7984999D03*
X-11813010Y+1736803D03*
X-11819175Y+2377967D03*
D13*
X-9928340Y+6283127D03*
D14*
X-9928340Y+6274307D03*
X-9346257Y+5436460D03*
X-8623062Y+5348266D03*
X-7414799Y+5198335D03*
X-9070058Y+7612530D03*
X-9926360Y+6583132D03*
X-6778128Y+6029312D03*
X-11751238Y+4838174D03*
X-10739130Y+4864093D03*
X-10108463Y+4868683D03*
X-9185221Y+3642028D03*
D13*
X-11717586Y+7346575D03*
D14*
X-12300000Y+7350000D03*
X-11721011Y+7350000D03*
D28*
X-7459653Y+9475233D02*
X-7459653Y+9371279D01*
X-10046775Y+9371279D01*
X-10246216Y+9570720D01*
X-7364166Y+9570720D01*
X-7459653Y+9475233D01*
X-12157162Y+9024782D02*
X-12203659Y+8978285D01*
X-12203659Y+7532046D01*
X-12218462Y+7546849D01*
X-12381538Y+7546849D01*
X-12405910Y+7522477D01*
X-12405910Y+9570720D01*
X-11611224Y+9570720D01*
X-12157162Y+9024782D01*
X-12328386Y+6300000D02*
X-12405910Y+6222476D01*
X-12405910Y+6377524D01*
X-12328386Y+6300000D01*
X-12357296Y+4928530D02*
X-12405910Y+4879916D01*
X-12405910Y+4977144D01*
X-12357296Y+4928530D01*
X-10494059Y+2079252D02*
X-9697147Y+1282340D01*
X-12266210Y+1282340D01*
X-12266210Y+1370481D01*
X-12142809Y+1370481D01*
X-11982861Y+1530429D01*
X-11982861Y+1628267D01*
X-11894548Y+1539954D01*
X-11731472Y+1539954D01*
X-11680175Y+1591251D01*
X-10984245Y+1591251D01*
X-10494059Y+2081437D01*
X-10494059Y+2079252D01*
X-2436720Y+1282340D02*
X-6114674Y+1282340D01*
X-5815559Y+1581455D01*
X-5815559Y+1458681D01*
X-5320261Y+1458681D01*
X-5320261Y+2233381D01*
X-4948187Y+2233381D01*
X-4182187Y+1467381D01*
X-3507911Y+1467381D01*
X-3419011Y+1378481D01*
X-3192809Y+1378481D01*
X-3032861Y+1538429D01*
X-3032861Y+1764631D01*
X-3173760Y+1905530D01*
X-3116609Y+1962681D01*
X-2868463Y+1962681D01*
X-2753151Y+2077993D01*
X-2753151Y+5797186D01*
X-2795938Y+5881305D01*
X-2849110Y+5922504D01*
X-2698061Y+6073553D01*
X-2698061Y+8994067D01*
X-3085361Y+9381367D01*
X-3085361Y+9399328D01*
X-3208112Y+9522079D01*
X-3381708Y+9522079D01*
X-3394408Y+9509379D01*
X-4195412Y+9509379D01*
X-4208112Y+9522079D01*
X-4381708Y+9522079D01*
X-4394408Y+9509379D01*
X-5195412Y+9509379D01*
X-5208112Y+9522079D01*
X-5381708Y+9522079D01*
X-5394408Y+9509379D01*
X-6195412Y+9509379D01*
X-6208112Y+9522079D01*
X-6279955Y+9522079D01*
X-6316625Y+9558749D01*
X-7149471Y+9558749D01*
X-7161442Y+9570720D01*
X-2436720Y+9570720D01*
X-2436720Y+1282340D01*
X-10224782Y+9100278D02*
X-10203224Y+9078720D01*
X-10453659Y+8828286D01*
X-10453659Y+8479666D01*
X-10483372Y+8509379D01*
X-10619675Y+8509379D01*
X-10498061Y+8630993D01*
X-10498061Y+9044067D01*
X-10745245Y+9291251D01*
X-10415755Y+9291251D01*
X-10224782Y+9100278D01*
X-11212861Y+8472965D02*
X-11212861Y+8481993D01*
X-11079173Y+8615681D01*
X-11070145Y+8615681D01*
X-11212861Y+8472965D01*
X-10031708Y+8602981D02*
X-9858112Y+8602981D01*
X-9807312Y+8653781D01*
X-8082665Y+8653781D01*
X-7895356Y+8466472D01*
X-7897910Y+8463917D01*
X-7943372Y+8509379D01*
X-8106448Y+8509379D01*
X-8151910Y+8463917D01*
X-8197372Y+8509379D01*
X-8360448Y+8509379D01*
X-8405910Y+8463917D01*
X-8451372Y+8509379D01*
X-8614448Y+8509379D01*
X-8659910Y+8463917D01*
X-8705372Y+8509379D01*
X-8868448Y+8509379D01*
X-8913910Y+8463917D01*
X-8959372Y+8509379D01*
X-9122448Y+8509379D01*
X-9167910Y+8463917D01*
X-9213372Y+8509379D01*
X-9376448Y+8509379D01*
X-9421910Y+8463917D01*
X-9467372Y+8509379D01*
X-9630448Y+8509379D01*
X-9675910Y+8463917D01*
X-9721372Y+8509379D01*
X-9884448Y+8509379D01*
X-9929910Y+8463917D01*
X-9975372Y+8509379D01*
X-10136161Y+8509379D01*
X-10136161Y+8696776D01*
X-10130832Y+8702105D01*
X-10031708Y+8602981D01*
X-5393229Y+8221879D02*
X-5424780Y+8238747D01*
X-5458112Y+8272079D01*
X-5490715Y+8272079D01*
X-5710124Y+8373988D01*
X-5745277Y+8392781D01*
X-5564131Y+8392781D01*
X-5393229Y+8221879D01*
X-7372515Y+8143748D02*
X-7377624Y+8143748D01*
X-7392464Y+8158588D01*
X-7389910Y+8161143D01*
X-7372515Y+8143748D01*
X-9122448Y+8115681D02*
X-8991759Y+8115681D01*
X-8991759Y+8071279D01*
X-9230865Y+8071279D01*
X-9314793Y+7987351D01*
X-9314793Y+8048917D01*
X-9424464Y+8158588D01*
X-9421910Y+8161143D01*
X-9376448Y+8115681D01*
X-9213372Y+8115681D01*
X-9167910Y+8161143D01*
X-9122448Y+8115681D01*
X-10753659Y+8046776D02*
X-10753659Y+8033665D01*
X-10835675Y+8115681D01*
X-10822564Y+8115681D01*
X-10753659Y+8046776D01*
X-6732531Y+8392781D02*
X-6385605Y+8392781D01*
X-6701759Y+8076627D01*
X-6701759Y+7975883D01*
X-7066061Y+8340185D01*
X-7066061Y+8394068D01*
X-7104161Y+8432168D01*
X-7104161Y+8514817D01*
X-7070730Y+8548248D01*
X-7070730Y+8711324D01*
X-7186041Y+8826635D01*
X-7349117Y+8826635D01*
X-7464428Y+8711324D01*
X-7464428Y+8548248D01*
X-7421659Y+8505479D01*
X-7421659Y+8495666D01*
X-7435372Y+8509379D01*
X-7489255Y+8509379D01*
X-7833657Y+8853781D01*
X-7193531Y+8853781D01*
X-6732531Y+8392781D01*
X-6504459Y+9225732D02*
X-6381708Y+9102981D01*
X-6208112Y+9102981D01*
X-6195412Y+9115681D01*
X-5394408Y+9115681D01*
X-5381708Y+9102981D01*
X-5208112Y+9102981D01*
X-5195412Y+9115681D01*
X-4394408Y+9115681D01*
X-4381708Y+9102981D01*
X-4208112Y+9102981D01*
X-4195412Y+9115681D01*
X-3394408Y+9115681D01*
X-3381708Y+9102981D01*
X-3363747Y+9102981D01*
X-3274845Y+9014079D01*
X-3381708Y+9014079D01*
X-3504459Y+8891328D01*
X-3504459Y+8717732D01*
X-3453659Y+8666932D01*
X-3453659Y+8578285D01*
X-4009865Y+8022079D01*
X-4115708Y+8022079D01*
X-4189832Y+7947956D01*
X-4319361Y+8077485D01*
X-4319361Y+8149328D01*
X-4370161Y+8200128D01*
X-4370161Y+8444375D01*
X-4333554Y+8480981D01*
X-4240561Y+8573974D01*
X-4240561Y+8594981D01*
X-4208112Y+8594981D01*
X-4085361Y+8717732D01*
X-4085361Y+8891328D01*
X-4208112Y+9014079D01*
X-4381708Y+9014079D01*
X-4504459Y+8891328D01*
X-4504459Y+8834985D01*
X-4558059Y+8781385D01*
X-4558059Y+8705485D01*
X-4687659Y+8575885D01*
X-4687659Y+8200128D01*
X-4689832Y+8197956D01*
X-4819361Y+8327485D01*
X-4819361Y+8399328D01*
X-4942112Y+8522079D01*
X-5013955Y+8522079D01*
X-5136161Y+8644285D01*
X-5136161Y+8666932D01*
X-5085361Y+8717732D01*
X-5085361Y+8891328D01*
X-5208112Y+9014079D01*
X-5381708Y+9014079D01*
X-5504459Y+8891328D01*
X-5504459Y+8717732D01*
X-5497006Y+8710279D01*
X-6092814Y+8710279D01*
X-6085361Y+8717732D01*
X-6085361Y+8891328D01*
X-6208112Y+9014079D01*
X-6381708Y+9014079D01*
X-6432508Y+8963279D01*
X-6525230Y+8963279D01*
X-6803202Y+9241251D01*
X-6504459Y+9241251D01*
X-6504459Y+9225732D01*
X-5879696Y+8001072D02*
X-5665040Y+7886313D01*
X-5631708Y+7852981D01*
X-5599105Y+7852981D01*
X-5379695Y+7751072D01*
X-5285391Y+7700655D01*
X-5355745Y+7700655D01*
X-5393845Y+7738755D01*
X-5556921Y+7738755D01*
X-5611776Y+7683900D01*
X-5643370Y+7715494D01*
X-5643370Y+7773863D01*
X-5758681Y+7889174D01*
X-5831518Y+7889174D01*
X-5831518Y+7925426D01*
X-5930988Y+8024896D01*
X-5879696Y+8001072D01*
X-8247129Y+8108278D02*
X-8247129Y+7945202D01*
X-8131818Y+7829891D01*
X-8036775Y+7829891D01*
X-7907539Y+7700655D01*
X-8632221Y+7700655D01*
X-8675485Y+7753781D01*
X-8613155Y+7753781D01*
X-8251255Y+8115681D01*
X-8239726Y+8115681D01*
X-8247129Y+8108278D01*
X-10004459Y+7797575D02*
X-10004459Y+7757849D01*
X-10329737Y+7757849D01*
X-10585361Y+7502225D01*
X-10585361Y+7547575D01*
X-10436161Y+7696775D01*
X-10436161Y+7993531D01*
X-10200415Y+7993531D01*
X-10004459Y+7797575D01*
X-5774663Y+7397779D02*
X-5838161Y+7397779D01*
X-5838161Y+7461277D01*
X-5774663Y+7397779D01*
X-8806029Y+7412523D02*
X-8774174Y+7397779D01*
X-8893969Y+7397779D01*
X-8911309Y+7380439D01*
X-8911309Y+7492892D01*
X-8892462Y+7511739D01*
X-8806029Y+7412523D01*
X-5118910Y+7362838D02*
X-5139229Y+7383157D01*
X-5098591Y+7383157D01*
X-5118910Y+7362838D01*
X-7404910Y+7362838D02*
X-7425229Y+7383157D01*
X-7384591Y+7383157D01*
X-7404910Y+7362838D01*
X-7658910Y+7362838D02*
X-7679229Y+7383157D01*
X-7638591Y+7383157D01*
X-7658910Y+7362838D01*
X-7912910Y+7362838D02*
X-7933229Y+7383157D01*
X-7892591Y+7383157D01*
X-7912910Y+7362838D01*
X-8166910Y+7362838D02*
X-8187229Y+7383157D01*
X-8146591Y+7383157D01*
X-8166910Y+7362838D01*
X-8420910Y+7362838D02*
X-8441229Y+7383157D01*
X-8400591Y+7383157D01*
X-8420910Y+7362838D01*
X-8674910Y+7362838D02*
X-8695229Y+7383157D01*
X-8654591Y+7383157D01*
X-8674910Y+7362838D01*
X-11020459Y+7743693D02*
X-11020459Y+7725732D01*
X-10974257Y+7679530D01*
X-11004459Y+7649328D01*
X-11004459Y+7475732D01*
X-10881708Y+7352981D01*
X-10734605Y+7352981D01*
X-10740737Y+7346849D01*
X-10884462Y+7346849D01*
X-10934462Y+7396849D01*
X-11072843Y+7396849D01*
X-11212861Y+7536867D01*
X-11212861Y+7936095D01*
X-11020459Y+7743693D01*
X-3514659Y+7385775D02*
X-3514659Y+7167285D01*
X-3583565Y+7098379D01*
X-3589124Y+7098379D01*
X-3589124Y+7347248D01*
X-3884657Y+7642781D01*
X-3771665Y+7642781D01*
X-3514659Y+7385775D01*
X-11331145Y+7096849D02*
X-11338276Y+7096849D01*
X-11520737Y+7279310D01*
X-11520737Y+7286441D01*
X-11331145Y+7096849D01*
X-4321969Y+6953281D02*
X-4148654Y+6953281D01*
X-4148654Y+6858749D01*
X-4771195Y+6858749D01*
X-5756165Y+5873779D01*
X-5845969Y+5873779D01*
X-5880910Y+5838838D01*
X-5915851Y+5873779D01*
X-6099969Y+5873779D01*
X-6134910Y+5838838D01*
X-6169851Y+5873779D01*
X-6353969Y+5873779D01*
X-6388910Y+5838838D01*
X-6423851Y+5873779D01*
X-6573061Y+5873779D01*
X-6573061Y+6102632D01*
X-6696590Y+6226161D01*
X-6732511Y+6226161D01*
X-6845133Y+6338781D01*
X-5604155Y+6338781D01*
X-4989655Y+6953281D01*
X-4899851Y+6953281D01*
X-4864910Y+6988222D01*
X-4829969Y+6953281D01*
X-4645851Y+6953281D01*
X-4610910Y+6988222D01*
X-4575969Y+6953281D01*
X-4391851Y+6953281D01*
X-4356910Y+6988222D01*
X-4321969Y+6953281D01*
X-7369969Y+6953281D02*
X-7220759Y+6953281D01*
X-7220759Y+6912164D01*
X-7117344Y+6808749D01*
X-8877625Y+6808749D01*
X-9022157Y+6953281D01*
X-8963851Y+6953281D01*
X-8928910Y+6988222D01*
X-8893969Y+6953281D01*
X-8709851Y+6953281D01*
X-8674910Y+6988222D01*
X-8639969Y+6953281D01*
X-8455851Y+6953281D01*
X-8420910Y+6988222D01*
X-8385969Y+6953281D01*
X-8201851Y+6953281D01*
X-8166910Y+6988222D01*
X-8131969Y+6953281D01*
X-7947851Y+6953281D01*
X-7912910Y+6988222D01*
X-7877969Y+6953281D01*
X-7693851Y+6953281D01*
X-7658910Y+6988222D01*
X-7623969Y+6953281D01*
X-7439851Y+6953281D01*
X-7404910Y+6988222D01*
X-7369969Y+6953281D01*
X-6099969Y+6953281D02*
X-6071223Y+6953281D01*
X-6215755Y+6808749D01*
X-6396742Y+6808749D01*
X-6308432Y+6897059D01*
X-6308432Y+6953281D01*
X-6169851Y+6953281D01*
X-6134910Y+6988222D01*
X-6099969Y+6953281D01*
X-3091759Y+6766262D02*
X-3184246Y+6858749D01*
X-3359061Y+6858749D01*
X-3359061Y+6873875D01*
X-3197161Y+7035775D01*
X-3197161Y+7517285D01*
X-3631406Y+7951530D01*
X-3136161Y+8446775D01*
X-3136161Y+8666932D01*
X-3091759Y+8711334D01*
X-3091759Y+6766262D01*
X-9950365Y+7359549D02*
X-10086798Y+7359549D01*
X-10137598Y+7308749D01*
X-10181754Y+7308749D01*
X-10774749Y+6715754D01*
X-10774749Y+6199079D01*
X-11050753Y+6199079D01*
X-11886161Y+7034487D01*
X-11886161Y+7087961D01*
X-11799123Y+7000924D01*
X-11501351Y+6703151D01*
X-11130957Y+6703151D01*
X-11118257Y+6690451D01*
X-10944661Y+6690451D01*
X-10821910Y+6813202D01*
X-10821910Y+6953151D01*
X-10577663Y+6953151D01*
X-10166663Y+7364151D01*
X-9950365Y+7364151D01*
X-9950365Y+7359549D01*
X-5591969Y+6953281D02*
X-5438663Y+6953281D01*
X-5735665Y+6656279D01*
X-5919217Y+6656279D01*
X-5607092Y+6968404D01*
X-5591969Y+6953281D01*
X-9434923Y+6199079D02*
X-9731491Y+6199079D01*
X-9731491Y+6355845D01*
X-9769591Y+6393945D01*
X-9769591Y+6461514D01*
X-9733474Y+6497630D01*
X-9434923Y+6199079D01*
X-10225008Y+6813202D02*
X-10174208Y+6762402D01*
X-10174208Y+6526568D01*
X-10087089Y+6439449D01*
X-10087089Y+6393945D01*
X-10125189Y+6355845D01*
X-10125189Y+6199079D01*
X-10457251Y+6199079D01*
X-10457251Y+6584244D01*
X-10225008Y+6816487D01*
X-10225008Y+6813202D01*
X-3502759Y+6233068D02*
X-3502759Y+6098379D01*
X-3637448Y+6098379D01*
X-3665231Y+6070596D01*
X-3677335Y+6082700D01*
X-3840411Y+6082700D01*
X-3866985Y+6056126D01*
X-4025504Y+6056126D01*
X-4140815Y+5940815D01*
X-4140815Y+5873779D01*
X-4321969Y+5873779D01*
X-4356910Y+5838838D01*
X-4391851Y+5873779D01*
X-4575969Y+5873779D01*
X-4610910Y+5838838D01*
X-4645851Y+5873779D01*
X-4829969Y+5873779D01*
X-4864910Y+5838838D01*
X-4899851Y+5873779D01*
X-5053157Y+5873779D01*
X-4689755Y+6237181D01*
X-3811155Y+6237181D01*
X-3801555Y+6246781D01*
X-3489046Y+6246781D01*
X-3502759Y+6233068D01*
X-11910869Y+6034949D02*
X-12036665Y+6034949D01*
X-12006563Y+6065051D01*
X-11952681Y+6065051D01*
X-11946826Y+6070906D01*
X-11910869Y+6034949D01*
X-6974977Y+5983695D02*
X-6974977Y+5947774D01*
X-6966759Y+5939555D01*
X-6966759Y+5873779D01*
X-7021655Y+5873779D01*
X-7227957Y+6080081D01*
X-7071363Y+6080081D01*
X-6974977Y+5983695D01*
X-7470663Y+5873779D02*
X-7623969Y+5873779D01*
X-7636622Y+5861126D01*
X-7657077Y+5881581D01*
X-7478465Y+5881581D01*
X-7470663Y+5873779D01*
X-9271809Y+5633309D02*
X-9405161Y+5633309D01*
X-9405161Y+5669775D01*
X-9345755Y+5729181D01*
X-9271809Y+5729181D01*
X-9271809Y+5633309D01*
X-5591969Y+5429281D02*
X-5502759Y+5429281D01*
X-5502759Y+5421185D01*
X-5562865Y+5361079D01*
X-5634708Y+5361079D01*
X-5757459Y+5238328D01*
X-5757459Y+5094179D01*
X-5846361Y+5094179D01*
X-5846361Y+5238328D01*
X-5969112Y+5361079D01*
X-6142708Y+5361079D01*
X-6155408Y+5348379D01*
X-6319062Y+5348379D01*
X-6319062Y+5429281D01*
X-6169851Y+5429281D01*
X-6134910Y+5464222D01*
X-6099969Y+5429281D01*
X-5915851Y+5429281D01*
X-5880910Y+5464222D01*
X-5845969Y+5429281D01*
X-5661851Y+5429281D01*
X-5626910Y+5464222D01*
X-5591969Y+5429281D01*
X-11228760Y+5928078D02*
X-11182263Y+5881581D01*
X-9642363Y+5881581D01*
X-9722659Y+5801285D01*
X-9722659Y+5370587D01*
X-9725851Y+5373779D01*
X-9745393Y+5373779D01*
X-10068462Y+5696848D01*
X-11015996Y+5696848D01*
X-11815997Y+6496849D01*
X-11914581Y+6496849D01*
X-11952681Y+6534949D01*
X-12006563Y+6534949D01*
X-12103151Y+6631537D01*
X-12103151Y+6802469D01*
X-11228760Y+5928078D01*
X-4575969Y+5429281D02*
X-4502759Y+5429281D01*
X-4502759Y+5361079D01*
X-4532955Y+5361079D01*
X-4579161Y+5407285D01*
X-4579161Y+5432473D01*
X-4575969Y+5429281D01*
X-7222659Y+5289128D02*
X-7224932Y+5286855D01*
X-7321506Y+5383430D01*
X-7275655Y+5429281D01*
X-7222659Y+5429281D01*
X-7222659Y+5289128D01*
X-7877969Y+5429281D02*
X-7724663Y+5429281D01*
X-8021665Y+5132279D01*
X-8334657Y+5132279D01*
X-8037655Y+5429281D01*
X-7947851Y+5429281D01*
X-7912910Y+5464222D01*
X-7877969Y+5429281D01*
X-5265459Y+5094179D02*
X-5338361Y+5094179D01*
X-5338361Y+5136575D01*
X-5270255Y+5204681D01*
X-5265459Y+5204681D01*
X-5265459Y+5094179D01*
X-11866840Y+5392336D02*
X-11866840Y+5062807D01*
X-11919112Y+5115079D01*
X-11987073Y+5115079D01*
X-12103151Y+5231157D01*
X-12103151Y+5565051D01*
X-12039555Y+5565051D01*
X-11866840Y+5392336D01*
X-11458617Y+5582697D02*
X-11179072Y+5303152D01*
X-10231538Y+5303152D01*
X-10040159Y+5111773D01*
X-10040159Y+5065532D01*
X-10190001Y+5065532D01*
X-10202701Y+5052832D01*
X-10524992Y+5052832D01*
X-10647545Y+5050895D01*
X-10657592Y+5060942D01*
X-10820668Y+5060942D01*
X-10935979Y+4945631D01*
X-10935979Y+4835679D01*
X-11209712Y+4835679D01*
X-11235112Y+4861079D01*
X-11408708Y+4861079D01*
X-11531459Y+4738328D01*
X-11531459Y+4634149D01*
X-11728103Y+4634149D01*
X-11729431Y+4635477D01*
X-11723583Y+4641325D01*
X-11669700Y+4641325D01*
X-11554389Y+4756636D01*
X-11554389Y+4860519D01*
X-11549342Y+4865566D01*
X-11549342Y+5523846D01*
X-11815051Y+5789555D01*
X-11815051Y+5939131D01*
X-11458617Y+5582697D01*
X-3909783Y+5464564D02*
X-3947883Y+5426464D01*
X-3947883Y+5263388D01*
X-3832572Y+5148077D01*
X-3714659Y+5148077D01*
X-3714659Y+5117284D01*
X-3821664Y+5010279D01*
X-4182155Y+5010279D01*
X-4338361Y+5166485D01*
X-4338361Y+5204681D01*
X-4224372Y+5204681D01*
X-4186272Y+5242781D01*
X-4171327Y+5242781D01*
X-3909783Y+5504325D01*
X-3909783Y+5464564D01*
X-3392708Y+5687981D02*
X-3214562Y+5687981D01*
X-3146849Y+5643758D01*
X-3146849Y+2386619D01*
X-3192809Y+2432579D01*
X-3308573Y+2432579D01*
X-5317975Y+4441981D01*
X-5312865Y+4441981D01*
X-4813665Y+3942781D01*
X-3893859Y+3942781D01*
X-3746897Y+4089743D01*
X-3693014Y+4089743D01*
X-3577703Y+4205054D01*
X-3577703Y+4368130D01*
X-3693014Y+4483441D01*
X-3856090Y+4483441D01*
X-3971401Y+4368130D01*
X-3971401Y+4314247D01*
X-4025369Y+4260279D01*
X-4682155Y+4260279D01*
X-4902406Y+4480530D01*
X-4647161Y+4735775D01*
X-4647161Y+4954434D01*
X-4634708Y+4941981D01*
X-4562865Y+4941981D01*
X-4313665Y+4692781D01*
X-3690154Y+4692781D01*
X-3397161Y+4985774D01*
X-3397161Y+5692434D01*
X-3392708Y+5687981D01*
X-10515459Y+4652479D02*
X-10530433Y+4652479D01*
X-10561175Y+4683221D01*
X-10520455Y+4684534D01*
X-10515459Y+4684534D01*
X-10515459Y+4652479D01*
X-5507459Y+4631465D02*
X-5576475Y+4700481D01*
X-5507459Y+4700481D01*
X-5507459Y+4631465D01*
X-9785344Y+4611779D02*
X-9909969Y+4611779D01*
X-9960769Y+4560979D01*
X-9972895Y+4560979D01*
X-10083750Y+4671834D01*
X-10026925Y+4671834D01*
X-9936162Y+4762597D01*
X-9785344Y+4611779D01*
X-6252759Y+4861079D02*
X-6384708Y+4861079D01*
X-6507459Y+4738328D01*
X-6507459Y+4564732D01*
X-6476319Y+4533592D01*
X-6647161Y+4362750D01*
X-6647161Y+4513932D01*
X-6596361Y+4564732D01*
X-6596361Y+4738328D01*
X-6609061Y+4751028D01*
X-6609061Y+4941981D01*
X-6469112Y+4941981D01*
X-6456412Y+4954681D01*
X-6252759Y+4954681D01*
X-6252759Y+4861079D01*
X-9401969Y+4929281D02*
X-9388565Y+4929281D01*
X-9274065Y+4814781D01*
X-8697006Y+4814781D01*
X-8765459Y+4746328D01*
X-8765459Y+4572732D01*
X-8642708Y+4449981D01*
X-8469112Y+4449981D01*
X-8443712Y+4475381D01*
X-8229059Y+4475381D01*
X-8229059Y+4413807D01*
X-8307187Y+4335679D01*
X-8443712Y+4335679D01*
X-8469112Y+4361079D01*
X-8642708Y+4361079D01*
X-8765459Y+4238328D01*
X-8765459Y+4220367D01*
X-8887447Y+4098379D01*
X-8940412Y+4098379D01*
X-8953112Y+4111079D01*
X-8971073Y+4111079D01*
X-9027275Y+4167281D01*
X-8963851Y+4167281D01*
X-8833661Y+4297471D01*
X-8833661Y+4481589D01*
X-8963851Y+4611779D01*
X-9147969Y+4611779D01*
X-9182910Y+4576838D01*
X-9217851Y+4611779D01*
X-9367061Y+4611779D01*
X-9367061Y+4750268D01*
X-9546074Y+4929281D01*
X-9471851Y+4929281D01*
X-9436910Y+4964222D01*
X-9401969Y+4929281D01*
X-11937616Y+4322810D02*
X-12036961Y+4223465D01*
X-12036961Y+4248849D01*
X-12075061Y+4286949D01*
X-12075061Y+4441981D01*
X-12056787Y+4441981D01*
X-11937616Y+4322810D01*
X-10114927Y+4218081D02*
X-9989358Y+4218081D01*
X-9989358Y+4210546D01*
X-10088825Y+4111079D01*
X-10125761Y+4111079D01*
X-10125761Y+4228915D01*
X-10114927Y+4218081D01*
X-9506757Y+4098379D02*
X-9646460Y+4098379D01*
X-9646460Y+4167281D01*
X-9506757Y+4167281D01*
X-9506757Y+4098379D01*
X-7496337Y+5001486D02*
X-7442454Y+5001486D01*
X-7230659Y+4789691D01*
X-7230659Y+4048590D01*
X-7259079Y+4048590D01*
X-7745334Y+4534845D01*
X-7745334Y+4552807D01*
X-8007308Y+4814781D01*
X-7890155Y+4814781D01*
X-7599894Y+5105042D01*
X-7496337Y+5001486D01*
X-11359458Y+3922810D02*
X-11484949Y+3797319D01*
X-11484949Y+3704775D01*
X-11664323Y+3884149D01*
X-11855425Y+3884149D01*
X-11723723Y+4015851D01*
X-11452499Y+4015851D01*
X-11359458Y+3922810D01*
X-10653229Y+4182581D02*
X-10581387Y+4182581D01*
X-10494059Y+4095253D01*
X-10494059Y+3636479D01*
X-10546433Y+3636479D01*
X-10745633Y+3835679D01*
X-10761335Y+3835679D01*
X-10671761Y+3925253D01*
X-10671761Y+3967813D01*
X-10665851Y+3973723D01*
X-10665851Y+4195203D01*
X-10653229Y+4182581D01*
X-7698642Y+4003224D02*
X-7840787Y+3861079D01*
X-7876708Y+3861079D01*
X-7999459Y+3738328D01*
X-7999459Y+3564732D01*
X-7876708Y+3441981D01*
X-7703112Y+3441981D01*
X-7580361Y+3564732D01*
X-7580361Y+3600653D01*
X-7513422Y+3667592D01*
X-7398932Y+3667592D01*
X-7386232Y+3654892D01*
X-7281459Y+3654892D01*
X-7281459Y+3564732D01*
X-7158708Y+3441981D01*
X-7112815Y+3441981D01*
X-7122466Y+3432330D01*
X-8863459Y+3432330D01*
X-9086872Y+3208918D01*
X-9346361Y+3468407D01*
X-9346361Y+3504328D01*
X-9469112Y+3627079D01*
X-9601975Y+3627079D01*
X-9524373Y+3704681D01*
X-9382070Y+3704681D01*
X-9382070Y+3560490D01*
X-9266759Y+3445179D01*
X-9103683Y+3445179D01*
X-9090983Y+3457879D01*
X-8908606Y+3457879D01*
X-8892708Y+3441981D01*
X-8719112Y+3441981D01*
X-8596361Y+3564732D01*
X-8596361Y+3738328D01*
X-8643544Y+3785510D01*
X-8487073Y+3941981D01*
X-8469112Y+3941981D01*
X-8443712Y+3967381D01*
X-8154633Y+3967381D01*
X-7908716Y+4213298D01*
X-7698642Y+4003224D01*
X-11649405Y+3348379D02*
X-11701687Y+3348379D01*
X-11869159Y+3515851D01*
X-11816877Y+3515851D01*
X-11649405Y+3348379D01*
X-10887387Y+3456581D02*
X-10790859Y+3360053D01*
X-10790859Y+3345376D01*
X-10912864Y+3467381D01*
X-10898187Y+3467381D01*
X-10887387Y+3456581D01*
X-7508262Y+3046296D02*
X-7508262Y+3028335D01*
X-7600918Y+2935679D01*
X-8329633Y+2935679D01*
X-8333661Y+2939707D01*
X-8333661Y+3114832D01*
X-7439726Y+3114832D01*
X-7508262Y+3046296D01*
X-12251285Y+2886479D02*
X-12266210Y+2886479D01*
X-12266210Y+2901404D01*
X-12251285Y+2886479D01*
X-11090059Y+2833947D02*
X-11142591Y+2886479D01*
X-11214433Y+2886479D01*
X-11244535Y+2916581D01*
X-11142591Y+2916581D01*
X-11090059Y+2969113D01*
X-11090059Y+2833947D01*
X-6631547Y+3924696D02*
X-6631547Y+3058397D01*
X-7515365Y+2174579D01*
X-7677011Y+2174579D01*
X-7791311Y+2060279D01*
X-8329661Y+2060279D01*
X-8329661Y+2123779D01*
X-8355061Y+2123779D01*
X-8355061Y+2194999D01*
X-8613061Y+2452999D01*
X-8613061Y+2679281D01*
X-8594087Y+2679281D01*
X-8482187Y+2567381D01*
X-7448364Y+2567381D01*
X-7247836Y+2767909D01*
X-7229875Y+2767909D01*
X-7114564Y+2883220D01*
X-7114564Y+3046296D01*
X-7183100Y+3114832D01*
X-6990956Y+3114832D01*
X-6651181Y+3454607D01*
X-6651181Y+3944330D01*
X-6631547Y+3924696D01*
X-5892708Y+4441981D02*
X-5874747Y+4441981D01*
X-3827425Y+2394659D01*
X-4016273Y+2394659D01*
X-4815051Y+3193437D01*
X-4815051Y+3247319D01*
X-4952681Y+3384949D01*
X-5147319Y+3384949D01*
X-5284949Y+3247319D01*
X-5284949Y+3052681D01*
X-5147319Y+2915051D01*
X-5093437Y+2915051D01*
X-4179347Y+2000961D01*
X-3533491Y+2000961D01*
X-3438060Y+1905530D01*
X-3507911Y+1835679D01*
X-4029633Y+1835679D01*
X-4795633Y+2601679D01*
X-5320261Y+2601679D01*
X-5320261Y+2614379D01*
X-5391251Y+2614379D01*
X-5391251Y+2915051D01*
X-5315051Y+2915051D01*
X-5315051Y+3384949D01*
X-5784949Y+3384949D01*
X-5784949Y+2915051D01*
X-5708749Y+2915051D01*
X-5708749Y+2614379D01*
X-5815559Y+2614379D01*
X-5815559Y+2601679D01*
X-5866187Y+2601679D01*
X-6082261Y+2385605D01*
X-6082261Y+2404753D01*
X-5871761Y+2615253D01*
X-5871761Y+3539332D01*
X-5846361Y+3564732D01*
X-5846361Y+3738328D01*
X-5969112Y+3861079D01*
X-6142708Y+3861079D01*
X-6265459Y+3738328D01*
X-6265459Y+3564732D01*
X-6240059Y+3539332D01*
X-6240059Y+2767807D01*
X-6393487Y+2614379D01*
X-6577559Y+2614379D01*
X-6577559Y+2601678D01*
X-6616188Y+2601678D01*
X-7043287Y+2174579D01*
X-7066357Y+2174579D01*
X-6314049Y+2926887D01*
X-6314049Y+4056206D01*
X-6409373Y+4151530D01*
X-6139161Y+4421742D01*
X-6139161Y+4454681D01*
X-5905408Y+4454681D01*
X-5892708Y+4441981D01*
X-11474859Y+2626053D02*
X-11474859Y+2554211D01*
X-11337229Y+2416581D01*
X-11243845Y+2416581D01*
X-11326277Y+2334149D01*
X-11622326Y+2334149D01*
X-11622326Y+2459505D01*
X-11737637Y+2574816D01*
X-11791520Y+2574816D01*
X-11868234Y+2651530D01*
X-11500336Y+2651530D01*
X-11474859Y+2626053D01*
X-12016024Y+2350312D02*
X-12016024Y+2334149D01*
X-12052379Y+2334149D01*
X-12142809Y+2424579D01*
X-12150593Y+2424579D01*
X-12120442Y+2454730D01*
X-12016024Y+2350312D01*
X-9006759Y+2289925D02*
X-8845890Y+2129056D01*
X-9104003Y+2296948D01*
X-9206530Y+2366865D01*
X-9006759Y+2366865D01*
X-9006759Y+2289925D01*
X-10722659Y+2301845D02*
X-11115755Y+1908749D01*
X-11706569Y+1908749D01*
X-11731472Y+1933652D01*
X-11894548Y+1933652D01*
X-12009859Y+1818341D01*
X-12009859Y+1783629D01*
X-12123760Y+1897530D01*
X-12055439Y+1965851D01*
X-11173723Y+1965851D01*
X-10722659Y+2416915D01*
X-10722659Y+2301845D01*
X-9543845Y+2611079D02*
X-9642708Y+2611079D01*
X-9765459Y+2488328D01*
X-9765459Y+2314732D01*
X-9642708Y+2191981D01*
X-9543567Y+2191981D01*
X-9257817Y+2006112D01*
X-9028159Y+1849500D01*
X-9028159Y+1679281D01*
X-8329661Y+1679281D01*
X-8329661Y+1742781D01*
X-7791311Y+1742781D01*
X-7677011Y+1628481D01*
X-7450809Y+1628481D01*
X-7309910Y+1769380D01*
X-7169011Y+1628481D01*
X-6942809Y+1628481D01*
X-6782861Y+1788429D01*
X-6782861Y+1914153D01*
X-6577559Y+2119455D01*
X-6577559Y+1712681D01*
X-6488659Y+1712681D01*
X-6488659Y+1589774D01*
X-6483034Y+1584149D01*
X-9478104Y+1584149D01*
X-10125761Y+2231806D01*
X-10125761Y+2679281D01*
X-9833661Y+2679281D01*
X-9833661Y+2900895D01*
X-9543845Y+2611079D01*
X-12468759Y+4348379D02*
X-12537447Y+4348379D01*
X-12852759Y+4033067D01*
X-12852759Y+3519993D01*
X-12558494Y+3225728D01*
X-12990059Y+2794163D01*
X-12990059Y+1807347D01*
X-12642093Y+1459381D01*
X-12457911Y+1459381D01*
X-12405910Y+1407380D01*
X-12405910Y+1282340D01*
X-13025100Y+1282340D01*
X-13025100Y+4501530D01*
X-12468759Y+4501530D01*
X-12468759Y+4348379D01*
X-12405910Y+3892358D02*
X-12459061Y+3839207D01*
X-12459061Y+3869993D01*
X-12405910Y+3923144D01*
X-12405910Y+3892358D01*
X-12405910Y+2833798D02*
X-12490859Y+2748849D01*
X-12490859Y+2554211D01*
X-12405910Y+2469262D01*
X-12405910Y+2387680D01*
X-12528959Y+2264631D01*
X-12528959Y+2038429D01*
X-12405910Y+1915380D01*
X-12405910Y+1879680D01*
X-12457911Y+1827679D01*
X-12489539Y+1827679D01*
X-12621761Y+1959901D01*
X-12621761Y+2641609D01*
X-12405910Y+2857460D01*
X-12405910Y+2833798D01*
D14*
X-11072910Y+8312530D03*
D15*
X-11072910Y+8312530D03*
D14*
X-10818910Y+8312530D03*
D15*
X-10818910Y+8312530D03*
D14*
X-10564910Y+8312530D03*
D15*
X-10564910Y+8312530D03*
D14*
X-10310910Y+8312530D03*
D15*
X-10310910Y+8312530D03*
D14*
X-10056910Y+8312530D03*
D15*
X-10056910Y+8312530D03*
D14*
X-9802910Y+8312530D03*
D15*
X-9802910Y+8312530D03*
D14*
X-9548910Y+8312530D03*
D15*
X-9548910Y+8312530D03*
D14*
X-9294910Y+8312530D03*
D15*
X-9294910Y+8312530D03*
D14*
X-9040910Y+8312530D03*
D15*
X-9040910Y+8312530D03*
D14*
X-8786910Y+8312530D03*
D15*
X-8786910Y+8312530D03*
D14*
X-8532910Y+8312530D03*
D15*
X-8532910Y+8312530D03*
D14*
X-8278910Y+8312530D03*
D15*
X-8278910Y+8312530D03*
D14*
X-8024910Y+8312530D03*
D15*
X-8024910Y+8312530D03*
D14*
X-7770910Y+8312530D03*
D15*
X-7770910Y+8312530D03*
D14*
X-7516910Y+8312530D03*
D15*
X-7516910Y+8312530D03*
D14*
X-7262910Y+8312530D03*
D15*
X-7262910Y+8312530D03*
D16*
X-9055910Y+5651530D03*
D17*
X-8801910Y+5651530D03*
X-8547910Y+5651530D03*
X-8293910Y+5651530D03*
X-8039910Y+5651530D03*
X-7785910Y+5651530D03*
X-7531910Y+5651530D03*
X-7277910Y+5651530D03*
X-7023910Y+5651530D03*
X-6769910Y+5651530D03*
X-6515910Y+5651530D03*
X-6261910Y+5651530D03*
X-6007910Y+5651530D03*
X-5753910Y+5651530D03*
X-5499910Y+5651530D03*
X-5245910Y+5651530D03*
X-4991910Y+5651530D03*
X-4737910Y+5651530D03*
X-4483910Y+5651530D03*
X-4229910Y+5651530D03*
X-4229910Y+7175530D03*
X-4483910Y+7175530D03*
X-4737910Y+7175530D03*
X-4991910Y+7175530D03*
X-5245910Y+7175530D03*
X-5499910Y+7175530D03*
X-5753910Y+7175530D03*
X-6007910Y+7175530D03*
X-6261910Y+7175530D03*
X-6515910Y+7175530D03*
X-6769910Y+7175530D03*
X-7023910Y+7175530D03*
X-7277910Y+7175530D03*
X-7531910Y+7175530D03*
X-7785910Y+7175530D03*
X-8039910Y+7175530D03*
X-8293910Y+7175530D03*
X-8547910Y+7175530D03*
X-8801910Y+7175530D03*
X-9055910Y+7175530D03*
D18*
X-12255910Y+2151530D03*
X-12255910Y+1643530D03*
D14*
X-3305910Y+5897530D03*
D15*
X-3305910Y+5897530D03*
D14*
X-3305910Y+6151530D03*
D15*
X-3305910Y+6151530D03*
D14*
X-3305910Y+6405530D03*
D15*
X-3305910Y+6405530D03*
D19*
X-5567910Y+1655530D03*
X-5567910Y+1909530D03*
X-5567910Y+2163530D03*
X-5567910Y+2417530D03*
X-6329910Y+2417530D03*
X-6329910Y+2163530D03*
X-6329910Y+1909530D03*
D13*
X-6329910Y+1655530D03*
D70*
X-6294910Y+9312530D03*
X-6294910Y+8804530D03*
X-3294910Y+9312530D03*
X-3294910Y+8804530D03*
X-5294910Y+9312530D03*
X-5294910Y+8804530D03*
X-4294910Y+9312530D03*
X-4294910Y+8804530D03*
X-6805910Y+4651530D03*
X-6297910Y+4651530D03*
X-6555910Y+5151530D03*
X-7063910Y+5151530D03*
X-6055910Y+5151530D03*
X-5547910Y+5151530D03*
X-5805910Y+4651530D03*
X-5297910Y+4651530D03*
X-5055910Y+5151530D03*
X-4547910Y+5151530D03*
D71*
X-6805910Y+4151530D03*
D20*
X-6805910Y+4151530D03*
D21*
X-6655910Y+4151530D03*
D70*
X-10794910Y+7562530D03*
X-9778910Y+7562530D03*
X-11016000Y+7150000D03*
X-10000000Y+7150000D03*
X-9794910Y+7812530D03*
X-10810910Y+7812530D03*
X-9944910Y+8812530D03*
X-10960910Y+8812530D03*
X-6044910Y+8312530D03*
X-5028910Y+8312530D03*
X-5544910Y+8062530D03*
X-4528910Y+8062530D03*
X-5044910Y+7812530D03*
X-4028910Y+7812530D03*
X-10015459Y+6900000D03*
X-11031459Y+6900000D03*
D18*
X-3305910Y+1651530D03*
X-3305910Y+2159530D03*
X-7055910Y+1901530D03*
X-7563910Y+1901530D03*
D22*
X-8555910Y+2901530D03*
X-8809910Y+2901530D03*
X-9063910Y+2901530D03*
X-10055910Y+2901530D03*
X-10309910Y+2901530D03*
X-10563910Y+2901530D03*
D16*
X-9055910Y+5151530D03*
D17*
X-9309910Y+5151530D03*
X-9563910Y+5151530D03*
X-9817910Y+5151530D03*
X-9817910Y+4389530D03*
X-9563910Y+4389530D03*
X-9309910Y+4389530D03*
X-9055910Y+4389530D03*
D70*
X-12005910Y+4651530D03*
X-12005910Y+4905530D03*
X-8555910Y+4151530D03*
X-8555910Y+4659530D03*
D71*
X-8055910Y+4476530D03*
D20*
X-8055910Y+4476530D03*
D21*
X-8055910Y+4326530D03*
D70*
X-10055910Y+3901530D03*
X-9039910Y+3901530D03*
X-10305910Y+4651530D03*
X-11321910Y+4651530D03*
X-6055910Y+3651530D03*
X-7071910Y+3651530D03*
D23*
X-11239910Y+2651530D03*
X-12255910Y+2651530D03*
X-11239910Y+3151530D03*
X-12255910Y+3151530D03*
X-12266000Y+3700000D03*
X-11250000Y+3700000D03*
X-12271910Y+4151530D03*
X-11255910Y+4151530D03*
D22*
X-8805910Y+1901530D03*
X-8551910Y+1901530D03*
D70*
X-9555910Y+2401530D03*
X-9555910Y+3417530D03*
D23*
X-10555910Y+4417530D03*
X-10555910Y+3401530D03*
D70*
X-8805910Y+3651530D03*
X-7789910Y+3651530D03*
D24*
X-12050000Y+5800000D03*
D23*
X-12050000Y+6300000D03*
D24*
X-5550000Y+3150000D03*
D23*
X-5050000Y+3150000D03*
D25*
X-13155910Y+1151530D02*
X-2305910Y+1151530D01*
X-2305910Y+9701530D01*
X-13155910Y+9701530D01*
X-13155910Y+1151530D01*
X-12864470Y+9516130D02*
X-12864470Y+9173230D01*
X-12590150Y+9516130D01*
X-12590150Y+9173230D01*
X-12681590Y+9058930D02*
X-12681590Y+8716030D01*
X-12727310Y+8716030D01*
X-12773030Y+8773180D01*
X-12773030Y+9001780D01*
X-12727310Y+9058930D01*
X-12635870Y+9058930D01*
X-12590150Y+9001780D01*
X-12590150Y+8773180D01*
X-12590150Y+8601730D02*
X-12864470Y+8601730D01*
X-12864470Y+8315980D01*
X-12818750Y+8258830D01*
X-12773030Y+8258830D01*
X-12727310Y+8315980D01*
X-12727310Y+8601730D01*
X-12727310Y+8315980D02*
X-12681590Y+8258830D01*
X-12590150Y+8258830D01*
X-12727310Y+8144530D02*
X-12773030Y+8087380D01*
X-12773030Y+7858780D01*
X-12727310Y+7801630D01*
X-12635870Y+7801630D01*
X-12590150Y+7858780D01*
X-12590150Y+8087380D01*
X-12635870Y+8144530D01*
X-12727310Y+8144530D01*
X-12590150Y+6830080D02*
X-12818750Y+7115830D01*
X-12864470Y+7058680D01*
X-12864470Y+6944380D01*
X-12818750Y+6887230D01*
X-12681590Y+7172980D01*
X-12635870Y+7172980D01*
X-12590150Y+7115830D01*
X-12590150Y+7001530D01*
X-12727310Y+6830080D01*
X-12590150Y+6372880D02*
X-12818750Y+6658630D01*
X-12864470Y+6601480D01*
X-12864470Y+6487180D01*
X-12818750Y+6430030D01*
X-12681590Y+6715780D01*
X-12635870Y+6715780D01*
X-12590150Y+6658630D01*
X-12590150Y+6544330D01*
X-12727310Y+6372880D01*
X-12635870Y+5858530D02*
X-12590150Y+5801380D01*
X-12590150Y+5572780D01*
X-12635870Y+5515630D01*
X-12681590Y+5515630D01*
X-12727310Y+5572780D01*
X-12727310Y+5801380D01*
X-12773030Y+5858530D01*
X-12818750Y+5858530D01*
X-12864470Y+5801380D01*
X-12864470Y+5572780D01*
X-12818750Y+5515630D01*
X-12590150Y+5401330D02*
X-12864470Y+5401330D01*
X-12864470Y+5058430D02*
X-12590150Y+5058430D01*
X-12727310Y+5401330D02*
X-12727310Y+5058430D01*
X-12681590Y+4944130D02*
X-12681590Y+4601230D01*
X-12727310Y+4601230D01*
X-12773030Y+4658380D01*
X-12773030Y+4886980D01*
X-12727310Y+4944130D01*
X-12635870Y+4944130D01*
X-12590150Y+4886980D01*
X-12590150Y+4658380D01*
M02*
