M48
METRIC,TZ
T01C0.3810
T02C0.5080
T03C0.9650
T04C1.0160
T05C0.7620
T06C1.5240
T07C0.7000
T08C1.2700
%
T01
X-70789Y+78387
X-103932Y+60403
X-37510Y+58780
X-37432Y+53371
X-99283Y+62831
X-117176Y+73466
X-63299Y+16555
T02
X-70949Y+78387
X-60284Y+78439
X-54754Y+75419
X-70675Y+75419
X-88949Y+77625
X-97726Y+80318
X-58402Y+76923
X-69482Y+76976
X-80503Y+80267
X-87949Y+80625
X-67794Y+68611
X-35559Y+69015
X-35559Y+59015
X-39518Y+69176
X-39440Y+58593
X-43059Y+54015
X-53059Y+54015
X-37589Y+69050
X-37589Y+58859
X-37510Y+53449
X-37746Y+42866
X-73114Y+29648
X-73047Y+38517
X-72676Y+86298
X-72628Y+93937
X-61500Y+79850
X-72500Y+79850
X-118130Y+17368
X-118192Y+23780
X-99283Y+62743
X-93463Y+54365
X-86231Y+53483
X-74148Y+51983
X-90701Y+76125
X-99264Y+65831
X-67781Y+60293
X-117512Y+48382
X-107391Y+48641
X-101085Y+48687
X-91852Y+36420
X-123000Y+73500
X-117210Y+73500
T03
X-110729Y+83125
X-108189Y+83125
X-105649Y+83125
X-103109Y+83125
X-100569Y+83125
X-98029Y+83125
X-95489Y+83125
X-92949Y+83125
X-90409Y+83125
X-87869Y+83125
X-85329Y+83125
X-82789Y+83125
X-80249Y+83125
X-77709Y+83125
X-75169Y+83125
X-72629Y+83125
X-33059Y+58975
X-33059Y+61515
X-33059Y+64055
T04
X-90559Y+56515
X-85559Y+29015
X-88099Y+29015
X-90639Y+29015
X-100559Y+29015
X-103099Y+29015
X-105639Y+29015
X-90559Y+51515
X-112399Y+26515
X-122559Y+26515
X-112399Y+31515
X-122559Y+31515
X-122660Y+37000
X-112500Y+37000
X-122719Y+41515
X-112559Y+41515
X-88059Y+19015
X-85519Y+19015
X-105559Y+44175
X-105559Y+34015
T05
X-88019Y+56515
X-85479Y+56515
X-82939Y+56515
X-80399Y+56515
X-77859Y+56515
X-75319Y+56515
X-72779Y+56515
X-70239Y+56515
X-67699Y+56515
X-65159Y+56515
X-62619Y+56515
X-60079Y+56515
X-57539Y+56515
X-54999Y+56515
X-52459Y+56515
X-49919Y+56515
X-47379Y+56515
X-44839Y+56515
X-42299Y+56515
X-42299Y+71755
X-44839Y+71755
X-47379Y+71755
X-49919Y+71755
X-52459Y+71755
X-54999Y+71755
X-57539Y+71755
X-60079Y+71755
X-62619Y+71755
X-65159Y+71755
X-67699Y+71755
X-70239Y+71755
X-72779Y+71755
X-75319Y+71755
X-77859Y+71755
X-80399Y+71755
X-82939Y+71755
X-85479Y+71755
X-88019Y+71755
X-90559Y+71755
X-55679Y+16555
X-55679Y+19095
X-55679Y+21635
X-55679Y+24175
X-63299Y+24175
X-63299Y+21635
X-63299Y+19095
X-62949Y+93125
X-62949Y+88045
X-32949Y+93125
X-32949Y+88045
X-52949Y+93125
X-52949Y+88045
X-42949Y+93125
X-42949Y+88045
X-68059Y+46515
X-62979Y+46515
X-65559Y+51515
X-70639Y+51515
X-60559Y+51515
X-55479Y+51515
X-58059Y+46515
X-52979Y+46515
X-50559Y+51515
X-45479Y+51515
X-107949Y+75625
X-97789Y+75625
X-110160Y+71500
X-100000Y+71500
X-97949Y+78125
X-108109Y+78125
X-99449Y+88125
X-109609Y+88125
X-60449Y+83125
X-50289Y+83125
X-55449Y+80625
X-45289Y+80625
X-50449Y+78125
X-40289Y+78125
X-100155Y+69000
X-110315Y+69000
X-93099Y+51515
X-95639Y+51515
X-98179Y+51515
X-98179Y+43895
X-95639Y+43895
X-93099Y+43895
X-90559Y+43895
X-120059Y+46515
X-120059Y+49055
X-85559Y+41515
X-85559Y+46595
X-100559Y+39015
X-90399Y+39015
X-103059Y+46515
X-113219Y+46515
X-60559Y+36515
X-70719Y+36515
X-95559Y+24015
X-95559Y+34175
X-88059Y+36515
X-77899Y+36515
T06
X-122559Y+21515
X-122559Y+16435
X-33059Y+16515
X-33059Y+21595
X-70559Y+19015
X-75639Y+19015
T07
X-68059Y+41515
X-66559Y+41515
X-80559Y+44765
X-80559Y+43265
T08
X-120500Y+58000
X-120500Y+63000
X-55500Y+31500
X-50500Y+31500
M30
